<?xml version="1.0" encoding="utf-8" ?>
<svg baseProfile="full" height="200mm" version="1.1" viewBox="0,0,200,200" width="200mm" xmlns="http://www.w3.org/2000/svg" xmlns:ev="http://www.w3.org/2001/xml-events" xmlns:xlink="http://www.w3.org/1999/xlink"><defs /><rect fill="#FFF8F0" height="200" width="200" x="0" y="0" /><text alignment-baseline="middle" fill="#2D2D2D" style="dominant-baseline: central; font-size:9.0px; font-family:Arial;" text-anchor="middle" x="100.0" y="100.0">2026</text><line stroke="#2D2D2D" stroke-width="0.3" x1="100.0" x2="100.0" y1="15.0" y2="10.0" /><path d="M 100.0 14.0 a86.0,86.0 0 0,1 42.46469731375804,11.215312516191453" fill="none" id="id85" stroke="none" /><text fill="#2D2D2D" style="font-size:6.75px; font-family:Arial;" text-anchor="middle"><textPath startOffset="22.20632615414155" xlink:href="#id85">January</textPath></text><path d="M 103.59715602781102 79.31037775812273 l 3.7124833181070422 -21.35294572630667 a42.67327440830807,42.67327440830807 0 0,0 0.72261069419567,0.13205248555294036 l -4.079489133405613 21.285877759402993" fill="#FF9933" stroke="none" /><path d="M 104.66035177308747 79.52364482259891 l 5.293291996413342 -23.25732739793753 a44.852090429439286,44.852090429439286 0 0,0 0.7513287144424589,0.1778152322513449 l -5.692844397818324 23.162766253545318" fill="#FF9933" stroke="none" /><path d="M 105.36241919743992 79.69619591428918 l 6.262192427914049 -23.710628267198807 a45.523640570468146,45.523640570468146 0 0,0 0.7559137884353978,0.20661979318818088 l -6.669404105573157 23.59932193318433" fill="#FF9933" stroke="none" /><path d="M 105.71112130821622 79.79150937346287 l 6.637567871668015 -23.486671159415835 a45.40657758477282,45.40657758477282 0 0,0 0.7503107905531585,0.2190362946390489 l -7.0408688799446 23.368936535858083" fill="#FF9933" stroke="none" /><path d="M 108.09893153111575 80.62456947434976 l 11.870120820318517 -28.39741272062236 a51.778447288879335,51.778447288879335 0 0,0 0.8193723347853629,0.3508124724578812 l -12.357176912894195 28.188880720201684" fill="#FF9933" stroke="none" /><path d="M 108.76106565485865 80.91482961587045 l 21.900917980970263 -47.70912212076189 a73.49581451833049,73.49581451833049 0 0,0 1.1452110423181467,0.5376919399719443 l -22.718907234588006 47.32506519814994" fill="#FF9933" stroke="none" /><path d="M 109.41281617654863 81.2277094730956 l 15.093149675035143 -30.100767437880794 a54.672828325853445,54.672828325853445 0 0,0 0.8376385298906552,0.4290709890670045 l -15.609048692514554 29.836503923501287" fill="#FF9933" stroke="none" /><path d="M 109.73455568895987 81.39251694778311 l 11.25910723487562 -21.521644515696032 a45.2888591413104,45.2888591413104 0 0,0 0.6876465273470665,0.36731696020146004 l -11.627898808750997 21.324648828992817" fill="#FF9933" stroke="none" /><line stroke="#2D2D2D" stroke-width="0.3" x1="143.23703022742887" x2="145.7803849466894" y1="26.81831364943548" y2="22.513508569990506" /><path d="M 143.74570117128098 25.957352633546492 a86.0,86.0 0 0,1 28.547481713284135,27.462654790039103" fill="none" id="id86" stroke="none" /><text fill="#2D2D2D" style="font-size:6.75px; font-family:Arial;" text-anchor="middle"><textPath startOffset="19.985693538727396" xlink:href="#id86">February</textPath></text><path d="M 110.68208982089419 81.91981866633111 l 12.216241860823134 -20.676840558634222 a45.016000930406975,45.016000930406975 0 0,0 0.6637457864398154,0.3998994096276944 l -12.570349713480587 20.463494539547913" fill="#FF9933" stroke="none" /><path d="M 110.99172775467656 82.1063720568725 l 12.899597760983848 -20.99948325711035 a45.64503843496369,45.64503843496369 0 0,0 0.6659412174145142,0.4170123292514041 l -13.259158130770626 20.774326586536002" fill="#FF9933" stroke="none" /><path d="M 114.68862486808459 84.99185889309783 l 11.110042676916091 -11.351715337298632 a36.88378070177116,36.88378070177116 0 0,0 0.4499192462034838,0.4479871499764204 l -11.303797723286898 11.158792336672093" fill="#FF9933" stroke="none" /><path d="M 116.38621287248628 86.86637796730983 l 18.145823094821612 -14.543957402116115 a44.25505520748402,44.25505520748402 0 0,0 0.47130773858298297,0.5985129659501742 l -18.39348491399856 14.229452042212904" fill="#FF9933" stroke="none" /><path d="M 116.60985879189232 87.15038557335679 l 28.814687550361647 -22.291437241301253 a57.43067928144957,57.43067928144957 0 0,0 0.5981653013393116,0.7871154204140424 l -29.19412879192507 21.792137045006175" fill="#FF9933" stroke="none" /><path d="M 116.82858285166822 87.43820079747576 l 18.490015233591887 -13.801985625484269 a44.073263110027035,44.073263110027035 0 0,0 0.4485763864350831,0.6118576869771708 l -18.724854232540597 13.481665494835605" fill="#FF9933" stroke="none" /><path d="M 117.45458315368197 88.32363383020206 l 33.264433247423625 -22.252476590699107 a61.02118481119611,61.02118481119611 0 0,0 0.5765146848089141,0.8780714173630187 l -33.64254456759046 21.676587109358415" fill="#FF9933" stroke="none" /><line stroke="#2D2D2D" stroke-width="0.3" x1="172.23445277983987" x2="176.4835382374775" y1="55.19839476539836" y2="52.563006222186495" /><path d="M 173.08426987136738 54.67131705675599 a86.0,86.0 0 0,1 12.851231095245387,41.99856678651699" fill="none" id="id87" stroke="none" /><text fill="#2D2D2D" style="font-size:6.75px; font-family:Arial;" text-anchor="middle"><textPath startOffset="22.20632615414155" xlink:href="#id87">March</textPath></text><path d="M 117.84615892207809 88.93136811851018 l 19.991645382145922 -12.399315976420333 a44.52464498708937,44.52464498708937 0 0,0 0.39835606571374127,0.654792631358427 l -20.20211724614589 12.053355571854823" fill="#FF9933" stroke="none" /><path d="M 119.34039704204932 91.81776055985345 l 28.24258623735365 -11.948441518578505 a51.66608765553976,51.66608765553976 0 0,0 0.33946664856672554,0.8220454157573579 l -28.44407457280657 11.460521532367844" fill="#FF9933" stroke="none" /><path d="M 119.61058180528143 92.48833698450437 l 33.989859002253304 -13.019520241891847 a57.398055199723125,57.398055199723125 0 0,0 0.3454690860083539,0.9256853940790187 l -34.20893267676328 12.432511710783494" fill="#FF9933" stroke="none" /><path d="M 120.18372546131832 94.20196356495316 l 42.047240897694785 -12.078614286804848 a64.74772440022662,64.74772440022662 0 0,0 0.29849696655547764,1.073852406568755 l -42.248924634816625 11.353050576817141" fill="#FF9933" stroke="none" /><path d="M 120.37134235888165 94.90015583598534 l 49.501446122123056 -12.392392050989704 a72.0290559282345,72.0290559282345 0 0,0 0.29074768432825054,1.2053368572767718 l -49.707426606712126 11.538469962053526" fill="#FF9933" stroke="none" /><path d="M 120.6074358757038 95.95851677861258 l 28.677941019486425 -5.624252243377872 a50.224245318130684,50.224245318130684 0 0,0 0.15907758664329055,0.8497988287823846 l -28.770504330039575 5.129775337132925" fill="#FF9933" stroke="none" /><path d="M 120.67395015179393 96.31383870115 l 43.148835420229766 -7.693428979400784 a64.82933774976709,64.82933774976709 0 0,0 0.1864249059802461,1.1002903480042634 l -43.27487218773023 6.949552843080683" fill="#FF9933" stroke="none" /><line stroke="#2D2D2D" stroke-width="0.3" x1="184.98032266829074" x2="189.97916517819016" y1="98.17113171792111" y2="98.06355123074" /><path d="M 185.9800911702706 98.14961562048488 a86.0,86.0 0 0,1 -9.607161424134198,41.387399972396054" fill="none" id="id88" stroke="none" /><text fill="#2D2D2D" style="font-size:6.75px; font-family:Arial;" text-anchor="middle"><textPath startOffset="21.466115282336823" xlink:href="#id88">April</textPath></text><path d="M 120.99513854157772 99.54816195383933 l 36.48549153869863 -0.7852071648591428 a57.49393981351144,57.49393981351144 0 0,0 0.012777324184959447,0.9896178392303994 l -36.49360187000131 0.15705306756828064" fill="#FF9933" stroke="none" /><path d="M 120.99980553446 99.90962569577887 l 36.692111616771946 -0.15790736977674966 a57.692451398551725,57.692451398551725 0 0,0 -0.004273919191235362,0.9931083028462392 l -36.6893934002912 -0.47371041127317426" fill="#FF9933" stroke="none" /><path d="M 120.95626037817324 101.35467743843564 l 30.25862561290001 1.9560110771748116 a51.32178100500825,51.32178100500825 0 0,0 -0.06457609855369259,0.8810895588159646 l -30.220472955681977 -2.4765737724875465" fill="#FF9933" stroke="none" /><path d="M 120.76222939487914 103.15116336523771 l 14.398947710291996 2.185383643523199 a35.56384553725773,35.56384553725773 0 0,0 -0.09706939211246356,0.6044511973442811 l -14.359196563818243 -2.432914070560685" fill="#FF9933" stroke="none" /><path d="M 120.64145759157962 103.86396538481128 l 11.621375859233378 2.1754565463573363 a32.82323932121233,32.82323932121233 0 0,0 -0.1087388075967885,0.5544568372554161 l -11.582207118660925 -2.3751771106806974" fill="#FF9933" stroke="none" /><path d="M 120.49622156327973 104.57218783832717 l 42.71030907050615 9.527588053264328 a64.76008952242745,64.76008952242745 0 0,0 -0.2520691937071407,1.0859074892266434 l -42.53997931086845 -10.261364199839536" fill="#FF9933" stroke="none" /><path d="M 120.23288151984713 105.62410040840565 l 16.390309011694338 4.555986922383834 a38.01173848657923,38.01173848657923 0 0,0 -0.18065958979622113,0.6288997323922252 l -16.309456785012017 -4.837444130280641" fill="#FF9933" stroke="none" /><path d="M 120.13307415673323 105.97154293290107 l 13.94589089733621 4.136401901800285 a35.546397960100705,35.546397960100705 0 0,0 -0.17904082085815584,0.5851157617970186 l -13.872623303971922 -4.3758446361493615" fill="#FF9933" stroke="none" /><path d="M 120.02730092923936 106.31721596034902 l 14.84001677283771 4.68098977193419 a36.56077642867017,36.56077642867017 0 0,0 -0.1944820017116667,0.5985540549448904 l -14.757242520109797 -4.935742726856875" fill="#FF9933" stroke="none" /><path d="M 119.79798401119884 107.00284435728193 l 14.232004228989224 5.034073694140469 a36.09608698742837,36.09608698742837 0 0,0 -0.21223766740915892,0.5839869082589102 l -14.143242300574837 -5.2783083994055096" fill="#FF9933" stroke="none" /><path d="M 119.67450827220406 107.3425965602758 l 48.84647744772014 18.229679355998442 a73.13731454988019,73.13731454988019 0 0,0 -0.45033681649850277,1.1756873227214746 l -48.52544635162813 -19.06779024555306" fill="#FF9933" stroke="none" /><path d="M 118.81262510543309 109.33194174019688 l 37.48858479522037 18.596091043689206 a62.84744427146783,62.84744427146783 0 0,0 -0.489076806827457,0.9649949385992587 l -37.16292931860664 -19.23864019399116" fill="#FF9933" stroke="none" /><line stroke="#2D2D2D" stroke-width="0.3" x1="174.80103733775053" x2="179.2010983576182" y1="140.37084112569926" y2="142.7455964860345" /><path d="M 175.68104954172406 140.8457921977663 a86.0,86.0 0 0,1 -30.038265399797805,32.042727171017184" fill="none" id="id89" stroke="none" /><text fill="#2D2D2D" style="font-size:6.75px; font-family:Arial;" text-anchor="middle"><textPath startOffset="22.206326154141568" xlink:href="#id89">May</textPath></text><path d="M 117.55443506779139 111.5257021239791 l 30.417072993927686 19.970914555637005 a57.387302149327844,57.387302149327844 0 0,0 -0.5492699771843595,0.8210840899614655 l -30.068799911332604 -20.49153555980428" fill="#FF9933" stroke="none" /><path d="M 117.14729908036423 112.12312394758627 l 32.00545274151708 22.627824286819667 a60.19652327878927,60.19652327878927 0 0,0 -0.6054629592958443,0.8409350951750219 l -31.611209989845634 -23.175392987445818" fill="#FF9933" stroke="none" /><path d="M 116.71984013943494 112.70617746262583 l 35.100842803053816 26.67474892247429 a65.08640828602097,65.08640828602097 0 0,0 -0.6855557049823457,0.8861731625287108 l -34.636480280853405 -27.275000079116253" fill="#FF9933" stroke="none" /><path d="M 116.498646956653 112.99209946851258 l 27.989459022624313 22.040706528674153 a56.625869261848266,56.625869261848266 0 0,0 -0.6096235597346439,0.7605991246763955 l -27.605917550834814 -22.5192334869288" fill="#FF9933" stroke="none" /><path d="M 116.0416608686014 113.55231037782055 l 19.398583861971872 16.388304898166346 a46.39451896148495,46.39451896148495 0 0,0 -0.5206293289587839,0.6056095295584643 l -19.113612023442307 -16.719791526886336" fill="#FF9933" stroke="none" /><path d="M 114.55890576462653 115.13401014063108 l 30.26659461833742 31.462182480033295 a64.65702321732078,64.65702321732078 0 0,0 -0.8087182406738925,0.7646935742046318 l -29.720540543272723 -31.97851069098385" fill="#FF9933" stroke="none" /><line stroke="#2D2D2D" stroke-width="0.3" x1="143.8653032363475" x2="146.44561519142675" y1="172.8068346515853" y2="177.08958963109032" /><path d="M 144.38136562736335 173.6633856474863 a86.0,86.0 0 0,1 -40.68145358897372,12.25698825130547" fill="none" id="id90" stroke="none" /><text fill="#2D2D2D" style="font-size:6.75px; font-family:Arial;" text-anchor="middle"><textPath startOffset="21.466115282336833" xlink:href="#id90">June</textPath></text><path d="M 107.2578585660854 119.70592522655815 l 10.465773287263435 28.41578462284079 a51.281829968350195,51.281829968350195 0 0,0 -0.8309620777781637,0.2979534368766224 l -9.975091648855537 -28.59172560075737" fill="#FF9933" stroke="none" /><path d="M 101.62511606390274 120.93702456842531 l 1.9261953119562498 24.81594974402238 a45.890592401098985,45.890592401098985 0 0,0 -0.788088407131035,0.05435119067351029 l -1.4987441440462843 -24.845429279212173" fill="#FF9933" stroke="none" /><path d="M 101.26447882468166 120.96189622390904 l 1.6079796004947526 26.65627992957446 a47.704734750216886,47.704734750216886 0 0,0 -0.8200942113332572,0.04238950327604521 l -1.148897320748016 -26.680009239612705" fill="#FF9933" stroke="none" /><path d="M 100.90346689309514 120.98055641714683 l 1.7775061596225274 41.27773640495665 a62.315990256371435,62.315990256371435 0 0,0 -1.0720713830889366,0.036924306097028826 l -1.0667144248589386 -41.30221750947977" fill="#FF9933" stroke="none" /><line stroke="#2D2D2D" stroke-width="0.3" x1="102.19456741930631" x2="102.32365962044197" y1="184.97166512339345" y2="189.96999836594603" /><path d="M 102.22038585953345 185.97133177190398 a86.0,86.0 0 0,1 -42.740103519485714,-10.115201625700543" fill="none" id="id91" stroke="none" /><text fill="#2D2D2D" style="font-size:6.75px; font-family:Arial;" text-anchor="middle"><textPath startOffset="22.20632615414155" xlink:href="#id91">July</textPath></text><path d="M 100.54218724476979 120.99299961872073 l 1.626561734309384 62.97899885616221 a84.0,84.0 0 0,0 -1.4457612404293283,0.02489009088336136 l -0.5422408039873879 -62.99766642432473" fill="#FF9933" stroke="none" /><path d="M 97.65516085044442 120.86867818915974 l -4.651938864033436 41.401481686945836 a62.66201172614227,62.66201172614227 0 0,0 -1.070841791664035,-0.12966402802692947 l 5.363908078748861 -41.315272130193556" fill="#FF9933" stroke="none" /><line stroke="#2D2D2D" stroke-width="0.3" x1="58.666819895761336" x2="56.23545636021788" y1="174.27360380694188" y2="178.64263932499728" /><path d="M 58.180547188652646 175.14741091055294 a86.0,86.0 0 0,1 -31.652253787137756,-30.449443065178592" fill="none" id="id92" stroke="none" /><text fill="#2D2D2D" style="font-size:6.75px; font-family:Arial;" text-anchor="middle"><textPath startOffset="22.20632615414155" xlink:href="#id92">August</textPath></text><line stroke="#2D2D2D" stroke-width="0.3" x1="26.63291911575756" x2="22.317208475507996" y1="142.92168965132927" y2="145.44649492493687" /><path d="M 25.769776987707644 143.4266507060508 a86.0,86.0 0 0,1 -11.730757126820373,-40.83630448921669" fill="none" id="id93" stroke="none" /><text fill="#2D2D2D" style="font-size:6.75px; font-family:Arial;" text-anchor="middle"><textPath startOffset="21.46611528233685" xlink:href="#id93">September</textPath></text><line stroke="#2D2D2D" stroke-width="0.3" x1="15.007084014347285" x2="10.007500721073583" y1="101.09737516637583" y2="101.16192664675087" /><path d="M 14.007167355692545 101.11028546245083 a86.0,86.0 0 0,1 10.666146001902534,-42.60595125391555" fill="none" id="id94" stroke="none" /><text fill="#2D2D2D" style="font-size:6.75px; font-family:Arial;" text-anchor="middle"><textPath startOffset="22.20632615414155" xlink:href="#id94">October</textPath></text><line stroke="#2D2D2D" stroke-width="0.3" x1="26.266209847984243" x2="21.928928074336255" y1="57.711370442889674" y2="55.22380399835377" /><path d="M 25.398753493254645 57.213857153982495 a86.0,86.0 0 0,1 29.58750427330803,-30.492523968695096" fill="none" id="id95" stroke="none" /><text fill="#2D2D2D" style="font-size:6.75px; font-family:Arial;" text-anchor="middle"><textPath startOffset="21.46611528233685" xlink:href="#id95">November</textPath></text><line stroke="#2D2D2D" stroke-width="0.3" x1="56.762969772571076" x2="54.21961505331055" y1="26.818313649435495" y2="22.513508569990535" /><path d="M 56.25429882871897 25.957352633546506 a86.0,86.0 0 0,1 42.265352541879196,-11.944610805530505" fill="none" id="id96" stroke="none" /><text fill="#2D2D2D" style="font-size:6.75px; font-family:Arial;" text-anchor="middle"><textPath startOffset="22.20632615414155" xlink:href="#id96">December</textPath></text></svg>