<?xml version="1.0" encoding="utf-8" ?>
<svg baseProfile="full" height="200mm" version="1.1" viewBox="0,0,200,200" width="200mm" xmlns="http://www.w3.org/2000/svg" xmlns:ev="http://www.w3.org/2001/xml-events" xmlns:xlink="http://www.w3.org/1999/xlink"><defs /><rect fill="#FFF8F0" height="200" width="200" x="0" y="0" /><text alignment-baseline="middle" fill="#e1ed5e" style="dominant-baseline: central; font-size:9.0px; font-family:Arial;" text-anchor="middle" x="100.0" y="100.0">2021</text><line stroke="#e1ed5e" stroke-width="0.3" x1="100.0" x2="100.0" y1="15.0" y2="10.0" /><path d="M 100.0 14.0 a86.0,86.0 0 0,1 42.46469731375804,11.215312516191453" fill="none" id="id25" stroke="none" /><text fill="#e1ed5e" style="font-size:6.75px; font-family:Arial;" text-anchor="middle"><textPath startOffset="22.20632615414155" xlink:href="#id25">January</textPath></text><line stroke="#e1ed5e" stroke-width="0.3" x1="143.23703022742887" x2="145.7803849466894" y1="26.81831364943548" y2="22.513508569990506" /><path d="M 143.74570117128098 25.957352633546492 a86.0,86.0 0 0,1 28.547481713284135,27.462654790039103" fill="none" id="id26" stroke="none" /><text fill="#e1ed5e" style="font-size:6.75px; font-family:Arial;" text-anchor="middle"><textPath startOffset="19.985693538727396" xlink:href="#id26">February</textPath></text><path d="M 114.94478906791727 85.2469230424477 l 10.428187028102824 -10.294413996355592 a35.653397019853585,35.653397019853585 0 0,0 0.42739210239420095,0.4404651303436605 l -10.603843394200135 10.113384670461818" fill="#dc322f" stroke="none" /><line stroke="#e1ed5e" stroke-width="0.3" x1="172.23445277983987" x2="176.4835382374775" y1="55.19839476539836" y2="52.563006222186495" /><path d="M 173.08426987136738 54.67131705675599 a86.0,86.0 0 0,1 12.851231095245387,41.99856678651699" fill="none" id="id27" stroke="none" /><text fill="#e1ed5e" style="font-size:6.75px; font-family:Arial;" text-anchor="middle"><textPath startOffset="22.20632615414155" xlink:href="#id27">March</textPath></text><path d="M 118.73160827565052 90.50648371742162 l 56.19482482695156 -28.480548847735175 a84.0,84.0 0 0,0 0.6425599481863675,1.2953616460042006 l -56.676744788091334 27.509027613232025" fill="#dc322f" stroke="none" /><path d="M 119.61058180528143 92.48833698450437 l 12.045666579455819 -4.61398794999145 a33.89910726159315,33.89910726159315 0 0,0 0.2040329338931719,0.5467068240410723 l -12.123304101850616 4.4059579889210445" fill="#dc322f" stroke="none" /><line stroke="#e1ed5e" stroke-width="0.3" x1="184.98032266829074" x2="189.97916517819016" y1="98.17113171792111" y2="98.06355123074" /><path d="M 185.9800911702706 98.14961562048488 a86.0,86.0 0 0,1 -9.607161424134198,41.387399972396054" fill="none" id="id28" stroke="none" /><text fill="#e1ed5e" style="font-size:6.75px; font-family:Arial;" text-anchor="middle"><textPath startOffset="21.466115282336823" xlink:href="#id28">April</textPath></text><path d="M 120.99980553446 99.90962569577887 l 14.125949483735601 -0.060792127525206845 a35.12608029496573,35.12608029496573 0 0,0 -0.0026021780154291897,0.6046545283088777 l -14.12490300843067 -0.18237187898735552" fill="#dc322f" stroke="none" /><path d="M 118.64920377521936 109.65438752849418 l 12.409402067956865 6.4241443229950175 a34.97364984414885,34.97364984414885 0 0,0 -0.2813671628280861,0.532240636086911 l -12.296982396903886 -6.6367999741680626" fill="#dc322f" stroke="none" /><line stroke="#e1ed5e" stroke-width="0.3" x1="174.80103733775053" x2="179.2010983576182" y1="140.37084112569926" y2="142.7455964860345" /><path d="M 175.68104954172406 140.8457921977663 a86.0,86.0 0 0,1 -30.038265399797805,32.042727171017184" fill="none" id="id29" stroke="none" /><text fill="#e1ed5e" style="font-size:6.75px; font-family:Arial;" text-anchor="middle"><textPath startOffset="22.206326154141568" xlink:href="#id29">May</textPath></text><path d="M 118.12598468904814 110.60418214915192 l 21.920897958797987 12.824307137836026 a46.39662617131626,46.39662617131626 0 0,0 -0.40921630809561477,0.6858700704463143 l -21.696900775004146 -13.199739302168444" fill="#dc322f" stroke="none" /><path d="M 117.75023020441432 111.22182372390056 l 25.531972072111635 16.141497130867336 a51.20644844262375,51.20644844262375 0 0,0 -0.4774273127999784,0.740977791735672 l -25.250339895934605 -16.578596522524464" fill="#dc322f" stroke="none" /><path d="M 117.14729908036423 112.12312394758627 l 13.74442819063327 9.717297503404055 a37.8325629972722,37.8325629972722 0 0,0 -0.38052389577366286,0.5285144096691757 l -13.575124502484003 -9.952445518524362" fill="#dc322f" stroke="none" /><path d="M 114.0293411484842 115.62618273729858 l 7.919628991518365 8.821053570747655 a32.85459866302095,32.85459866302095 0 0,0 -0.42407096237127756,0.37419331840731956 l -7.766615676240499 -8.956070030927263" fill="#dc322f" stroke="none" /><path d="M 113.75828350139079 115.86535959552629 l 8.874444542722188 10.233562483765551 a34.5455367944938,34.5455367944938 0 0,0 -0.4526033239211014,0.3857183716649791 l -8.696975742224039 -10.384805245653476" fill="#dc322f" stroke="none" /><line stroke="#e1ed5e" stroke-width="0.3" x1="143.8653032363475" x2="146.44561519142675" y1="172.8068346515853" y2="177.08958963109032" /><path d="M 144.38136562736335 173.6633856474863 a86.0,86.0 0 0,1 -40.68145358897372,12.25698825130547" fill="none" id="id30" stroke="none" /><text fill="#e1ed5e" style="font-size:6.75px; font-family:Arial;" text-anchor="middle"><textPath startOffset="21.466115282336833" xlink:href="#id30">June</textPath></text><path d="M 107.59598834532513 119.57807347666477 l 13.623939420159248 35.11465195620843 a58.66497719805259,58.66497719805259 0 0,0 -0.9445893232895731,0.35716285677264864 l -13.0174798761094 -35.343963063087706" fill="#dc322f" stroke="none" /><path d="M 106.91757812671514 119.82793768551818 l 4.473350229746256 12.822017760575083 a34.579948517224715,34.579948517224715 0 0,0 -0.5637030005199276,0.19123866352415037 l -4.251977496289101 -12.897119410997355" fill="#dc322f" stroke="none" /><path d="M 101.98527174616119 120.90594882070398 l 2.2743812464325988 23.950422922519266 a45.05817050861641,45.05817050861641 0 0,0 -0.77275981623089,0.0666769685481301 l -1.861777112460167 -23.98602414334606" fill="#dc322f" stroke="none" /><line stroke="#e1ed5e" stroke-width="0.3" x1="102.19456741930631" x2="102.32365962044197" y1="184.97166512339345" y2="189.96999836594603" /><path d="M 102.22038585953345 185.97133177190398 a86.0,86.0 0 0,1 -42.740103519485714,-10.115201625700543" fill="none" id="id31" stroke="none" /><text fill="#e1ed5e" style="font-size:6.75px; font-family:Arial;" text-anchor="middle"><textPath startOffset="22.20632615414155" xlink:href="#id31">July</textPath></text><path d="M 97.2962882734958 120.8252237178851 l -7.922983044637193 61.026437397198585 a82.53860350804044,82.53860350804044 0 0,0 -1.4073673352188385,-0.1950482887009577 l 8.972278971042863 -60.88101454300502" fill="#dc322f" stroke="none" /><path d="M 96.93821686468263 120.77559828337769 l -3.948056417337857 26.78936766637482 a48.07872540277129,48.07872540277129 0 0,0 -0.8177141160611456,-0.12771012778858506 l 4.40860639700752 -26.717439231239126" fill="#dc322f" stroke="none" /><path d="M 95.51606077576429 120.51570834832081 l -8.03905805989904 36.78171409208122 a58.64997936310236,58.64997936310236 0 0,0 -0.9844255220960957,-0.22405204381473023 l 8.671003731387998 -36.6378853146888" fill="#dc322f" stroke="none" /><path d="M 95.16358092515715 120.4354850818985 l -9.00095444706942 38.0320372324046 a60.082643679838604,60.082643679838604 0 0,0 -1.004372128940545,-0.2468502330410941 l 9.654279860753176 -37.87146574104948" fill="#dc322f" stroke="none" /><path d="M 94.81253420990036 120.34920634021253 l -6.7864844627799235 26.621779929868694 a48.473178520111446,48.473178520111446 0 0,0 -0.8067542457182754,-0.21307112876943318 l 7.243729151309688 -26.50101745179568" fill="#dc322f" stroke="none" /><path d="M 94.46302465271185 120.25689768951611 l -6.396368224492683 23.40096687833006 a45.25940595529907,45.25940595529907 0 0,0 -0.7497303181880461,-0.21188127677367447 l 6.798229710785343 -23.287396808217864" fill="#dc322f" stroke="none" /><path d="M 94.11515582081647 120.15858648285463 l -5.146276498105912 17.62861627139012 a39.36442957020113,39.36442957020113 0 0,0 -0.6488101995776672,-0.19548119086152793 l 5.448961672123826 -17.537419711422867" fill="#dc322f" stroke="none" /><path d="M 93.76903079525671 120.05430185196036 l -7.615119560674682 24.50917365989928 a46.6649496281304,46.6649496281304 0 0,0 -0.7650355280653217,-0.24494021706080946 l 8.035876433830945 -24.374460596178764" fill="#dc322f" stroke="none" /><path d="M 93.42475214034765 119.94407469862007 l -4.204005633276007 12.75161091614109 a34.426736175305784,34.426736175305784 0 0,0 -0.5612054185234333,-0.19039134810696903 l 4.422880784736666 -12.677356581135998" fill="#dc322f" stroke="none" /><path d="M 92.7421414339146 119.70592522655815 l -14.868976490132175 40.370990457042204 a64.02212607887593,64.02212607887593 0 0,0 -1.0308470170241737,-0.389778135765621 l 15.561693727916632 -40.10906407116995" fill="#dc322f" stroke="none" /><path d="M 92.40401165467489 119.57807347666478 l -4.888717279963678 12.60029133307907 a34.51543185850467,34.51543185850467 0 0,0 -0.5520479101231008,-0.21967125640840626 l 5.104886266128637 -12.514273232264596" fill="#dc322f" stroke="none" /><line stroke="#e1ed5e" stroke-width="0.3" x1="58.666819895761336" x2="56.23545636021788" y1="174.27360380694188" y2="178.64263932499728" /><path d="M 58.180547188652646 175.14741091055294 a86.0,86.0 0 0,1 -31.652253787137756,-30.449443065178592" fill="none" id="id32" stroke="none" /><text fill="#e1ed5e" style="font-size:6.75px; font-family:Arial;" text-anchor="middle"><textPath startOffset="22.20632615414155" xlink:href="#id32">August</textPath></text><path d="M 84.19399662182784 113.82643327865904 l -8.804836834763861 7.702104454403835 a32.69818638564807,32.69818638564807 0 0,0 -0.36693202596327396,-0.42682484305670504 l 8.936111370297914 -7.549402512185599" fill="#dc322f" stroke="none" /><path d="M 82.6465618267979 111.8261652097733 l -11.813779249799195 8.050952425996224 a35.29626577567165,35.29626577567165 0 0,0 -0.33783046721464377,-0.50501071104618 l 11.950612822424569 -7.8464048007442235" fill="#dc322f" stroke="none" /><line stroke="#e1ed5e" stroke-width="0.3" x1="26.63291911575756" x2="22.317208475507996" y1="142.92168965132927" y2="145.44649492493687" /><path d="M 25.769776987707644 143.4266507060508 a86.0,86.0 0 0,1 -11.730757126820373,-40.83630448921669" fill="none" id="id33" stroke="none" /><text fill="#e1ed5e" style="font-size:6.75px; font-family:Arial;" text-anchor="middle"><textPath startOffset="21.46611528233685" xlink:href="#id33">September</textPath></text><path d="M 79.1416061653843 102.43462659150553 l -13.21128750288432 1.5420435589421064 a34.30097800244562,34.30097800244562 0 0,0 -0.06340404868180884,-0.5870427455727684 l 13.23587385306718 -1.314404491484556" fill="#dc322f" stroke="none" /><line stroke="#e1ed5e" stroke-width="0.3" x1="15.007084014347285" x2="10.007500721073583" y1="101.09737516637583" y2="101.16192664675087" /><path d="M 14.007167355692545 101.11028546245083 a86.0,86.0 0 0,1 10.666146001902534,-42.60595125391555" fill="none" id="id34" stroke="none" /><text fill="#e1ed5e" style="font-size:6.75px; font-family:Arial;" text-anchor="middle"><textPath startOffset="22.20632615414155" xlink:href="#id34">October</textPath></text><path d="M 79.71946130924805 94.55025226153421 l -17.96575052068771 -4.827722269261289 a39.603093669621515,39.603093669621515 0 0,0 0.18257635208185588,-0.6568242797509526 l 17.879987398039493 5.136257852431184" fill="#dc322f" stroke="none" /><path d="M 81.6062741919709 89.86733742301443 l -37.505925473403344 -20.661115177310815 a63.82027704238483,63.82027704238483 0 0,0 0.5383464004123136,-0.9576581760279026 l 37.1447214316986 21.303656863273503" fill="#dc322f" stroke="none" /><line stroke="#e1ed5e" stroke-width="0.3" x1="26.266209847984243" x2="21.928928074336255" y1="57.711370442889674" y2="55.22380399835377" /><path d="M 25.398753493254645 57.213857153982495 a86.0,86.0 0 0,1 29.58750427330803,-30.492523968695096" fill="none" id="id35" stroke="none" /><text fill="#e1ed5e" style="font-size:6.75px; font-family:Arial;" text-anchor="middle"><textPath startOffset="21.46611528233685" xlink:href="#id35">November</textPath></text><path d="M 82.7489923806493 88.02491185347247 l -9.941869281367207 -6.901322149558446 a33.102438275809504,33.102438275809504 0 0,0 0.32895529151821484,-0.46528393111532024 l 9.821601370045116 7.071432581005553" fill="#dc322f" stroke="none" /><path d="M 84.5562425177563 85.77008943001954 l -10.27210717005515 -9.464741113890105 a34.967731027839136,34.967731027839136 0 0,0 0.4116745612680691,-0.4391457187820721 l 10.107665286816626 9.640156249550227" fill="#dc322f" stroke="none" /><line stroke="#e1ed5e" stroke-width="0.3" x1="56.762969772571076" x2="54.21961505331055" y1="26.818313649435495" y2="22.513508569990535" /><path d="M 56.25429882871897 25.957352633546506 a86.0,86.0 0 0,1 42.265352541879196,-11.944610805530505" fill="none" id="id36" stroke="none" /><text fill="#e1ed5e" style="font-size:6.75px; font-family:Arial;" text-anchor="middle"><textPath startOffset="22.20632615414155" xlink:href="#id36">December</textPath></text><path d="M 92.57280143429618 80.3572730644239 l -6.6447523871742575 -17.573389958696094 a39.78767598526382,39.78767598526382 0 0,0 0.6426991862207516,-0.23671153424665353 l 6.341270875180936 17.68516476074907" fill="#dc322f" stroke="none" /><path d="M 98.55514903715128 79.0497635885617 l -1.1197147410555999 -16.235784272334993 a37.27434951201238,37.27434951201238 0 0,0 0.6404761861309688,-0.038635272612013355 l 0.8400765060850081 16.252652814327313" fill="#dc322f" stroke="none" /><path d="M 98.91598698831166 79.02799685794201 l -1.4052223669601929 -27.186323021418016 a48.22261576934679,48.22261576934679 0 0,0 0.8293352272031781,-0.03571291943636532 l 0.9370463073676906 27.206483667378574" fill="#dc322f" stroke="none" /><path d="M 99.27714615592234 79.0124445844662 l -0.5956526950210382 -17.294359084604913 a38.30461378593415,38.30461378593415 0 0,0 0.6591555795896975,-0.01702404392241713 l 0.2978704802364617 17.30204992066969" fill="#dc322f" stroke="none" /></svg>