<?xml version="1.0" encoding="utf-8" ?>
<svg baseProfile="full" height="200mm" version="1.1" viewBox="0,0,200,200" width="200mm" xmlns="http://www.w3.org/2000/svg" xmlns:ev="http://www.w3.org/2001/xml-events" xmlns:xlink="http://www.w3.org/1999/xlink"><defs /><rect fill="#FFF8F0" height="200" width="200" x="0" y="0" /><text alignment-baseline="middle" fill="#2D2D2D" style="dominant-baseline: central; font-size:9.0px; font-family:Arial;" text-anchor="middle" x="100.0" y="100.0">2024</text><line stroke="#2D2D2D" stroke-width="0.3" x1="100.0" x2="100.0" y1="15.0" y2="10.0" /><path d="M 100.0 14.0 a86.0,86.0 0 0,1 42.35913384403234,11.155469271406648" fill="none" id="id61" stroke="none" /><text fill="#2D2D2D" style="font-size:6.75px; font-family:Arial;" text-anchor="middle"><textPath startOffset="22.145653131862478" xlink:href="#id61">January</textPath></text><path d="M 107.06938296918511 80.22567764915836 l 10.988778866034085 -30.73757023579693 a53.64278610914128,53.64278610914128 0 0,0 0.8644428930871827,0.31743540412331966 l -11.514810910775394 30.54440398266489" fill="#ff9933" stroke="none" /><path d="M 108.73861861582097 80.90454125486305 l 4.696018603944291 -10.261648146042747 a32.28512354393045,32.28512354393045 0 0,0 0.5019741529117183,0.23494924972354012 l -4.871481470727514 10.179522664748674" fill="#ff9933" stroke="none" /><line stroke="#2D2D2D" stroke-width="0.3" x1="143.13028292997686" x2="145.6673583964461" y1="26.7553504044142" y2="22.446841604673864" /><path d="M 143.63769802327073 25.89364864446614 a86.0,86.0 0 0,1 29.32050498858742,28.57503671076993" fill="none" id="id62" stroke="none" /><text fill="#2D2D2D" style="font-size:6.75px; font-family:Arial;" text-anchor="middle"><textPath startOffset="20.669276256404974" xlink:href="#id62">February</textPath></text><path d="M 110.96478420261332 82.08984904055464 l 16.482477033631838 -26.922887528199517 a52.56760874726311,52.56760874726311 0 0,0 0.7655743056505114,0.4777749883567516 l -16.942215468072064 26.635976743001223" fill="#ff9933" stroke="none" /><path d="M 111.5731344415666 82.4767994020092 l 9.969493820095204 -15.095084305121908 a39.09011821983633,39.09011821983633 0 0,0 0.5567618789657189,0.3746142396613247 l -10.227151987157924 14.921720391403465" fill="#ff9933" stroke="none" /><path d="M 113.31354834802062 83.75963576809568 l 15.15118392105687 -18.481980835643927 a44.89857715050839,44.89857715050839 0 0,0 0.5918608816606246,0.4937513977429911 l -15.466219136879387 18.219167253989067" fill="#ff9933" stroke="none" /><path d="M 114.39649973595853 84.71141617570332 l 8.994032349173304 -9.551350676256366 a34.119486180441626,34.119486180441626 0 0,0 0.4229638581384384,0.40518980826707307 l -9.156668693177055 9.395548737683713" fill="#ff9933" stroke="none" /><path d="M 115.41159269507618 85.73525988315684 l 23.11208686038141 -21.392202554546984 a52.49277519013816,52.49277519013816 0 0,0 0.6064222833484747,0.6665643189480162 l -23.475906844571764 20.992300660041295" fill="#ff9933" stroke="none" /><path d="M 116.7966241395341 87.39550010848427 l 4.27839710328234 -3.210588947886005 a26.34907124327789,26.34907124327789 0 0,0 0.2683815773704302,0.3641111538773411 l -4.332880700236595 3.1366714847397885" fill="#ff9933" stroke="none" /><path d="M 117.21940702142032 87.97951657250589 l 8.615349149862562 -6.014182808337865 a31.506885162889347,31.506885162889347 0 0,0 0.3057822170084671,0.44614539302762585 l -8.717321103686354 5.865402680240191" fill="#ff9933" stroke="none" /><path d="M 117.42321728460499 88.27688183743584 l 8.718648437979128 -5.866295769989416 a31.508484983387074,31.508484983387074 0 0,0 0.2980936158491599,0.45135172790735434 l -8.818066492749013 5.715764163743003" fill="#ff9933" stroke="none" /><path d="M 117.62189284568427 88.57770195909679 l 22.17569992127899 -14.374020769767482 a47.42676938424975,47.42676938424975 0 0,0 0.4369638485329149,0.686979747659857 l -22.419181461437795 13.991227347428953" fill="#ff9933" stroke="none" /><path d="M 117.81537515405839 88.88188828441811 l 14.58325719605262 -9.101031063375677 a38.1901180002567,38.1901180002567 0 0,0 0.34231445947031897,0.5591449436144038 l -14.737339619978341 8.849349003636718" fill="#ff9933" stroke="none" /><line stroke="#2D2D2D" stroke-width="0.3" x1="172.87174338648825" x2="177.1583165268699" y1="56.24261187166439" y2="53.66864786411523" /><path d="M 173.72905801456457 55.72781907015455 a86.0,86.0 0 0,1 12.242430191666344,42.057860355516425" fill="none" id="id63" stroke="none" /><text fill="#2D2D2D" style="font-size:6.75px; font-family:Arial;" text-anchor="middle"><textPath startOffset="22.145653131862474" xlink:href="#id63">March</textPath></text><path d="M 118.00360718960297 89.18935116829356 l 14.192706070777387 -8.522312205934442 a37.554839502299636,37.554839502299636 0 0,0 0.32713178365846257,0.5555412864910656 l -14.336911564565616 8.27741975114982" fill="#ff9933" stroke="none" /><path d="M 118.18653347947321 89.5 l 9.568024298704396 -5.524101404469865 a32.04820280893973,32.04820280893973 0 0,0 0.27098531094742445,0.47880507913310794 l -9.661442974673196 5.359039555237639" fill="#ff9933" stroke="none" /><path d="M 118.36410011445183 89.81374322990088 l 9.21776837499168 -5.112940733811029 a31.54084516357492,31.54084516357492 0 0,0 0.25856681771294737,0.47573382160420435 l -9.304180542319969 4.953952078732222" fill="#ff9933" stroke="none" /><path d="M 118.53625476483649 90.13048839642627 l 9.625932523636806 -5.125266886031017 a31.90536279096917,31.90536279096917 0 0,0 0.2532555492229335,0.48565090863082133 l -9.712496141834682 4.959269734295698" fill="#ff9933" stroke="none" /><path d="M 118.70294669586156 90.45014215332178 l 5.728310364257574 -2.9249160878172207 a27.431848392960823,27.431848392960823 0 0,0 0.21054608117809043,0.42123320158454675 l -5.777676358647401 2.826151030068923" fill="#ff9933" stroke="none" /><path d="M 119.0197475246899 91.09779779509293 l 17.190157715214575 -8.04586179266744 a39.979921344954434,39.979921344954434 0 0,0 0.28560044264839485,0.6240885098603041 l -17.32574262271802 7.749584300592452" fill="#ff9933" stroke="none" /><path d="M 119.16976305983485 91.42560881287824 l 9.606294340198566 -4.296773271239684 a31.523457202600806,31.523457202600806 0 0,0 0.2167104353211264,0.4958758859912735 l -9.678638657536663 4.131235315472561" fill="#ff9933" stroke="none" /><path d="M 119.71291397450082 92.76114493625339 l 10.063813165728464 -3.6955715927927906 a31.720894777589535,31.720894777589535 0 0,0 0.18331630458391596,0.51276832996718 l -10.125769640356323 3.5222683064446936" fill="#ff9933" stroke="none" /><path d="M 119.83427380445688 93.10060997987247 l 16.670785741425593 -5.798964656131281 a38.65058322887883,38.65058322887883 0 0,0 0.2126050394126742,0.6285290215837701 l -16.76787620241063 5.51193396007335" fill="#ff9933" stroke="none" /><path d="M 119.94978838288452 93.4421083053983 l 10.364450502615412 -3.4070007443549803 a31.910063624617422,31.910063624617422 0 0,0 0.166593756907178,0.5218525707415087 l -10.421408975299846 3.2285791399220845" fill="#ff9933" stroke="none" /><path d="M 120.05942366710727 93.78553927170692 l 8.844036220137356 -2.7399050282669943 a30.258728650685484,30.258728650685484 0 0,0 0.14945460417432258,0.4974857698206526 l -8.889767144315307 2.587681654855618" fill="#ff9933" stroke="none" /><path d="M 120.16314734710363 94.1308016681162 l 10.403945939421076 -3.028437034232697 a31.83575202654197,31.83575202654197 0 0,0 0.14823561138547403,0.5260358899904122 l -10.454400042881133 2.849393220339272" fill="#ff9933" stroke="none" /><path d="M 120.26092885502905 94.47779374421319 l 25.569278635231004 -6.969020593563811 a47.501985924824524,47.501985924824524 0 0,0 0.20767533288402543,0.7885770654477499 l -25.68514344891976 6.529063023743263" fill="#ff9933" stroke="none" /><path d="M 120.43855184770803 95.1765574152323 l 10.472453763426051 -2.4714705731553366 a31.760132648860292,31.760132648860292 0 0,0 0.120672077184133,0.5317034375657832 l -10.51333670216785 2.2913328016505274" fill="#ff9933" stroke="none" /><path d="M 120.51834098615036 95.52812308129327 l 10.579945426658064 -2.305849863133877 a31.82830498380875,31.82830498380875 0 0,0 0.11176628905172724,0.5348421529646133 l -10.617969426534158 2.1238912588838597" fill="#ff9933" stroke="none" /><path d="M 120.592083275326 95.88100663000786 l 10.885660811476498 -2.177437033006806 a32.10129917330511,32.10129917330511 0 0,0 0.10344828274368037,0.5412851283983581 l -10.921435386502337 1.9902493395751335" fill="#ff9933" stroke="none" /><path d="M 120.7213421655516 96.59031103205396 l 10.16363253422243 -1.6724218657905254 a31.300311703433003,31.300311703433003 0 0,0 0.08269021851969799,0.5309305208567837 l -10.190844244880392 1.4977031630023006" fill="#ff9933" stroke="none" /><path d="M 120.77682067341334 96.94652285012252 l 16.838244389099657 -2.474642068406599 a38.01911653035415,38.01911653035415 0 0,0 0.0893548512618733,0.6465271916615647 l -16.878243756916742 2.185226568544948" fill="#ff9933" stroke="none" /><path d="M 120.82617615685814 97.30363454192243 l 11.554832265524537 -1.4960043725732517 a32.651273654290556,32.651273654290556 0 0,0 0.06719618706205933,0.5564808236845034 l -11.57881053884626 1.2974298719653354" fill="#ff9933" stroke="none" /><path d="M 120.86939407059847 97.66154086499901 l 10.870540332513631 -1.2180667180354872 a31.938570914447247,31.938570914447247 0 0,0 0.056375543397771725,0.5453822426031754 l -10.889848268393068 1.0312799531493804" fill="#ff9933" stroke="none" /><path d="M 120.93736805541906 98.37931529534042 l 17.746186531266687 -1.3736670722476854 a38.79927239040654,38.79927239040654 0 0,0 0.04570191945791788,0.6644958787255667 l -17.767152411889672 1.0688277693677846" fill="#ff9933" stroke="none" /><line stroke="#2D2D2D" stroke-width="0.3" x1="184.99686870605535" x2="189.99668451229388" y1="99.2704041080226" y2="99.22748670261217" /><path d="M 185.99683186730306 99.26182062694052 a86.0,86.0 0 0,1 -10.086455211305974,41.156179273409016" fill="none" id="id64" stroke="none" /><text fill="#2D2D2D" style="font-size:6.75px; font-family:Arial;" text-anchor="middle"><textPath startOffset="21.40746469413373" xlink:href="#id64">April</textPath></text><line stroke="#2D2D2D" stroke-width="0.3" x1="174.33088141563837" x2="178.70328620479359" y1="141.23008692659167" y2="143.65538615756765" /><path d="M 175.20536237346943 141.71514677278685 a86.0,86.0 0 0,1 -30.301960400862466,31.631185727798858" fill="none" id="id65" stroke="none" /><text fill="#2D2D2D" style="font-size:6.75px; font-family:Arial;" text-anchor="middle"><textPath startOffset="22.145653131862474" xlink:href="#id65">May</textPath></text><path d="M 116.57777611688842 112.89097897827486 l 12.508148881473105 9.726412225095636 a36.84477463435775,36.84477463435775 0 0,0 -0.3925434733881957,0.49596585524243414 l -12.339338977443347 -9.939698024252753" fill="#ff9933" stroke="none" /><path d="M 116.35404254752997 113.17365903436017 l 18.964899715552274 15.27678075603722 a45.35256560383287,45.35256560383287 0 0,0 -0.493593958306896,0.6021043718794294 l -18.699858938006752 -15.600087409615144" fill="#ff9933" stroke="none" /><path d="M 116.1254893667686 113.45245675266167 l 17.308999259165674 14.439782797887263 a43.54126843378515,43.54126843378515 0 0,0 -0.4837340303522924,0.5698374714230822 l -17.058570665306267 -14.734787051759902" fill="#ff9933" stroke="none" /><path d="M 115.41159269507618 114.26474011684316 l 11.608030290611966 10.744219539160648 a36.81722544359302,36.81722544359302 0 0,0 -0.4332934517333787,0.46014263041998743 l -11.421881005142327 -10.941903629525132" fill="#ff9933" stroke="none" /><path d="M 114.91283532996324 114.78537596483092 l 15.362089375297764 15.23079025507296 a42.63263187336811,42.63263187336811 0 0,0 -0.51972848693843,0.5152863898106439 l -15.09836896822937 -15.492256655112268" fill="#ff9933" stroke="none" /><path d="M 113.03279911837588 116.46651593811092 l 3.4095251887172884 4.307823695543949 a26.493833543563873,26.493833543563873 0 0,0 -0.35904197880894406,0.27919321436783046 l -3.3350732652731137 -4.365717961532573" fill="#ff9933" stroke="none" /><path d="M 112.7482090630111 116.68781488649013 l 16.1226262614494 21.105035319493147 a47.558644419537515,47.558644419537515 0 0,0 -0.6530187128490145,0.4900374162621123 l -15.757954559689622 -21.378691763019276" fill="#ff9933" stroke="none" /><path d="M 111.8722381534696 117.32195027204791 l 18.76345950537466 27.37644817112259 a54.18941588934635,54.18941588934635 0 0,0 -0.7718216875408914,0.5193160766850081 l -18.290741529736763 -27.69451392186472" fill="#ff9933" stroke="none" /><line stroke="#2D2D2D" stroke-width="0.3" x1="143.1302829299769" x2="145.66735839644613" y1="173.24464959558577" y2="177.55315839532614" /><path d="M 143.63769802327073 174.10635135553383 a86.0,86.0 0 0,1 -40.68552437913181,11.842963189579606" fill="none" id="id66" stroke="none" /><text fill="#2D2D2D" style="font-size:6.75px; font-family:Arial;" text-anchor="middle"><textPath startOffset="21.407464694133747" xlink:href="#id66">June</textPath></text><path d="M 109.3889696526874 118.78422872680471 l 7.061236381189331 14.127202897107013 a36.79363545631786,36.79363545631786 0 0,0 -0.567392463567441,0.27754008632976884 l -6.8176836683598205 -14.246336733534006" fill="#ff9933" stroke="none" /><path d="M 108.73861861582097 119.09545874513695 l 15.961370805004982 34.87847577773846 a59.35718225512862,59.35718225512862 0 0,0 -0.9301739583056495,0.4160549802150156 l -15.360283443843706 -35.147334508863324" fill="#ff9933" stroke="none" /><path d="M 108.07796709384702 119.3841803445677 l 14.370718463473901 34.4844928359722 a58.35903900411047,58.35903900411047 0 0,0 -0.9280352726017023,0.3774238662163994 l -13.776628729681757 -34.72610395876789" fill="#ff9933" stroke="none" /><path d="M 107.74402155503746 119.51999308798841 l 7.816147467729325 19.70179750410526 a42.195588836596635,42.195588836596635 0 0,0 -0.6755870174896274,0.26133157162709547 l -7.476788187746168 -19.8330689638704" fill="#ff9933" stroke="none" /><path d="M 107.06938296918513 119.77432235084164 l 10.661036470533707 29.820816425045496 a52.66920887679882,52.66920887679882 0 0,0 -0.8539791244526237,0.29705826927335055 l -10.147551574036063 -29.99943312688744" fill="#ff9933" stroke="none" /><path d="M 105.69591212413111 120.21278271476187 l 7.3085010227839025 25.93529182416606 a47.9453808509861,47.9453808509861 0 0,0 -0.7941092952020229,0.21643801965449505 l -6.862210326647184 -26.056930337964697" fill="#ff9933" stroke="none" /><line stroke="#2D2D2D" stroke-width="0.3" x1="101.45913802915013" x2="101.54496967792366" y1="184.9874750549273" y2="189.98673829345242" /><path d="M 101.47630435890484 185.9873277026323 a86.0,86.0 0 0,1 -42.54439059252881,-10.42667462771756" fill="none" id="id67" stroke="none" /><text fill="#2D2D2D" style="font-size:6.75px; font-family:Arial;" text-anchor="middle"><textPath startOffset="22.145653131862474" xlink:href="#id67">July</textPath></text><path d="M 92.59220618246901 119.65005319985036 l -12.319707526958547 32.67948788456135 a55.924548987023314,55.924548987023314 0 0,0 -0.8953992655703189,-0.3463596712896134 l 12.878879055022393 -32.46318832513369" fill="#ff9933" stroke="none" /><path d="M 92.25597844496254 119.51999308798841 l -5.819422150012105 14.66874534594105 a36.78093039665655,36.78093039665655 0 0,0 -0.5848965532965887,-0.23787233632076485 l 6.070373164499134 -14.566685753040993" fill="#ff9933" stroke="none" /><path d="M 91.59046798132341 119.24265499422711 l -9.763536386008836 22.34088196374061 a45.38117408326984,45.38117408326984 0 0,0 -0.711158864451396,-0.3180923144935344 l 10.145608653315866 -22.16998589833722" fill="#ff9933" stroke="none" /><line stroke="#2D2D2D" stroke-width="0.3" x1="58.13341422392154" x2="55.67067388415222" y1="173.97424548756322" y2="178.32567169271397" /><path d="M 57.64086615596768 174.84453072859336 a86.0,86.0 0 0,1 -31.369924170532247,-30.572349798747897" fill="none" id="id68" stroke="none" /><text fill="#2D2D2D" style="font-size:6.75px; font-family:Arial;" text-anchor="middle"><textPath startOffset="22.145653131862474" xlink:href="#id68">August</textPath></text><path d="M 89.65649057296885 118.27599006163327 l -7.784268951986694 13.754057363915697 a36.80407976083225,36.80407976083225 0 0,0 -0.5471671864189737,-0.315907122370727 l 8.019228606266067 -13.618403344268797" fill="#ff9933" stroke="none" /><path d="M 89.03521579738668 117.91015095944536 l -8.331744664166935 13.609278753996612 a36.957143771767484,36.957143771767484 0 0,0 -0.5382295363277313,-0.3358950379528933 l 8.56413832928438 -13.46424791920217" fill="#ff9933" stroke="none" /><path d="M 85.34317274990678 115.03919595460226 l -5.566513735646472 5.711733475868044 a28.975586152032495,28.975586152032495 0 0,0 -0.35323734161384224,-0.3502182371774993 l 5.663742997390277 -5.615335228461886" fill="#ff9933" stroke="none" /><path d="M 85.08716467003676 114.78537596483092 l -11.233852832498526 11.137837573271241 a36.81931968419653,36.81931968419653 0 0,0 -0.4411536573900789,-0.45266251599824897 l 11.423393291039414 -10.943352365205255" fill="#ff9933" stroke="none" /><path d="M 83.8745106332314 113.45245675266167 l -16.172789593728986 13.4919162842829 a42.06159842616715,42.06159842616715 0 0,0 -0.457776767057521,-0.558413222349027 l 16.402013180025136 -13.212300780235378" fill="#ff9933" stroke="none" /><line stroke="#2D2D2D" stroke-width="0.3" x1="26.387840678322732" x2="22.057713659400548" y1="142.50000000000003" y2="145.00000000000006" /><path d="M 25.521815274538298 143.00000000000003 a86.0,86.0 0 0,1 -11.493303480769221,-40.785679425670985" fill="none" id="id69" stroke="none" /><text fill="#2D2D2D" style="font-size:6.75px; font-family:Arial;" text-anchor="middle"><textPath startOffset="21.40746469413373" xlink:href="#id69">September</textPath></text><path d="M 81.63589988554817 110.18625677009913 l -13.866033533968876 7.691255061752758 a36.856301283404235,36.856301283404235 0 0,0 -0.3021420791388826,-0.5559073946439366 l 13.996020962723087 -7.452092833634235" fill="#ff9933" stroke="none" /><path d="M 79.56144815229197 104.8234425847677 l -21.01045065827327 4.958409146861373 a42.587608902595356,42.587608902595356 0 0,0 -0.16181088679319713,-0.7129686233231043 l 21.092472406624136 -4.597006189599243" fill="#ff9933" stroke="none" /><path d="M 79.48165901384964 104.47187691870673 l -15.453304177897927 3.367975720724266 a36.816063684432535,36.816063684432535 0 0,0 -0.12928099116790245,-0.6186563429840443 l 15.508842879890196 -3.1022029264548125" fill="#ff9933" stroke="none" /><path d="M 79.34024301695615 103.76489593502545 l -20.765157466485807 3.7841034141834156 a42.10713631114334,42.10713631114334 0 0,0 -0.12348455593338714,-0.7122261038800195 l 20.827056839911428 -3.4270842773828036" fill="#ff9933" stroke="none" /><path d="M 79.0935383218832 101.97986365728391 l -20.9236251192592 1.9814890530048608 a42.017240232686895,42.017240232686895 0 0,0 -0.061838127611004115,-0.7186527780448416 l 20.954556869567945 -1.6220152275843571" fill="#ff9933" stroke="none" /><path d="M 79.03789590574601 101.26102812881392 l -31.508920011507133 1.8954983843415705 a52.56588275997673,52.56588275997673 0 0,0 -0.04645424918272938,-0.9012000237925452 l 31.536815850146436 -1.3543265671722946" fill="#ff9933" stroke="none" /><path d="M 79.01933749520258 100.90099992219065 l -32.170774916534555 1.381551497240978 a53.20042613491098,53.20042613491098 0 0,0 -0.03135104406288496,-0.912751440901319 l 32.18975064759429 -0.8290937917755391" fill="#ff9933" stroke="none" /><path d="M 79.00696218219943 100.54070618675478 l -26.271194116363528 0.6766527700964002 a47.27990675917502,47.27990675917502 0 0,0 -0.013933092237516523,-0.8115327716209658 l 26.278938640199712 -0.22557308250638206" fill="#ff9933" stroke="none" /><line stroke="#2D2D2D" stroke-width="0.3" x1="15.003131293944662" x2="10.003315487706104" y1="100.72959589197737" y2="100.7725132973878" /><path d="M 14.003168132696942 100.73817937305945 a86.0,86.0 0 0,1 10.791469493833604,-42.45332614584628" fill="none" id="id70" stroke="none" /><text fill="#2D2D2D" style="font-size:6.75px; font-family:Arial;" text-anchor="middle"><textPath startOffset="22.145653131862435" xlink:href="#id70">October</textPath></text><path d="M 79.00077361379809 100.18025310272382 l -26.515754584782382 0.22760586257172521 a47.516731428083006,47.516731428083006 0 0,0 0.0,-0.8157179305910758 l 26.515754584782382 0.22760586257171547" fill="#ff9933" stroke="none" /><path d="M 79.00077361379809 99.81974689727619 l -6.146203870382094 -0.052757768178424015 a27.14643029720528,27.14643029720528 0 0,0 0.007999882892680941,-0.4659530724313713 l 6.1443925558907475 0.15825775657884772" fill="#ff9933" stroke="none" /><path d="M 79.00696218219943 99.45929381324524 l -16.427398339590376 -0.42311150923425583 a37.43284636199168,37.43284636199168 0 0,0 0.02205919953945021,-0.6422295258932704 l 16.417714453054074 0.7050472996916648" fill="#ff9933" stroke="none" /><path d="M 79.01933749520258 99.09900007780938 l -62.941987514392274 -2.7029997665718684 a84.0,84.0 0 0,0 0.07423364217371864,-1.440112826493152 l 62.886312282761985 3.7830843864417325" fill="#ff9933" stroke="none" /><path d="M 79.03789590574601 98.7389718711861 l -21.041323844654503 -1.2657937922780114 a42.07936296618557,42.07936296618557 0 0,0 0.04956555983242592,-0.7206723618183624 l 21.016494323657014 1.6268095782506986" fill="#ff9933" stroke="none" /><path d="M 79.06263194458094 98.37931529534042 l -20.993724327648604 -1.6250470365521283 a42.05652485611792,42.05652485611792 0 0,0 0.06189594405832975,-0.7193246928018613 l 20.96273476089253 1.9851927767296702" fill="#ff9933" stroke="none" /><path d="M 79.0935383218832 98.0201363427161 l -21.364912454884536 -2.023279422493285 a42.46050194721375,42.46050194721375 0 0,0 0.07494805815289866,-0.7250544752318299 l 21.327032004249975 2.3897384200080274" fill="#ff9933" stroke="none" /><path d="M 79.22317932658666 96.9465228501225 l -39.66031359104516 -5.828700319977141 a61.0863345987151,61.0863345987151 0 0,0 0.16137993782282076,-1.0361749669786702 l 39.55441216108407 6.508663468887261" fill="#ff9933" stroke="none" /><path d="M 80.16572619554312 93.10060997987247 l -14.906360835685781 -5.1852060831710585 a36.782457206931404,36.782457206931404 0 0,0 0.21256727390472047,-0.5945884971508504 l 14.815153391737116 5.44032953670283" fill="#ff9933" stroke="none" /><path d="M 80.41425534168474 92.42381321644754 l -36.14108759036052 -13.980149078940043 a59.750777804884116,59.750777804884116 0 0,0 0.3782546463421695,-0.9534488030054239 l 35.89577426905222 14.598498899159049" fill="#ff9933" stroke="none" /><path d="M 80.83023694016515 91.42560881287825 l -6.3668937393728005 -2.847830586002509 a27.974774185236104,27.974774185236104 0 0,0 0.19984051047416274,-0.43668758085604686 l 6.317068764043591 2.956707149073227" fill="#ff9933" stroke="none" /><path d="M 80.9802524753101 91.09779779509293 l -28.54725882046356 -13.361558563576514 a52.51947387585046,52.51947387585046 0 0,0 0.38919616648167776,-0.8132703001212299 l 28.31368339602198 13.84964136576283" fill="#ff9933" stroke="none" /><path d="M 81.1358732173502 90.77261029715801 l -7.4555971991648855 -3.646906194851602 a29.299750260715214,29.299750260715214 0 0,0 0.22488268047125262,-0.44991600387799635 l 7.391894605481888 3.7743540548933687" fill="#ff9933" stroke="none" /><path d="M 81.46374523516351 90.13048839642627 l -46.724972113879915 -24.878415856120462 a73.93541909301297,73.93541909301297 0 0,0 0.6061107726190561,-1.1151755539400086 l 46.29101599164551 25.676846243535092" fill="#ff9933" stroke="none" /><line stroke="#2D2D2D" stroke-width="0.3" x1="26.387840678322718" x2="22.05771365940052" y1="57.49999999999999" y2="54.99999999999999" /><path d="M 25.521815274538284 56.99999999999999 a86.0,86.0 0 0,1 29.574782752854787,-30.34633250058573" fill="none" id="id71" stroke="none" /><text fill="#2D2D2D" style="font-size:6.75px; font-family:Arial;" text-anchor="middle"><textPath startOffset="21.40746469413373" xlink:href="#id71">November</textPath></text><path d="M 82.18462484594161 88.88188828441811 l -28.121542297247192 -17.549922253757945 a54.14846772158272,54.14846772158272 0 0,0 0.4988938347472768,-0.784343972286133 l 27.816130770874025 18.03007990072275" fill="#ff9933" stroke="none" /><path d="M 82.37810715431573 88.57770195909679 l -26.612299747372592 -17.249771175562923 a52.71386295381389,52.71386295381389 0 0,0 0.4987122047145129,-0.7551138412849694 l 26.31226310373735 17.704064895186953" fill="#ff9933" stroke="none" /><path d="M 82.78059297857968 87.97951657250589 l -34.28987433788906 -23.936995373691634 a62.81835995861575,62.81835995861575 0 0,0 0.6248479490697231,-0.8789268922190525 l 33.873911290289364 24.522099492620207" fill="#ff9933" stroke="none" /><path d="M 83.42222388311158 87.10902102172516 l -26.977492884432863 -20.977861638841933 a55.1739052680261,55.1739052680261 0 0,0 0.587821655288563,-0.7426934588386471 l 26.61340479850274 21.437875041595262" fill="#ff9933" stroke="none" /><path d="M 85.34317274990677 84.96080404539775 l -17.22562724066353 -17.675011043855037 a45.680523682342866,45.680523682342866 0 0,0 0.5662808178378853,-0.5424842136983579 l 16.919673936960347 17.96810738785896" fill="#ff9933" stroke="none" /><path d="M 87.25179093698888 83.31218511350988 l -31.892544306750974 -41.748364261962855 a73.5362760472001,73.5362760472001 0 0,0 1.009712638325904,-0.7577071877369576 l 31.17117867951432 42.28969047696381" fill="#ff9933" stroke="none" /><path d="M 88.4268655584334 82.4767994020092 l -28.945870585234925 -43.827737361002484 a73.52365168304829,73.52365168304829 0 0,0 1.0591410001453334,-0.6865224001156695 l 28.189243952832566 44.31817360282206" fill="#ff9933" stroke="none" /><path d="M 89.03521579738668 82.08984904055464 l -27.447564978259525 -44.833534627398244 a73.56819048076409,73.56819048076409 0 0,0 1.0827389446165412,-0.6501536266255319 l 26.67389327708555 45.2981022545597" fill="#ff9933" stroke="none" /><line stroke="#2D2D2D" stroke-width="0.3" x1="56.869717070023135" x2="54.33264160355391" y1="26.7553504044142" y2="22.446841604673864" /><path d="M 56.362301976729285 25.89364864446614 a86.0,86.0 0 0,1 42.16139366436587,-11.88097634709845" fill="none" id="id72" stroke="none" /><text fill="#2D2D2D" style="font-size:6.75px; font-family:Arial;" text-anchor="middle"><textPath startOffset="22.145653131862474" xlink:href="#id72">December</textPath></text><path d="M 93.27111125876988 80.10723608172694 l -10.378895335428538 -30.683359850351884 a53.39120312816377,53.39120312816377 0 0,0 0.8707272895726583,-0.2862253549240861 l 9.850645308208119 30.857006126677998" fill="#ff9933" stroke="none" /><path d="M 97.84075906011542 79.11130261209362 l -5.483900744463157 -53.05176510895943 a74.33444429776435,74.33444429776435 0 0,0 1.2704125959047554,-0.12030939367517705 l 4.572388585173386 53.138086258139786" fill="#ff9933" stroke="none" /><path d="M 98.5590905019552 79.04949213459386 l -2.890725087089199 -42.03050833932787 a63.12979851353951,63.12979851353951 0 0,0 1.0817911687540724,-0.06507787038779517 l 2.168789566202643 42.07393818754036" fill="#ff9933" stroke="none" /></svg>