<?xml version="1.0" encoding="utf-8" ?>
<svg baseProfile="full" height="200mm" version="1.1" viewBox="0,0,200,200" width="200mm" xmlns="http://www.w3.org/2000/svg" xmlns:ev="http://www.w3.org/2001/xml-events" xmlns:xlink="http://www.w3.org/1999/xlink"><defs /><rect fill="#FFF8F0" height="200" width="200" x="0" y="0" /><text alignment-baseline="middle" fill="#2D2D2D" style="dominant-baseline: central; font-size:9.0px; font-family:Arial;" text-anchor="middle" x="100.0" y="100.0">2025</text><line stroke="#2D2D2D" stroke-width="0.3" x1="100.0" x2="100.0" y1="15.0" y2="10.0" /><path d="M 100.0 14.0 a86.0,86.0 0 0,1 42.46469731375804,11.215312516191453" fill="none" id="id73" stroke="none" /><text fill="#2D2D2D" style="font-size:6.75px; font-family:Arial;" text-anchor="middle"><textPath startOffset="22.20632615414155" xlink:href="#id73">January</textPath></text><path d="M 100.36148047927253 79.00311137660856 l 0.40545412980710127 -23.55113399923167 a44.554623870933355,44.554623870933355 0 0,0 0.7667073498031548,0.019801788838400277 l -0.8107881148051239 23.540665418250907" fill="#ff9933" stroke="none" /><path d="M 101.08401301168833 79.027996857942 l 1.757597589790318 -34.00359753813918 a55.048991098465486,55.048991098465486 0 0,0 0.9458935791150823,0.05705888381553984 l -2.342653217745012 33.96830538494334" fill="#ff9933" stroke="none" /><path d="M 107.4271985657038 80.35727306442388 l 6.160385855035358 -16.292384820167857 a38.41815595898015,38.41815595898015 0 0,0 0.6165507298973654,0.23921210450988195 l -6.439919749932391 16.18393001176743" fill="#ff9933" stroke="none" /><path d="M 108.09893153111575 80.62456947434976 l 24.296794593347244 -58.12629157695072 a84.0,84.0 0 0,0 1.329264968838739,0.5691218881488367 l -25.2937433199763 57.69945016083909" fill="#ff9933" stroke="none" /><path d="M 109.41281617654863 81.2277094730956 l 3.995064459377116 -7.967489144426942 a29.912991826605662,29.912991826605662 0 0,0 0.4582948288120784,0.234756411585271 l -4.13161977577795 7.897540207529171" fill="#ff9933" stroke="none" /><path d="M 109.73455568895987 81.39251694778311 l 5.483817014023863 -10.482248539153474 a32.83003734059545,32.83003734059545 0 0,0 0.49847714422425576,0.2662692270878659 l -5.66343920477643 10.386300585563854" fill="#ff9933" stroke="none" /><path d="M 110.36928655335952 81.73862282372117 l 9.3352369197094 -16.440309711134866 a39.90583062827817,39.90583062827817 0 0,0 0.594413057819552,0.3443224097971825 l -9.61684670999428 16.277183143947635" fill="#ff9933" stroke="none" /><line stroke="#2D2D2D" stroke-width="0.3" x1="143.23703022742887" x2="145.7803849466894" y1="26.81831364943548" y2="22.513508569990506" /><path d="M 143.74570117128098 25.957352633546492 a86.0,86.0 0 0,1 28.547481713284135,27.462654790039103" fill="none" id="id74" stroke="none" /><text fill="#2D2D2D" style="font-size:6.75px; font-family:Arial;" text-anchor="middle"><textPath startOffset="19.985693538727396" xlink:href="#id74">February</textPath></text><path d="M 110.68208982089419 81.91981866633111 l 7.938183123011195 -13.435928056247896 a36.60573337037158,36.60573337037158 0 0,0 0.5397392212090444,0.32518684159508354 l -8.168284410437877 13.297294605194198" fill="#ff9933" stroke="none" /><path d="M 110.99172775467656 82.1063720568725 l 12.916378701326046 -21.026801246576685 a45.67709888579101,45.67709888579101 0 0,0 0.6664089654192666,0.4173052330090688 l -13.276406819117575 20.801351672244675" fill="#ff9933" stroke="none" /><path d="M 112.48926042617603 83.11751280151076 l 31.57458491450945 -42.681272343364 a74.09091656179969,74.09091656179969 0 0,0 1.0187636727993516,0.7673116771665665 l -32.304594741067184 42.13144407669159" fill="#ff9933" stroke="none" /><path d="M 113.34407831869373 83.78471172551755 l 12.166450814799562 -14.784273782544698 a40.146730183145515,40.146730183145515 0 0,0 0.5298268421902235,0.44371474333003297 l -12.419135193948904 14.572657881820845" fill="#ff9933" stroke="none" /><path d="M 113.6212207817346 84.01681056812373 l 12.053101584476309 -14.143152728620555 a39.582411762491766,39.582411762491766 0 0,0 0.5147715293739888,0.446404797630239 l -12.294766912497062 13.933582937570645" fill="#ff9933" stroke="none" /><path d="M 113.89432698308785 84.25364557470407 l 12.066932337587131 -13.675379429676006 a39.23806071339581,39.23806071339581 0 0,0 0.50260034285452,0.4512395502978846 l -12.300543668037642 13.465640870608825" fill="#ff9933" stroke="none" /><path d="M 114.42810811169701 84.74124197986012 l 10.79719249087643 -11.418804616635006 a36.71523033741228,36.71523033741228 0 0,0 0.45547298654883744,0.4381646521892073 l -10.992148721037685 11.231256877683498" fill="#ff9933" stroke="none" /><path d="M 115.9244219780498 86.31012108654704 l 14.800344265087677 -12.723533773831933 a40.51764591488829,40.51764591488829 0 0,0 0.45011127421097624,0.5327897762615805 l -15.017166152785771 12.466885047941247" fill="#ff9933" stroke="none" /><path d="M 116.60985879189232 87.15038557335679 l 13.46669126581728 -10.418016946228452 a38.02606386516692,38.02606386516692 0 0,0 0.396057860280307,0.5211657187483404 l -13.644025066321701 10.184666451599078" fill="#ff9933" stroke="none" /><path d="M 117.04232023915458 87.72973835380427 l 14.599552828672692 -10.511499057135287 a38.98995706568976,38.98995706568976 0 0,0 0.387462475904661,0.5480381942377511 l -14.778327924381236 10.258634362565743" fill="#ff9933" stroke="none" /><path d="M 117.2510076193507 88.02491185347247 l 13.824343626163287 -9.596409505117498 a37.828652711496275,37.828652711496275 0 0,0 0.36671372327498913,0.5381071388093079 l -13.98748181510701 9.357024343037782" fill="#ff9933" stroke="none" /><path d="M 117.65298651832404 88.62581576622439 l 20.328040426254187 -13.097776780141391 a45.18224522565751,45.18224522565751 0 0,0 0.4156172817735692,0.6574067290596776 l -20.55048530427371 12.745922403367507" fill="#ff9933" stroke="none" /><line stroke="#2D2D2D" stroke-width="0.3" x1="172.23445277983987" x2="176.4835382374775" y1="55.19839476539836" y2="52.563006222186495" /><path d="M 173.08426987136738 54.67131705675599 a86.0,86.0 0 0,1 12.851231095245387,41.99856678651699" fill="none" id="id75" stroke="none" /><text fill="#2D2D2D" style="font-size:6.75px; font-family:Arial;" text-anchor="middle"><textPath startOffset="22.20632615414155" xlink:href="#id75">March</textPath></text><path d="M 117.84615892207809 88.93136811851018 l 20.589833698996788 -12.770327256995618 a45.22854741834741,45.22854741834741 0 0,0 0.4046537869699938,0.6651444292293971 l -20.806603284253008 12.414015054559139" fill="#ff9933" stroke="none" /><path d="M 118.3937258080291 89.86733742301442 l 35.39953947400606 -19.50075762868074 a61.4154295172557,61.4154295172557 0 0,0 0.5021205633872396,0.9303531450592416 l -35.72996813661177 18.88852350028904" fill="#ff9933" stroke="none" /><path d="M 118.89224826269711 90.83032412892265 l 18.415276227263313 -8.93816933444497 a41.469813618536485,41.469813618536485 0 0,0 0.30616927640303016,0.6448705790050617 l -18.5664036975081 8.619856339799368" fill="#ff9933" stroke="none" /><path d="M 119.196687751892 91.48605970444005 l 18.456032405155526 -8.185451574838831 a41.18976843909267,41.18976843909267 0 0,0 0.2818739230536362,0.6506038774060375 l -18.594197038051842 7.866548552846191" fill="#ff9933" stroke="none" /><path d="M 119.47837535516314 92.15188598940014 l 28.03987926313946 -11.297665502797782 a51.230317148593485,51.230317148593485 0 0,0 0.32252277945953295,0.8207852944832781 l -28.230195592480694 10.81333120341872" fill="#ff9933" stroke="none" /><path d="M 119.61058180528143 92.48833698450437 l 12.558891369444344 -4.8105742477296465 a34.44869424971894,34.44869424971894 0 0,0 0.20734080406071054,0.555570271520498 l -12.63983676200668 4.593680839179815" fill="#ff9933" stroke="none" /><path d="M 119.85752413597 93.16781622104841 l 16.605756581545123 -5.7133799751068075 a38.561146385856496,38.561146385856496 0 0,0 0.21054882856501114,0.629514198248648 l -16.701642703881905 5.426692673935846" fill="#ff9933" stroke="none" /><path d="M 120.08093135843002 93.85539295169968 l 35.373684985925564 -10.824069372540642 a57.99267585975727,57.99267585975727 0 0,0 0.2838716709093137,0.9570741541393233 l -35.55476255394658 10.213565831654789" fill="#ff9933" stroke="none" /><path d="M 120.28053869075195 94.5502522615342 l 21.75368328567729 -5.845608348829584 a43.525405067644435,43.525405067644435 0 0,0 0.18820316366538242,0.7252235625049033 l -21.851082781212973 5.470288360775831" fill="#ff9933" stroke="none" /><path d="M 120.37134235888165 94.90015583598534 l 25.034413050542483 -6.26721612381513 a46.80697259904346,46.80697259904346 0 0,0 0.18893790454711756,0.7832695920293992 l -25.13858375535042 5.8353613001263245" fill="#ff9933" stroke="none" /><path d="M 120.53481517161879 95.60439243477599 l 20.13438647154209 -4.309893259607931 a41.59050020020473,41.59050020020473 0 0,0 0.14382530513268238,0.7013432663444281 l -20.20559107258977 3.9626743371000916" fill="#ff9933" stroke="none" /><path d="M 120.73433829027371 96.67025291283417 l 46.56315461925978 -7.477621243184881 a68.15975177578464,68.15975177578464 0 0,0 0.17606023040364432,1.1600169420857518 l -46.68497074310272 6.675005188707047" fill="#ff9933" stroke="none" /><path d="M 120.83666639777658 97.38593545837742 l 21.081925972172535 -2.6448335881045195 a42.24718210504463,42.24718210504463 0 0,0 0.08431259469597695,0.722338822521262 l -21.124328919872102 2.2815510272584043" fill="#ff9933" stroke="none" /><path d="M 120.94382443527127 98.46500227214037 l 30.168540027403182 -2.211088072191744 a51.24945814139514,51.24945814139514 0 0,0 0.056909860723870505,0.880370356497704 l -30.202130479131466 1.6914586514410046" fill="#ff9933" stroke="none" /><line stroke="#2D2D2D" stroke-width="0.3" x1="184.98032266829074" x2="189.97916517819016" y1="98.17113171792111" y2="98.06355123074" /><path d="M 185.9800911702706 98.14961562048488 a86.0,86.0 0 0,1 -9.607161424134198,41.387399972396054" fill="none" id="id76" stroke="none" /><text fill="#2D2D2D" style="font-size:6.75px; font-family:Arial;" text-anchor="middle"><textPath startOffset="21.466115282336823" xlink:href="#id76">April</textPath></text><path d="M 120.99513854157772 99.54816195383933 l 26.85076039672733 -0.5778573497650191 a47.856977733898844,47.856977733898844 0 0,0 0.010635627354845297,0.8237410595053425 l -26.856729031199894 0.11558003219921383" fill="#ff9933" stroke="none" /><path d="M 120.99980553446 99.90962569577887 l 23.56486764671724 -0.10141324947701964 a44.56508586562906,44.56508586562906 0 0,0 -0.0033014297559376227,0.7671360068316115 l -23.5631219196718 -0.30423223555827666" fill="#ff9933" stroke="none" /><path d="M 120.89721153311464 102.0752229133903 l 20.115619237146134 1.997605943348487 a41.21456323541879,41.21456323541879 0 0,0 -0.07618354711611039,0.705365029462922 l -20.078253388528974 -2.3435672946962005" fill="#ff9933" stroke="none" /><path d="M 120.8583938346157 102.4346265915055 l 23.590754847344677 2.7535523358331018 a44.75091081903362,44.75091081903362 0 0,0 -0.09589159269930517,0.7643503423931188 l -23.53986174539852 -3.159220432513615" fill="#ff9933" stroke="none" /><path d="M 120.76222939487914 103.15116336523771 l 27.235608178391484 4.133652946869158 a48.547512401885314,48.547512401885314 0 0,0 -0.13250753528569803,0.8251245487123615 l -27.1604188887445 -4.6018567252747244" fill="#ff9933" stroke="none" /><path d="M 120.64145759157962 103.86396538481128 l 56.20244440260249 10.52078317386004 a78.17868165163482,78.17868165163482 0 0,0 -0.25899505344659296,1.3206101977067892 l -56.01301941618023 -11.486657098634776" fill="#ff9933" stroke="none" /><path d="M 120.49622156327973 104.57218783832717 l 26.274849034988865 5.861253248105259 a47.920660865771474,47.920660865771474 0 0,0 -0.18652417616200306,0.8035412691146757 l -26.17006429289631 -6.3126631745685" fill="#ff9933" stroke="none" /><path d="M 120.32669344350535 105.2749913415812 l 23.477431502833536 6.092641099951371 a45.25510390707608,45.25510390707608 0 0,0 -0.20216515966074095,0.7523317663829967 l -23.369078266831018 -6.495863799509916" fill="#ff9933" stroke="none" /><path d="M 119.9155931802556 106.66101706037122 l 22.3802097740986 7.485338637452741 a44.59881531030745,44.59881531030745 0 0,0 -0.24977283855055124,0.7259567849019962 l -22.248046104604818 -7.869468125444038" fill="#ff9933" stroke="none" /><path d="M 119.79798401119884 107.00284435728193 l 22.27874334260554 7.880326199669974 a44.631376302257465,44.631376302257465 0 0,0 -0.2624234367273834,0.7220765914923966 l -22.13979564487293 -8.262650588168501" fill="#ff9933" stroke="none" /><path d="M 119.67450827220406 107.3425965602758 l 22.857889164764206 8.530645647366967 a45.397848516407876,45.397848516407876 0 0,0 -0.2795334051104272,0.7297735131246773 l -22.707661480060274 -8.922842727324788" fill="#ff9933" stroke="none" /><path d="M 118.81262510543309 109.33194174019688 l 18.133724040543182 8.995175066252976 a41.24216199053631,41.24216199053631 0 0,0 -0.3209451892087437,0.6332553063868409 l -17.97620018154817 -9.30598458434251" fill="#ff9933" stroke="none" /><path d="M 118.64920377521936 109.65438752849418 l 18.28478625048446 9.465734541033116 a41.58964639393336,41.58964639393336 0 0,0 -0.33459364009850767,0.6329250721608667 l -18.119140102161055 -9.779074628280117" fill="#ff9933" stroke="none" /><line stroke="#2D2D2D" stroke-width="0.3" x1="174.80103733775053" x2="179.2010983576182" y1="140.37084112569926" y2="142.7455964860345" /><path d="M 175.68104954172406 140.8457921977663 a86.0,86.0 0 0,1 -30.038265399797805,32.042727171017184" fill="none" id="id77" stroke="none" /><text fill="#2D2D2D" style="font-size:6.75px; font-family:Arial;" text-anchor="middle"><textPath startOffset="22.206326154141568" xlink:href="#id77">May</textPath></text><path d="M 118.12598468904814 110.60418214915192 l 26.196196653608574 15.325470350734212 a51.34980659881981,51.34980659881981 0 0,0 -0.4529031529189904,0.7590917352329112 l -25.92851262499136 -15.774124179853228" fill="#ff9933" stroke="none" /><path d="M 117.35343817320211 111.8261652097733 l 19.529471461403556 13.309106452389774 a44.63329367910489,44.63329367910489 0 0,0 -0.4381269842560306,0.6311545978753841 l -19.29748356998539 -13.643302312452178" fill="#ff9933" stroke="none" /><path d="M 116.498646956653 112.99209946851258 l 2.7953318939760736 2.2012247494875963 a24.557986902060854,24.557986902060854 0 0,0 -0.26438671212130793,0.3298630746867266 l -2.7570272697999116 -2.249015657752573" fill="#ff9933" stroke="none" /><path d="M 116.0416608686014 113.55231037782055 l 13.08193463854472 11.051875489459649 a38.12544789842517,38.12544789842517 0 0,0 -0.42783558920156683,0.49766944636582544 l -12.889756539772375 -11.275422034987002" fill="#ff9933" stroke="none" /><path d="M 114.0293411484842 115.62618273729858 l 17.96729679020547 20.012362659622365 a47.89457962429559,47.89457962429559 0 0,0 -0.6181996219756976,0.5454892895559986 l -17.620154815323186 -20.318675090950656" fill="#ff9933" stroke="none" /><path d="M 113.75828350139079 115.86535959552629 l 15.488075311522719 17.860068389713085 a44.64027325858625,44.64027325858625 0 0,0 -0.5848609670700718,0.49843120442482336 l -15.178348867875599 -18.124023984360857" fill="#ff9933" stroke="none" /><path d="M 113.20401910651253 116.32954008644616 l 12.91425617251129 15.971187420627487 a41.53915383150084,41.53915383150084 0 0,0 -0.5598736309936976,0.444797473220408 l -12.637425048800242 -16.19111880785302" fill="#ff9933" stroke="none" /><path d="M 112.63410532772338 116.77436683061366 l 20.233094443284067 26.863583887127227 a54.63079318142191,54.63079318142191 0 0,0 -0.7560252179274393,0.5592893822124272 l -19.767684254938064 -27.207883218079424" fill="#ff9933" stroke="none" /><path d="M 112.34349029814194 116.9893568818739 l 15.87048748517045 21.843852043652625 a48.00048601640235,48.00048601640235 0 0,0 -0.6726300611713795,0.4799036892099993 l -15.492130096150186 -22.11379999470684" fill="#ff9933" stroke="none" /><line stroke="#2D2D2D" stroke-width="0.3" x1="143.8653032363475" x2="146.44561519142675" y1="172.8068346515853" y2="177.08958963109032" /><path d="M 144.38136562736335 173.6633856474863 a86.0,86.0 0 0,1 -40.68145358897372,12.25698825130547" fill="none" id="id78" stroke="none" /><text fill="#2D2D2D" style="font-size:6.75px; font-family:Arial;" text-anchor="middle"><textPath startOffset="21.466115282336833" xlink:href="#id78">June</textPath></text><path d="M 109.89434966115114 118.52300852407294 l 11.215632659996512 20.996555254124313 a44.80432205511167,44.80432205511167 0 0,0 -0.6833919981135737,0.35751839431252874 l -10.852549759356442 -21.18650306738156" fill="#ff9933" stroke="none" /><path d="M 104.13013068566511 120.58985236759428 l 2.7007030566650574 13.46375731364764 a34.73195390325355,34.73195390325355 0 0,0 -0.5871889735646528,0.1125361643052014 l -2.4685464685286997 -13.50825067630131" fill="#ff9933" stroke="none" /><path d="M 101.62511606390274 120.93702456842531 l 1.051710977987283 13.54961597765629 a34.590371191515615,34.590371191515615 0 0,0 -0.5940274271495339,0.040967609301390054 l -0.8183207900588187 -13.565711931473965" fill="#ff9933" stroke="none" /><path d="M 100.90346689309514 120.98055641714683 l 0.5836186388534864 13.55295237948974 a34.565512482627916,34.565512482627916 0 0,0 -0.5946579139956776,0.020481220920319555 l -0.35024037318315654 -13.560990398836154" fill="#ff9933" stroke="none" /><line stroke="#2D2D2D" stroke-width="0.3" x1="102.19456741930631" x2="102.32365962044197" y1="184.97166512339345" y2="189.96999836594603" /><path d="M 102.22038585953345 185.97133177190398 a86.0,86.0 0 0,1 -42.740103519485714,-10.115201625700543" fill="none" id="id79" stroke="none" /><text fill="#2D2D2D" style="font-size:6.75px; font-family:Arial;" text-anchor="middle"><textPath startOffset="22.20632615414155" xlink:href="#id79">July</textPath></text><path d="M 98.73552117531835 120.96189622390904 l -0.44083233055341114 7.3078974395091585 a28.321181470913398,28.321181470913398 0 0,0 -0.4863653665309109,-0.03354260325887268 l 0.5665604578632522 -7.299226491734001" fill="#ff9933" stroke="none" /><path d="M 91.7346041902142 119.30500536409082 l -5.2975349318483 12.373144932116723 a34.4595167768133,34.4595167768133 0 0,0 -0.5432777888613107,-0.23815701717429127 l 5.509733395367354 -12.28012336164798" fill="#ff9933" stroke="none" /><path d="M 91.40352486487194 119.15986991738527 l -5.59965457860128 12.480540177435552 a34.67918179279131,34.67918179279131 0 0,0 -0.5425343380729403,-0.24905090498038499 l 5.8136569124416395 -12.382302202121092" fill="#ff9933" stroke="none" /><line stroke="#2D2D2D" stroke-width="0.3" x1="58.666819895761336" x2="56.23545636021788" y1="174.27360380694188" y2="178.64263932499728" /><path d="M 58.180547188652646 175.14741091055294 a86.0,86.0 0 0,1 -31.652253787137756,-30.449443065178592" fill="none" id="id80" stroke="none" /><text fill="#2D2D2D" style="font-size:6.75px; font-family:Arial;" text-anchor="middle"><textPath startOffset="22.20632615414155" xlink:href="#id80">August</textPath></text><line stroke="#2D2D2D" stroke-width="0.3" x1="26.63291911575756" x2="22.317208475507996" y1="142.92168965132927" y2="145.44649492493687" /><path d="M 25.769776987707644 143.4266507060508 a86.0,86.0 0 0,1 -11.730757126820373,-40.83630448921669" fill="none" id="id81" stroke="none" /><text fill="#2D2D2D" style="font-size:6.75px; font-family:Arial;" text-anchor="middle"><textPath startOffset="21.46611528233685" xlink:href="#id81">September</textPath></text><line stroke="#2D2D2D" stroke-width="0.3" x1="15.007084014347285" x2="10.007500721073583" y1="101.09737516637583" y2="101.16192664675087" /><path d="M 14.007167355692545 101.11028546245083 a86.0,86.0 0 0,1 10.666146001902534,-42.60595125391555" fill="none" id="id82" stroke="none" /><text fill="#2D2D2D" style="font-size:6.75px; font-family:Arial;" text-anchor="middle"><textPath startOffset="22.20632615414155" xlink:href="#id82">October</textPath></text><line stroke="#2D2D2D" stroke-width="0.3" x1="26.266209847984243" x2="21.928928074336255" y1="57.711370442889674" y2="55.22380399835377" /><path d="M 25.398753493254645 57.213857153982495 a86.0,86.0 0 0,1 29.58750427330803,-30.492523968695096" fill="none" id="id83" stroke="none" /><text fill="#2D2D2D" style="font-size:6.75px; font-family:Arial;" text-anchor="middle"><textPath startOffset="21.46611528233685" xlink:href="#id83">November</textPath></text><line stroke="#2D2D2D" stroke-width="0.3" x1="56.762969772571076" x2="54.21961505331055" y1="26.818313649435495" y2="22.513508569990535" /><path d="M 56.25429882871897 25.957352633546506 a86.0,86.0 0 0,1 42.265352541879196,-11.944610805530505" fill="none" id="id84" stroke="none" /><text fill="#2D2D2D" style="font-size:6.75px; font-family:Arial;" text-anchor="middle"><textPath startOffset="22.20632615414155" xlink:href="#id84">December</textPath></text></svg>