<?xml version="1.0" encoding="utf-8" ?>
<svg baseProfile="full" height="200mm" version="1.1" viewBox="0,0,200,200" width="200mm" xmlns="http://www.w3.org/2000/svg" xmlns:ev="http://www.w3.org/2001/xml-events" xmlns:xlink="http://www.w3.org/1999/xlink"><defs /><rect fill="#FFF8F0" height="200" width="200" x="0" y="0" /><text alignment-baseline="middle" fill="#2D2D2D" style="dominant-baseline: central; font-size:9.0px; font-family:Arial;" text-anchor="middle" x="100.0" y="100.0">2026</text><line stroke="#2D2D2D" stroke-width="0.3" x1="100.0" x2="100.0" y1="15.0" y2="10.0" /><path d="M 100.0 14.0 a86.0,86.0 0 0,1 42.46469731375804,11.215312516191453" fill="none" id="id85" stroke="none" /><text fill="#2D2D2D" style="font-size:6.75px; font-family:Arial;" text-anchor="middle"><textPath startOffset="22.20632615414155" xlink:href="#id85">January</textPath></text><path d="M 103.59715602781102 79.31037775812273 l 4.455335176465833 -25.62557783130673 a47.01000289740493,47.01000289740493 0 0,0 0.7960469708230457,0.14547249571372603 l -4.89577726839178 25.545089854242267" fill="#FF9933" stroke="none" /><path d="M 104.66035177308747 79.52364482259891 l 6.352456835536799 -27.911018040465713 a49.6247905826848,49.6247905826848 0 0,0 0.8312774222111307,0.19673650834103976 l -6.831957944710453 27.797535619983805" fill="#FF9933" stroke="none" /><path d="M 105.36241919743992 79.69619591428918 l 7.515230053642225 -28.455022453493516 a50.43071500300303,50.43071500300303 0 0,0 0.8373950842621253,0.22889170931140718 l -8.00392302712806 28.321444203355817" fill="#FF9933" stroke="none" /><path d="M 105.71112130821622 79.79150937346287 l 7.965716500485375 -28.186252496882958 a50.29022822007616,50.29022822007616 0 0,0 0.8310095783470376,0.24259448370254716 l -8.44971629655584 28.04495968426171" fill="#FF9933" stroke="none" /><path d="M 108.09893153111575 80.62456947434976 l 14.245280667450993 -34.07961220936028 a57.93708149860829,57.93708149860829 0 0,0 0.9168301527720838,0.39253882400382123 l -14.829794578013392 33.82935385739366" fill="#FF9933" stroke="none" /><path d="M 108.76106565485865 80.91482961587045 l 26.283196964575957 -57.255511152388685 a84.0,84.0 0 0,0 1.308887154801608,0.6145400694399883 l -27.264862330677165 56.79460610030869" fill="#FF9933" stroke="none" /><path d="M 109.41281617654863 81.2277094730956 l 18.113223658910748 -36.12380083986169 a61.41061566514071,61.41061566514071 0 0,0 0.9408676924274619,0.48194897556078264 l -18.732351838926963 35.8066593389884" fill="#FF9933" stroke="none" /><path d="M 109.73455568895987 81.39251694778311 l 13.512005905718109 -25.82803251896224 a50.14895482511735,50.14895482511735 0 0,0 0.7614401265436486,0.4067349452580947 l -13.954591078790068 25.59161884720239" fill="#FF9933" stroke="none" /><line stroke="#2D2D2D" stroke-width="0.3" x1="143.23703022742887" x2="145.7803849466894" y1="26.81831364943548" y2="22.513508569990506" /><path d="M 143.74570117128098 25.957352633546492 a86.0,86.0 0 0,1 28.547481713284135,27.462654790039103" fill="none" id="id86" stroke="none" /><text fill="#2D2D2D" style="font-size:6.75px; font-family:Arial;" text-anchor="middle"><textPath startOffset="19.985693538727396" xlink:href="#id86">February</textPath></text><path d="M 110.68208982089419 81.91981866633111 l 14.660659031457076 -24.814186943210487 a49.82149886611107,49.82149886611107 0 0,0 0.7346012365163308,0.44258902549175283 l -15.085622334191044 24.55815130826012" fill="#FF9933" stroke="none" /><path d="M 110.99172775467656 82.1063720568725 l 15.480751492258733 -25.201389050473693 a50.576404055233056,50.576404055233056 0 0,0 0.7378876925907242,0.4620652054063644 l -15.91225833722172 24.931179503744385" fill="#FF9933" stroke="none" /><path d="M 114.68862486808459 84.99185889309783 l 13.333114174298814 -13.623144488978161 a40.06205653523418,40.06205653523418 0 0,0 0.48868879314284525,0.4865902081603028 l -13.565638767608982 13.39161843016774" fill="#FF9933" stroke="none" /><path d="M 116.38621287248628 86.86637796730983 l 21.77672382956518 -17.4541403870088 a48.908291194527905,48.908291194527905 0 0,0 0.5208637976561108,0.6614441284764554 l -22.073941707815255 17.076703864579308" fill="#FF9933" stroke="none" /><path d="M 116.60985879189232 87.15038557335679 l 34.58038192814226 -26.751857440208003 a64.7203006713975,64.7203006713975 0 0,0 0.6740898529887663,0.8870232306088173 l -35.035747721355136 26.152649433718153" fill="#FF9933" stroke="none" /><path d="M 116.82858285166822 87.43820079747576 l 22.18978732694088 -16.563703266322086 a48.6901232844788,48.6901232844788 0 0,0 0.4955666546292356,0.6759523599852693 l -22.47161659408374 16.179288462665323" fill="#FF9933" stroke="none" /><path d="M 117.45458315368197 88.32363383020206 l 39.920502497507215 -26.70510093189479 a69.02925083151067,69.02925083151067 0 0,0 0.6521731249377846,0.9933044123065072 l -40.37427225780293 26.01397845561061" fill="#FF9933" stroke="none" /><line stroke="#2D2D2D" stroke-width="0.3" x1="172.23445277983987" x2="176.4835382374775" y1="55.19839476539836" y2="52.563006222186495" /><path d="M 173.08426987136738 54.67131705675599 a86.0,86.0 0 0,1 12.851231095245387,41.99856678651699" fill="none" id="id87" stroke="none" /><text fill="#2D2D2D" style="font-size:6.75px; font-family:Arial;" text-anchor="middle"><textPath startOffset="22.20632615414155" xlink:href="#id87">March</textPath></text><path d="M 117.84615892207809 88.93136811851018 l 23.99188717484153 -14.880365485932531 a49.23182472326678,49.23182472326678 0 0,0 0.4404705755735011,0.724017812303102 l -24.244473548701254 14.465179900422347" fill="#FF9933" stroke="none" /><path d="M 119.34039704204932 91.81776055985345 l 33.89380561629327 -14.339272998756881 a57.80223918850525,57.80223918850525 0 0,0 0.3797835932109756,0.9196760951247729 l -34.135610896390446 13.753722333178805" fill="#FF9933" stroke="none" /><path d="M 119.61058180528143 92.48833698450437 l 40.791082808977805 -15.624669943025237 a64.6811486519913,64.6811486519913 0 0,0 0.38930478095504695,1.0431432627997992 l -41.05399217843448 14.920203543196106" fill="#FF9933" stroke="none" /><path d="M 120.18372546131832 94.20196356495316 l 50.46071197980558 -14.495492775009634 a73.50145487792935,73.50145487792935 0 0,0 0.3388530102287183,1.2190345674402254 l -50.70275176060066 13.624746904150456" fill="#FF9933" stroke="none" /><path d="M 120.37134235888165 94.90015583598534 l 59.406471436019004 -14.872056112963806 a82.23974935861254,82.23974935861254 0 0,0 0.3319634885896027,1.376202974725968 l -59.65366772486942 13.847267906578432" fill="#FF9933" stroke="none" /><path d="M 120.6074358757038 95.95851677861258 l 34.41627300776099 -6.749640796774031 a56.07189043422402,56.07189043422402 0 0,0 0.17759910482086172,0.9487415194950959 l -34.52735783649171 6.156221199816373" fill="#FF9933" stroke="none" /><path d="M 120.67395015179393 96.31383870115 l 51.78273080276279 -9.232850850099803 a73.59939870579879,73.59939870579879 0 0,0 0.2116443181463855,1.2491367461978866 l -51.9339869824294 8.34012831558608" fill="#FF9933" stroke="none" /><line stroke="#2D2D2D" stroke-width="0.3" x1="184.98032266829074" x2="189.97916517819016" y1="98.17113171792111" y2="98.06355123074" /><path d="M 185.9800911702706 98.14961562048488 a86.0,86.0 0 0,1 -9.607161424134198,41.387399972396054" fill="none" id="id88" stroke="none" /><text fill="#2D2D2D" style="font-size:6.75px; font-family:Arial;" text-anchor="middle"><textPath startOffset="21.466115282336823" xlink:href="#id88">April</textPath></text><path d="M 120.99513854157772 99.54816195383933 l 43.78608062430183 -0.9423237231389701 a64.79621936237248,64.79621936237248 0 0,0 0.014400166407768294,1.1153087578218217 l -43.795813797827314 0.1884787072566856" fill="#FF9933" stroke="none" /><path d="M 120.99980553446 99.90962569577887 l 44.03404448652695 -0.18950395164287864 a65.03445225717158,65.03445225717158 0 0,0 -0.004817822554865177,1.1194922895801194 l -44.03078236668259 -0.5684978161409255" fill="#FF9933" stroke="none" /><path d="M 120.95626037817324 101.35467743843564 l 36.31324575308877 2.3474004354953695 a57.38903826606006,57.38903826606006 0 0,0 -0.07221028028253897,0.9852519031204506 l -36.26745891414189 -2.9721254751125903" fill="#FF9933" stroke="none" /><path d="M 120.76222939487914 103.15116336523771 l 17.280114882904478 2.622669460512642 a38.47800805199158,38.47800805199158 0 0,0 -0.10502342462916073,0.6539809654184713 l -17.23240970391403 -2.919729655624318" fill="#FF9933" stroke="none" /><path d="M 120.64145759157962 103.86396538481128 l 13.946762915280638 2.6107559941308405 a35.189018383099565,35.189018383099565 0 0,0 -0.11657630321108686,0.5944200585408719 l -13.899756679093887 -2.8504397797396575" fill="#FF9933" stroke="none" /><path d="M 120.49622156327973 104.57218783832717 l 51.25645722674389 11.434017223336188 a73.51629420761307,73.51629420761307 0 0,0 -0.28615144206729853,1.232732923146891 l -51.05204521874604 -12.314618803831644" fill="#FF9933" stroke="none" /><path d="M 120.23288151984713 105.62410040840565 l 19.669938969633154 5.467620204463296 a41.415713795244784,41.415713795244784 0 0,0 -0.19683777073254183,0.6852181026095028 l -19.57290856201451 -5.8053957825773805" fill="#FF9933" stroke="none" /><path d="M 120.13307415673323 105.97154293290107 l 16.73640336079355 4.964078035638898 a38.4570692900926,38.4570692900926 0 0,0 -0.19370134946516107,0.63302721753722 l -16.648475238822254 -5.251432225728175" fill="#FF9933" stroke="none" /><path d="M 120.02730092923936 106.31721596034902 l 17.80943995758595 5.617635583668864 a39.6744205038272,39.6744205038272 0 0,0 -0.21104477174844727,0.6495290196171098 l -17.710102934821258 -5.9233635032637695" fill="#FF9933" stroke="none" /><path d="M 119.79798401119884 107.00284435728193 l 17.079766732893354 6.04137007189608 a39.116748714812275,39.116748714812275 0 0,0 -0.22999854545877585,0.63285721665786 l -16.97324392642935 -6.33447508556007" fill="#FF9933" stroke="none" /><path d="M 119.67450827220406 107.3425965602758 l 58.6204463620967 21.877359365990586 a83.56976573809553,83.56976573809553 0 0,0 -0.5145737506174437,1.3433896875455251 l -58.23517833188575 -22.883172620369255" fill="#FF9933" stroke="none" /><path d="M 118.81262510543309 109.33194174019688 l 44.98988850385771 22.31708844794354 a71.22093691263518,71.22093691263518 0 0,0 -0.554239059491955,1.0935662450508252 l -44.59907077457949 -23.088208904697062" fill="#FF9933" stroke="none" /><line stroke="#2D2D2D" stroke-width="0.3" x1="174.80103733775053" x2="179.2010983576182" y1="140.37084112569926" y2="142.7455964860345" /><path d="M 175.68104954172406 140.8457921977663 a86.0,86.0 0 0,1 -30.038265399797805,32.042727171017184" fill="none" id="id89" stroke="none" /><text fill="#2D2D2D" style="font-size:6.75px; font-family:Arial;" text-anchor="middle"><textPath startOffset="22.206326154141568" xlink:href="#id89">May</textPath></text><path d="M 117.55443506779139 111.5257021239791 l 36.50339776989876 23.967008199592836 a64.66824396271048,64.66824396271048 0 0,0 -0.6189579150022234,0.9252581016156043 l -36.085436749485815 -24.59180321541425" fill="#FF9933" stroke="none" /><path d="M 117.14729908036423 112.12312394758627 l 38.40960543647741 27.155554078923085 a68.03957809248709,68.03957809248709 0 0,0 -0.6843492291129291,0.9505012243628161 l -37.93647641498888 -27.812688908737034" fill="#FF9933" stroke="none" /><path d="M 116.71984013943494 112.70617746262583 l 42.12436966418017 32.01225083437994 a73.90790794472753,73.90790794472753 0 0,0 -0.7784726376689661,1.0062808233547411 l -41.56709020929314 -32.73260965184794" fill="#FF9933" stroke="none" /><line stroke="#2D2D2D" stroke-width="0.3" x1="143.8653032363475" x2="146.44561519142675" y1="172.8068346515853" y2="177.08958963109032" /><path d="M 144.38136562736335 173.6633856474863 a86.0,86.0 0 0,1 -40.68145358897372,12.25698825130547" fill="none" id="id90" stroke="none" /><text fill="#2D2D2D" style="font-size:6.75px; font-family:Arial;" text-anchor="middle"><textPath startOffset="21.466115282336833" xlink:href="#id90">June</textPath></text><line stroke="#2D2D2D" stroke-width="0.3" x1="102.19456741930631" x2="102.32365962044197" y1="184.97166512339345" y2="189.96999836594603" /><path d="M 102.22038585953345 185.97133177190398 a86.0,86.0 0 0,1 -42.740103519485714,-10.115201625700543" fill="none" id="id91" stroke="none" /><text fill="#2D2D2D" style="font-size:6.75px; font-family:Arial;" text-anchor="middle"><textPath startOffset="22.20632615414155" xlink:href="#id91">July</textPath></text><line stroke="#2D2D2D" stroke-width="0.3" x1="58.666819895761336" x2="56.23545636021788" y1="174.27360380694188" y2="178.64263932499728" /><path d="M 58.180547188652646 175.14741091055294 a86.0,86.0 0 0,1 -31.652253787137756,-30.449443065178592" fill="none" id="id92" stroke="none" /><text fill="#2D2D2D" style="font-size:6.75px; font-family:Arial;" text-anchor="middle"><textPath startOffset="22.20632615414155" xlink:href="#id92">August</textPath></text><line stroke="#2D2D2D" stroke-width="0.3" x1="26.63291911575756" x2="22.317208475507996" y1="142.92168965132927" y2="145.44649492493687" /><path d="M 25.769776987707644 143.4266507060508 a86.0,86.0 0 0,1 -11.730757126820373,-40.83630448921669" fill="none" id="id93" stroke="none" /><text fill="#2D2D2D" style="font-size:6.75px; font-family:Arial;" text-anchor="middle"><textPath startOffset="21.46611528233685" xlink:href="#id93">September</textPath></text><line stroke="#2D2D2D" stroke-width="0.3" x1="15.007084014347285" x2="10.007500721073583" y1="101.09737516637583" y2="101.16192664675087" /><path d="M 14.007167355692545 101.11028546245083 a86.0,86.0 0 0,1 10.666146001902534,-42.60595125391555" fill="none" id="id94" stroke="none" /><text fill="#2D2D2D" style="font-size:6.75px; font-family:Arial;" text-anchor="middle"><textPath startOffset="22.20632615414155" xlink:href="#id94">October</textPath></text><line stroke="#2D2D2D" stroke-width="0.3" x1="26.266209847984243" x2="21.928928074336255" y1="57.711370442889674" y2="55.22380399835377" /><path d="M 25.398753493254645 57.213857153982495 a86.0,86.0 0 0,1 29.58750427330803,-30.492523968695096" fill="none" id="id95" stroke="none" /><text fill="#2D2D2D" style="font-size:6.75px; font-family:Arial;" text-anchor="middle"><textPath startOffset="21.46611528233685" xlink:href="#id95">November</textPath></text><line stroke="#2D2D2D" stroke-width="0.3" x1="56.762969772571076" x2="54.21961505331055" y1="26.818313649435495" y2="22.513508569990535" /><path d="M 56.25429882871897 25.957352633546506 a86.0,86.0 0 0,1 42.265352541879196,-11.944610805530505" fill="none" id="id96" stroke="none" /><text fill="#2D2D2D" style="font-size:6.75px; font-family:Arial;" text-anchor="middle"><textPath startOffset="22.20632615414155" xlink:href="#id96">December</textPath></text></svg>