<?xml version="1.0" encoding="utf-8" ?>
<svg baseProfile="full" height="200mm" version="1.1" viewBox="0,0,200,200" width="200mm" xmlns="http://www.w3.org/2000/svg" xmlns:ev="http://www.w3.org/2001/xml-events" xmlns:xlink="http://www.w3.org/1999/xlink"><defs /><rect fill="#FFF8F0" height="200" width="200" x="0" y="0" /><text alignment-baseline="middle" fill="#2D2D2D" style="dominant-baseline: central; font-size:9.0px; font-family:Arial;" text-anchor="middle" x="100.0" y="100.0">2023</text><line stroke="#2D2D2D" stroke-width="0.3" x1="100.0" x2="100.0" y1="15.0" y2="10.0" /><path d="M 100.0 14.0 a86.0,86.0 0 0,1 42.46469731375804,11.215312516191453" fill="none" id="id49" stroke="none" /><text fill="#2D2D2D" style="font-size:6.75px; font-family:Arial;" text-anchor="middle"><textPath startOffset="22.20632615414155" xlink:href="#id49">January</textPath></text><path d="M 106.74666289553966 80.11325718540242 l 7.948314593123145 -23.428781098200904 a45.74032110985365,45.74032110985365 0 0,0 0.7434283207008375,0.2593675434947924 l -8.350424917887256 23.288492701533904" fill="#ff9933" stroke="none" /><path d="M 107.4271985657038 80.35727306442388 l 2.6598042574456677 -7.034389651616539 a28.52045187862378,28.52045187862378 0 0,0 0.457708210710147,0.17758367483183907 l -2.7804956331554815 6.987563272894154" fill="#ff9933" stroke="none" /><path d="M 109.08828744355905 81.06846463323043 l 3.0587564006548402 -6.371602497934749 a28.067765496267917,28.067765496267917 0 0,0 0.4337522083024831,0.21284032484887014 l -3.167979875967755 6.318007012951046" fill="#ff9933" stroke="none" /><line stroke="#2D2D2D" stroke-width="0.3" x1="143.23703022742887" x2="145.7803849466894" y1="26.81831364943548" y2="22.513508569990506" /><path d="M 143.74570117128098 25.957352633546492 a86.0,86.0 0 0,1 28.547481713284135,27.462654790039103" fill="none" id="id50" stroke="none" /><text fill="#2D2D2D" style="font-size:6.75px; font-family:Arial;" text-anchor="middle"><textPath startOffset="19.985693538727396" xlink:href="#id50">February</textPath></text><path d="M 111.2981086023043 82.29822771554956 l 16.29567504110317 -25.531913256717843 a51.2890676580478,51.2890676580478 0 0,0 0.7401085103414052,0.481387162583618 l -16.732750577228856 25.2476271699747" fill="#ff9933" stroke="none" /><path d="M 112.19680574252982 82.90503203632743 l 25.12621982961211 -35.21675528024943 a64.26137740982098,64.26137740982098 0 0,0 0.8949305143361421,0.6502050782749146 l -25.72869566030204 34.77903096715784" fill="#ff9933" stroke="none" /><path d="M 112.77801427241765 83.33499621200491 l 10.689426007382567 -13.941080445421912 a38.56751411990416,38.56751411990416 0 0,0 0.5233564739334134,0.4084880292478634 l -10.92781503647541 13.755014026950825" fill="#ff9933" stroke="none" /><path d="M 113.89432698308785 84.25364557470407 l 5.23665896783449 -5.934673065654379 a28.914729404193483,28.914729404193483 0 0,0 0.3703687860172949,0.33252075296572703 l -5.338038741447775 5.843653303919354" fill="#ff9933" stroke="none" /><path d="M 114.16331599549186 84.49514656593476 l 28.482913121756553 -31.180790816826825 a63.23171859946317,63.23171859946317 0 0,0 0.7972981228209809,0.7410017124736544 l -29.01541912837238 30.685884518278527" fill="#ff9933" stroke="none" /><path d="M 114.42810811169701 84.74124197986012 l 32.89925420239225 -34.793318363784344 a68.88461057414247,68.88461057414247 0 0,0 0.8545521577046339,0.8220784986510706 l -33.49328960370931 34.22185677837097" fill="#ff9933" stroke="none" /><path d="M 114.68862486808459 84.99185889309783 l 44.06587460425377 -45.02442332070654 a84.0,84.0 0 0,0 1.0246567993307099,1.0202565973995252 l -44.8343672037518 44.25923087265689" fill="#ff9933" stroke="none" /><path d="M 115.4437574822437 85.77008943001954 l 13.687977331193398 -12.612131052352176 a39.612538061773584,39.612538061773584 0 0,0 0.4577254415251761,0.5054318648967205 l -13.903046413334609 12.374646400185906" fill="#ff9933" stroke="none" /><path d="M 115.68641384162765 86.03803664274999 l 21.39348291165704 -19.041638676129473 a49.64027085353125,49.64027085353125 0 0,0 0.5626089693971348,0.6431593088151463 l -21.718083744632022 18.67056381111138" fill="#ff9933" stroke="none" /><path d="M 116.15771136456269 86.58626213691792 l 8.450849035612316 -7.015688739978401 a31.983475675712555,31.983475675712555 0 0,0 0.3480129724065627,0.42662275465339666 l -8.570360500095289 6.869181815716904" fill="#ff9933" stroke="none" /><path d="M 116.38621287248628 86.86637796730983 l 12.845793388181672 -10.295960169887007 a37.46272163379287,37.46272163379287 0 0,0 0.3989707058686666,0.5066522803436777 l -13.021118174644304 10.073315495590291" fill="#ff9933" stroke="none" /><path d="M 116.60985879189232 87.15038557335679 l 22.41900194777727 -17.343647195827923 a49.34455408694571,49.34455408694571 0 0,0 0.5139448189394085,0.6762911377897496 l -22.71422270694079 16.955171282157142" fill="#ff9933" stroke="none" /><path d="M 116.82858285166822 87.43820079747576 l 11.431890909714111 -8.533405300895874 a35.26559272518888,35.26559272518888 0 0,0 0.3589321741543016,0.48958308217037694 l -11.577085696382039 8.335359775054002" fill="#ff9933" stroke="none" /><path d="M 117.04232023915458 87.72973835380427 l 19.664343270336794 -14.158086084621674 a45.230926474924516,45.230926474924516 0 0,0 0.4494820738045329,0.6357605171828009 l -19.905137963945208 13.81749906710708" fill="#ff9933" stroke="none" /><path d="M 117.65298651832404 88.62581576622439 l 14.341981885713503 -9.240835485613072 a38.06122753152012,38.06122753152012 0 0,0 0.35011327676635007,0.5537951239590851 l -14.49892275872581 8.99259271393978" fill="#ff9933" stroke="none" /><line stroke="#2D2D2D" stroke-width="0.3" x1="172.23445277983987" x2="176.4835382374775" y1="55.19839476539836" y2="52.563006222186495" /><path d="M 173.08426987136738 54.67131705675599 a86.0,86.0 0 0,1 12.851231095245387,41.99856678651699" fill="none" id="id51" stroke="none" /><text fill="#2D2D2D" style="font-size:6.75px; font-family:Arial;" text-anchor="middle"><textPath startOffset="22.20632615414155" xlink:href="#id51">March</textPath></text><path d="M 117.84615892207809 88.93136811851018 l 17.468713056108587 -10.834530562329311 a41.55585046507944,41.55585046507944 0 0,0 0.37179465672230955,0.611132658828763 l -17.65262351111712 10.532230130293467" fill="#ff9933" stroke="none" /><path d="M 118.03404312379186 89.2402003453031 l 24.425846705478264 -14.573394060511935 a49.44302729532298,49.44302729532298 0 0,0 0.42977839512670235,0.7346305919851938 l -24.673084775075292 14.150784056172846" fill="#ff9933" stroke="none" /><path d="M 118.3937258080291 89.86733742301442 l 9.782804874321949 -5.389112672579064 a32.16896622820615,32.16896622820615 0 0,0 0.2630071884713203,0.4873123763680136 l -9.874120162011735 5.2199193128785915" fill="#ff9933" stroke="none" /><path d="M 118.73160827565052 90.50648371742162 l 24.94371109573383 -12.641921822756919 a48.96438646922425,48.96438646922425 0 0,0 0.3745542099124049,0.7550784315757159 l -25.157625318599642 12.210683802682253" fill="#ff9933" stroke="none" /><path d="M 118.89224826269711 90.83032412892265 l 10.030797898037383 -4.868619349815568 a32.149904073339364,32.149904073339364 0 0,0 0.2373609140640388,0.499942619598955 l -10.113117005943177 4.695234314576073" fill="#ff9933" stroke="none" /><path d="M 119.04729006885535 91.15688171328212 l 10.226587322440746 -4.7479153745689615 a32.27500725798321,32.27500725798321 0 0,0 0.2296100621111358,0.505915335894798 l -10.30679970151523 4.5711780298321" fill="#ff9933" stroke="none" /><path d="M 119.196687751892 91.48605970444005 l 10.506956033906784 -4.659949545303148 a32.49396601975233,32.49396601975233 0 0,0 0.22236594243307903,0.5132512535488433 l -10.585612686182543 4.478399147167702" fill="#ff9933" stroke="none" /><path d="M 119.85752413597 93.16781622104841 l 10.425082136425331 -3.586855872817693 a32.02487517405895,32.02487517405895 0 0,0 0.17485994543232644,0.522808980248707 l -10.485279375629428 3.4068737896466716" fill="#ff9933" stroke="none" /><path d="M 119.97218684219823 93.5106431181261 l 10.725865162377138 -3.4850448503946927 a32.27784204051281,32.27784204051281 0 0,0 0.16714468179532485,0.5298943176943391 l -10.784265327940668 3.2999003662739343" fill="#ff9933" stroke="none" /><path d="M 120.08093135843002 93.85539295169968 l 32.53845795359061 -9.95651220123925 a55.02768551063986,55.02768551063986 0 0,0 0.26935816981360017,0.9081418434924546 l -32.70502202051591 9.394940971000263" fill="#ff9933" stroke="none" /><path d="M 120.18372546131832 94.20196356495316 l 6.1846599034037375 -1.776623623177543 a27.434781240974896,27.434781240974896 0 0,0 0.12647856051162573,0.45501067616215884 l -6.214325234481726 1.6699016435964322" fill="#ff9933" stroke="none" /><path d="M 120.28053869075195 94.5502522615342 l 5.714910606750356 -1.5356998958254584 a26.917649652791727,26.917649652791727 0 0,0 0.11639149170969343,0.4485038966350272 l -5.740498430330352 1.4370995736415808" fill="#ff9933" stroke="none" /><path d="M 120.37134235888165 94.90015583598534 l 7.8649611001906665 -1.968946143086251 a29.107673033730862,29.107673033730862 0 0,0 0.1174940920949059,0.48708886552772773 l -7.897687992546392 1.8332720458991172" fill="#ff9933" stroke="none" /><path d="M 120.53481517161879 95.60439243477599 l 10.690404820035498 -2.2883490262528126 a31.932579589565787,31.932579589565787 0 0,0 0.11042697204974602,0.5384811330554578 l -10.728211088000242 2.103992237033943" fill="#ff9933" stroke="none" /><path d="M 120.6074358757038 95.95851677861258 l 10.940021584554636 -2.1455320274815057 a32.14842499869243,32.14842499869243 0 0,0 0.10182520077267665,0.5439542941469524 l -10.975332509237171 1.9568996558719904" fill="#ff9933" stroke="none" /><path d="M 120.67395015179393 96.31383870115 l 7.004023569400919 -1.2488160428073083 a28.114484357245892,28.114484357245892 0 0,0 0.08084673212632802,0.4771619894806906 l -7.0244821630474705 1.1280682650107798" fill="#ff9933" stroke="none" /><path d="M 120.96714384426684 98.82574320788733 l 11.062825606424507 -0.6195692748993094 a32.0801613925322,32.0801613925322 0 0,0 0.026132181367300812,0.5516090465040485 l -11.071851396025306 0.42904912177226107" fill="#ff9933" stroke="none" /><path d="M 120.98425023603335 99.18683210126433 l 25.69043723497938 -0.9955389698935322 a46.70971923543685,46.70971923543685 0 0,0 0.024218556901260454,0.8036959983409563 l -25.703767486336286 0.5531728241275767" fill="#ff9933" stroke="none" /><line stroke="#2D2D2D" stroke-width="0.3" x1="184.98032266829074" x2="189.97916517819016" y1="98.17113171792111" y2="98.06355123074" /><path d="M 185.9800911702706 98.14961562048488 a86.0,86.0 0 0,1 -9.607161424134198,41.387399972396054" fill="none" id="id52" stroke="none" /><text fill="#2D2D2D" style="font-size:6.75px; font-family:Arial;" text-anchor="middle"><textPath startOffset="21.466115282336823" xlink:href="#id52">April</textPath></text><path d="M 120.99980553446 99.90962569577887 l 9.196247833526163 -0.0395767712246757 a30.19633299399577,30.19633299399577 0 0,0 -0.0022369770040870864,0.5197946747778487 l -9.195566559232573 -0.11872738175685771" fill="#ff9933" stroke="none" /><path d="M 120.99824983174949 100.27111621757518 l 18.714380159747172 0.24162832635237852 a39.71593997136223,39.71593997136223 0 0,0 -0.014709909119202964,0.6835116752913698 l -18.707448187942962 -0.5637298174338632" fill="#ff9933" stroke="none" /><path d="M 120.9904718944345 100.63252640178507 l 17.230663577083853 0.5192284236197512 a38.23848501065389,38.23848501065389 0 0,0 -0.025488439673828148,0.6577433726458123 l -17.219173004558822 -0.8157490432795697" fill="#ff9933" stroke="none" /><path d="M 120.9764740272857 100.99374915477107 l 11.146008532786306 0.5280361486930369 a32.15850923677853,32.15850923677853 0 0,0 -0.030954324842494718,0.5527102640019957 l -11.135267857056283 -0.7198181290304559" fill="#ff9933" stroke="none" /><path d="M 120.92983693683757 101.71520430193887 l 26.48728067059871 2.1706379218326433 a47.57607394463618,47.57607394463618 0 0,0 -0.0739137438093082,0.8156320038027832 l -26.445992330512325 -2.626251314183997" fill="#ff9933" stroke="none" /><path d="M 120.89721153311464 102.0752229133903 l 16.96432113160076 1.684662466407164 a38.04776463592213,38.04776463592213 0 0,0 -0.07032984077124599,0.6511669787720082 l -16.93280898932846 -1.9764257670639638" fill="#ff9933" stroke="none" /><path d="M 120.8583938346157 102.4346265915055 l 5.691375102792819 0.6643068146741169 a26.730013447166808,26.730013447166808 0 0,0 -0.057276679187331474,0.45655148815037727 l -5.67909691435864 -0.7621760571118892" fill="#ff9933" stroke="none" /><path d="M 120.81339534386255 102.79330883721812 l 37.19799611004273 4.992241272716083 a58.531498604875395,58.531498604875395 0 0,0 -0.14261046054947257,0.9974172289298578 l -37.106551598476656 -5.631803973626351" fill="#ff9933" stroke="none" /><path d="M 120.64145759157962 103.86396538481128 l 14.549309501492425 2.7235493441900105 a35.80203121198086,35.80203121198086 0 0,0 -0.11860712909642256,0.6047751959778666 l -14.500272439420339 -2.973588267235822" fill="#ff9933" stroke="none" /><path d="M 120.49622156327973 104.57218783832717 l 8.630426249118205 1.9252294777342156 a29.842554256740826,29.842554256740826 0 0,0 -0.11615778553013174,0.5004046999321164 l -8.596007897657522 -2.0735028350148967" fill="#ff9933" stroke="none" /><path d="M 120.41448212921028 104.9243191809786 l 53.08923049638948 12.806022429670028 a75.61190900497787,75.61190900497787 0 0,0 -0.31608905310421237,1.2626186427649089 l -52.86093012899021 -13.717968911832333" fill="#ff9933" stroke="none" /><path d="M 120.23288151984713 105.62410040840565 l 16.788954515071108 4.666797749608375 a38.42549841309787,38.42549841309787 0 0,0 -0.1826260796642224,0.6357453416019716 l -16.706135798520787 -4.955100566714928" fill="#ff9933" stroke="none" /><path d="M 119.9155931802556 106.66101706037122 l 5.306542657704446 1.7748389844395944 a26.59548464377515,26.59548464377515 0 0,0 -0.14894632617221246,0.43290774408627053 l -5.275205500589003 -1.8659194316151653" fill="#ff9933" stroke="none" /><path d="M 119.79798401119884 107.00284435728193 l 5.9914722556379445 2.1192737428958415 a27.355238861554064,27.355238861554064 0 0,0 -0.16084325399090135,0.4425715555541184 l -5.954104740641816 -2.2220930954560907" fill="#ff9933" stroke="none" /><path d="M 119.67450827220406 107.3425965602758 l 10.254819893169032 3.827135307885154 a31.945697588833546,31.945697588833546 0 0,0 -0.19670292574343312,0.5135292689078793 l -10.187422687832091 -4.003088143626177" fill="#ff9933" stroke="none" /><path d="M 119.12269723197855 108.67885076344098 l 15.736425672832475 7.141988826560723 a38.28129327785682,38.28129327785682 0 0,0 -0.27749450176612106,0.5976984697344309 l -15.611156554226524 -7.411807363573985" fill="#ff9933" stroke="none" /><path d="M 118.81262510543309 109.33194174019688 l 26.044259475028635 12.919170542411262 a50.072468404085086,50.072468404085086 0 0,0 -0.38966235208002853,0.7688407879308166 l -25.81801845316234 -13.365565542044774" fill="#ff9933" stroke="none" /><path d="M 118.64920377521936 109.65438752849418 l 12.33671534956335 6.386515598680365 a34.89180071511032,34.89180071511032 0 0,0 -0.2807086768730843,0.530995028816959 l -12.224954164465373 -6.5979256425834585" fill="#ff9933" stroke="none" /><line stroke="#2D2D2D" stroke-width="0.3" x1="174.80103733775053" x2="179.2010983576182" y1="140.37084112569926" y2="142.7455964860345" /><path d="M 175.68104954172406 140.8457921977663 a86.0,86.0 0 0,1 -30.038265399797805,32.042727171017184" fill="none" id="id53" stroke="none" /><text fill="#2D2D2D" style="font-size:6.75px; font-family:Arial;" text-anchor="middle"><textPath startOffset="22.206326154141568" xlink:href="#id53">May</textPath></text><path d="M 118.48025628344425 109.97397251340804 l 43.76092107902472 23.618191074256274 a70.72762977766695,70.72762977766695 0 0,0 -0.5874555779430952,1.066402511974031 l -43.34788909163011 -24.36796410462811" fill="#ff9933" stroke="none" /><path d="M 118.30583269289576 110.29060199501025 l 34.064194199195136 19.149146103618328 a60.07760385359113,60.07760385359113 0 0,0 -0.5145160537626893,0.8971021084224852 l -33.72952614928006 -19.732668057899126" fill="#ff9933" stroke="none" /><path d="M 118.12598468904814 110.60418214915192 l 12.972622916426792 7.589328729885196 a36.029532790544835,36.029532790544835 0 0,0 -0.31777897678412964,0.5326158437027948 l -12.840063063944434 -7.811506667474094" fill="#ff9933" stroke="none" /><path d="M 117.94076556474637 110.91462005526583 l 4.7823473860259424 2.9094357485688915 a26.597826622509828,26.597826622509828 0 0,0 -0.24132507045566473,0.3890928531497817 l -4.731557675902314 -2.9913249330839466" fill="#ff9933" stroke="none" /><path d="M 116.93607887273984 112.41649034213515 l 7.588046827134731 5.563088767639023 a30.408847500487024,30.408847500487024 0 0,0 -0.31312241260797286,0.41947864142173574 l -7.491163147831665 -5.692880288570074" fill="#ff9933" stroke="none" /><path d="M 116.498646956653 112.99209946851258 l 14.02203401234412 11.041854590735381 a38.847688663977735,38.847688663977735 0 0,0 -0.4182269792854794,0.521802461996469 l -13.829889121003786 -11.2815848863101" fill="#ff9933" stroke="none" /><path d="M 116.27256486870786 113.27417163493432 l 5.7353760205983475 4.678571958543034 a28.40159264408139,28.40159264408139 0 0,0 -0.31228768337678603,0.3761706320948372 l -5.6539923373280185 -4.776603847751642" fill="#ff9933" stroke="none" /><path d="M 116.0416608686014 113.55231037782055 l 20.773491812575138 17.549854156696032 a48.19439911100128,48.19439911100128 0 0,0 -0.5408271974877549,0.6291042137368927 l -20.468322105516606 -17.904835469594452" fill="#ff9933" stroke="none" /><path d="M 115.80600337817218 113.82643327865902 l 10.043677415720516 8.785790584646394 a34.344121261001625,34.344121261001625 0 0,0 -0.39306217198505206,0.44160951704868207 l -9.890956394087127 -8.957374271435944" fill="#ff9933" stroke="none" /><path d="M 115.32070863581623 114.36230785411682 l 21.282914397804173 19.951542443636697 a50.17235834046498,50.17235834046498 0 0,0 -0.5960797479910944,0.6249872326732349 l -20.936328098434117 -20.31493679289244" fill="#ff9933" stroke="none" /><path d="M 114.81725581225074 114.88116024355365 l 23.87765922596776 23.980639713921455 a54.84100606070024,54.84100606070024 0 0,0 -0.6746750727400602,0.6603115589557457 l -23.46133420085191 -24.38810137579977" fill="#ff9933" stroke="none" /><path d="M 114.55890576462653 115.13401014063108 l 4.062567912475362 4.2230470461446625 a26.859913343849513,26.859913343849513 0 0,0 -0.33595889175225924,0.31767010164848836 l -3.989273186332295 -4.292351784539072" fill="#ff9933" stroke="none" /><path d="M 114.29624159901734 115.38237550388516 l 9.26449428179044 9.968349297195209 a34.608778123263676,34.608778123263676 0 0,0 -0.43986183207144847,0.4018033545738909 l -9.09153290025213 -10.126345418355683" fill="#ff9933" stroke="none" /><line stroke="#2D2D2D" stroke-width="0.3" x1="143.8653032363475" x2="146.44561519142675" y1="172.8068346515853" y2="177.08958963109032" /><path d="M 144.38136562736335 173.6633856474863 a86.0,86.0 0 0,1 -40.68145358897372,12.25698825130547" fill="none" id="id54" stroke="none" /><text fill="#2D2D2D" style="font-size:6.75px; font-family:Arial;" text-anchor="middle"><textPath startOffset="21.466115282336833" xlink:href="#id54">June</textPath></text><path d="M 110.21172684928248 118.3499491758327 l 8.368480701176065 15.03773042620184 a38.20943943355137,38.20943943355137 0 0,0 -0.5774668784521765,0.31488098499975825 l -8.10839101085524 -15.179552062961369" fill="#ff9933" stroke="none" /><path d="M 109.89434966115114 118.52300852407294 l 2.579028965540691 4.828147088849024 a26.473791621596423,26.473791621596423 0 0,0 -0.40379982385786534,0.21124898308416196 l -2.49553823915633 -4.871825490877903" fill="#ff9933" stroke="none" /><path d="M 109.57404056367764 118.69057910512821 l 10.02293389687651 19.566915099123143 a42.984616676154474,42.984616676154474 0 0,0 -0.6614433766025603,0.3316614403677775 l -9.68463661259119 -19.736544380400222" fill="#ff9933" stroke="none" /><path d="M 108.92500713936063 119.00905698771935 l 2.810702773075247 5.9864164089347405 a27.61341299933219,27.61341299933219 0 0,0 -0.4319947579225047,0.1983076053573544 l -2.7072400193853228 -6.033911084626169" fill="#ff9933" stroke="none" /><path d="M 108.2653958097858 119.30500536409082 l 8.517507224114606 19.893847364882095 a42.64054279102238,42.64054279102238 0 0,0 -0.6772303811107501,0.2830823542293037 l -8.173805383506396 -20.037514762131373" fill="#ff9933" stroke="none" /><path d="M 107.93186726928326 119.44442032107085 l 2.7329595394171236 6.699660017093129 a28.235641795219507,28.235641795219507 0 0,0 -0.4516074754021731,0.17970393457861794 l -2.6172309879730844 -6.745710796077817" fill="#ff9933" stroke="none" /><path d="M 107.2578585660854 119.70592522655815 l 3.845553807879355 10.441123246308905 a32.126784743757185,32.126784743757185 0 0,0 -0.5205769727695061,0.18666038119360517 l -3.6652572744801146 -10.505771168542472" fill="#ff9933" stroke="none" /><path d="M 105.53697534728816 120.25689768951611 l 1.8573239508695587 6.79497720131252 a28.04424356654642,28.04424356654642 0 0,0 -0.46674910241095957,0.12327268016331171 l -1.7400844056471017 -6.825941230779415" fill="#ff9933" stroke="none" /><path d="M 105.18746579009965 120.34920634021253 l 1.8188169596612036 7.134790494013614 a28.3629702244555,28.3629702244555 0 0,0 -0.47412988248672433,0.11652958959250742 l -1.695733792431268 -7.165041341920151" fill="#ff9933" stroke="none" /><path d="M 104.83641907484287 120.43548508189849 l 1.676045911440865 7.081853472538372 a28.277484352697808,28.277484352697808 0 0,0 -0.47463064096117163,0.10802438861806364 l -1.5538951210868313 -7.10965459473412" fill="#ff9933" stroke="none" /><path d="M 103.7750983002368 120.6578951692458 l 4.314714466073999 23.610754485464337 a45.00176010830503,45.00176010830503 0 0,0 -0.763210626101948,0.13269395023632982 l -3.9076548685000017 -23.681527014221672" fill="#ff9933" stroke="none" /><path d="M 103.41894727170886 120.7198165907248 l 3.428571187845232 20.77814032647825 a42.059112417595955,42.059112417595955 0 0,0 -0.7153336459058549,0.11172040391104118 l -3.07040167833086 -20.834079037736398" fill="#ff9933" stroke="none" /><path d="M 103.06178313531738 120.77559828337769 l 2.3995402977589295 16.281977882750496 a37.45784303652655,37.45784303652655 0 0,0 -0.6386944108186492,0.0885172255427391 l -2.11891729575345 -16.32086967378584" fill="#ff9933" stroke="none" /><path d="M 102.70371172650421 120.8252237178851 l 1.462470488857979 11.26461627277511 a32.3591548850982,32.3591548850982 0 0,0 -0.552991109594986,0.0669595222107819 l -1.2683519562116128 -11.288121323711243" fill="#ff9933" stroke="none" /><line stroke="#2D2D2D" stroke-width="0.3" x1="102.19456741930631" x2="102.32365962044197" y1="184.97166512339345" y2="189.96999836594603" /><path d="M 102.22038585953345 185.97133177190398 a86.0,86.0 0 0,1 -42.740103519485714,-10.115201625700543" fill="none" id="id55" stroke="none" /><text fill="#2D2D2D" style="font-size:6.75px; font-family:Arial;" text-anchor="middle"><textPath startOffset="22.20632615414155" xlink:href="#id55">July</textPath></text><path d="M 100.54218724476979 120.99299961872073 l 0.1489983315326491 5.769080603109727 a26.771004376014318,26.771004376014318 0 0,0 -0.4607676249310171,0.00793253252330787 l -0.049671016708964094 -5.770790612912195" fill="#ff9933" stroke="none" /><path d="M 100.18074693466247 120.99922214144158 l 0.057927149019167214 6.729990041300035 a27.73023933531276,27.73023933531276 0 0,0 -0.4773481673632407,0.0 l 0.05792714901916258 -6.729990041300035" fill="#ff9933" stroke="none" /><path d="M 98.73552117531835 120.96189622390904 l -0.5265733574793255 8.729269212187837 a29.745136961743796,29.745136961743796 0 0,0 -0.5108192416255184,-0.03522908565849543 l 0.676755359883774 -8.718911782013057" fill="#ff9933" stroke="none" /><line stroke="#2D2D2D" stroke-width="0.3" x1="58.666819895761336" x2="56.23545636021788" y1="174.27360380694188" y2="178.64263932499728" /><path d="M 58.180547188652646 175.14741091055294 a86.0,86.0 0 0,1 -31.652253787137756,-30.449443065178592" fill="none" id="id56" stroke="none" /><text fill="#2D2D2D" style="font-size:6.75px; font-family:Arial;" text-anchor="middle"><textPath startOffset="22.20632615414155" xlink:href="#id56">August</textPath></text><path d="M 89.4739219176387 118.17145234162733 l -17.169300959680243 29.6398270739312 a55.25352893377005,55.25352893377005 0 0,0 -0.8188892115834353,-0.4838141802928694 l 17.67695804229206 -29.33989432134458" fill="#ff9933" stroke="none" /><path d="M 88.24862548938628 117.40417183066458 l -13.712359082601477 20.30845442478428 a45.50432844894435,45.50432844894435 0 0,0 -0.6453881403988966,-0.44390384792961485 l 14.059904107623264 -20.069409787489565" fill="#ff9933" stroke="none" /><path d="M 87.95078237400918 117.19931262002967 l -6.571638484745467 9.380498239250704 a32.453391619549784,32.453391619549784 0 0,0 -0.4547688701072121,-0.3244655139591049 l 6.732134682701566 -9.265988463447378" fill="#ff9933" stroke="none" /><path d="M 87.36589467227662 116.77436683061367 l -3.3347078377066484 4.427508801898965 a26.542843183218785,26.542843183218785 0 0,0 -0.36258948444609335,-0.2780181550644664 l 3.4104260506462287 -4.369451305007131" fill="#ff9933" stroke="none" /><path d="M 85.97065885151581 115.62618273729859 l -8.232689851471052 9.169747508242024 a33.323207843553774,33.323207843553774 0 0,0 -0.4235228184121022,-0.38687805299035033 l 8.389312219350009 -9.026676688665097" fill="#ff9933" stroke="none" /><path d="M 85.70375840098266 115.38237550388516 l -15.33389292461744 16.49886071588536 a43.524224229611505,43.524224229611505 0 0,0 -0.5443930495741854,-0.5147576076732868 l 15.615621808582441 -16.232468471466145" fill="#ff9933" stroke="none" /><path d="M 84.67929136418377 114.36230785411682 l -16.77425135972538 15.724922898638392 a43.99236196756155,43.99236196756155 0 0,0 -0.5131470040336324,-0.5569197251143481 l 17.04244477175474 -15.4338519187227" fill="#ff9933" stroke="none" /><path d="M 83.50135304334701 112.99209946851258 l -17.916108447776285 14.108300132351502 a43.804189846100435,43.804189846100435 0 0,0 -0.46138991291632975,-0.5964086584305203 l 18.156305177910685 -13.79781347980773" fill="#ff9933" stroke="none" /><path d="M 82.85270091963577 112.12312394758628 l -6.282598982452907 4.441791434341636 a28.69419008866489,28.69419008866489 0 0,0 -0.2816663959330795,-0.40576145101408856 l 6.35812628554812 -4.332988721140534" fill="#ff9933" stroke="none" /><path d="M 82.6465618267979 111.8261652097733 l -14.59632667704135 9.9472259626958 a38.663523340937346,38.663523340937346 0 0,0 -0.3700594345432452,-0.5531886443187288 l 14.765389216995326 -9.69450040417125" fill="#ff9933" stroke="none" /><path d="M 82.44556493220864 111.52570212397912 l -19.811644849547317 13.007716639136296 a44.70025239968254,44.70025239968254 0 0,0 -0.4167662869369707,-0.6468305324915701 l 20.032615999861335 -12.664764506723278" fill="#ff9933" stroke="none" /><path d="M 82.24976979558568 111.22182372390057 l -9.892390264804327 6.2540405663052665 a32.70352120330404,32.70352120330404 0 0,0 -0.2967227236475324,-0.47841150909185104 l 9.998577628119815 -6.082832725848151" fill="#ff9933" stroke="none" /><line stroke="#2D2D2D" stroke-width="0.3" x1="26.63291911575756" x2="22.317208475507996" y1="142.92168965132927" y2="145.44649492493687" /><path d="M 25.769776987707644 143.4266507060508 a86.0,86.0 0 0,1 -11.730757126820373,-40.83630448921669" fill="none" id="id57" stroke="none" /><text fill="#2D2D2D" style="font-size:6.75px; font-family:Arial;" text-anchor="middle"><textPath startOffset="21.46611528233685" xlink:href="#id57">September</textPath></text><path d="M 79.67330655649465 105.27499134158121 l -5.555907842616621 1.4418166853296017 a26.739943145166485,26.739943145166485 0 0,0 -0.11178402212090593,-0.446521601766973 l 5.579903179032586 -1.3459672441652368" fill="#ff9933" stroke="none" /><path d="M 79.23777060512086 103.15116336523772 l -8.387208231523545 1.2729588337134885 a29.48325916798877,29.48325916798877 0 0,0 -0.07183518735493823,-0.5024151330495309 l 8.407877469895082 -1.128398228683557" fill="#ff9933" stroke="none" /><path d="M 79.18660465613746 102.79330883721812 l -9.339221996285827 1.2533914291240196 a30.42295376039332,30.42295376039332 0 0,0 -0.06518985730812504,-0.5196273036184859 l 9.359413362840801 -1.092446371218125" fill="#ff9933" stroke="none" /><path d="M 79.1416061653843 102.43462659150553 l -11.219625971205689 1.3095734960623695 a32.295795221025486,32.295795221025486 0 0,0 -0.05969754484159699,-0.552725123337735 l 11.240505817548337 -1.1162520508398523" fill="#ff9933" stroke="none" /><path d="M 79.10278846688536 102.07522291339032 l -36.87983255557947 3.662396460889417 a58.061235774921414,58.061235774921414 0 0,0 -0.09020339322898703,-0.9953869277543582 l 36.937410545085534 -3.027028144586493" fill="#ff9933" stroke="none" /><line stroke="#2D2D2D" stroke-width="0.3" x1="15.007084014347285" x2="10.007500721073583" y1="101.09737516637583" y2="101.16192664675087" /><path d="M 14.007167355692545 101.11028546245083 a86.0,86.0 0 0,1 10.666146001902534,-42.60595125391555" fill="none" id="id58" stroke="none" /><text fill="#2D2D2D" style="font-size:6.75px; font-family:Arial;" text-anchor="middle"><textPath startOffset="22.20632615414155" xlink:href="#id58">October</textPath></text><path d="M 79.21141760316559 97.0276538004421 l -10.909809393702844 -1.5598817596245378 a32.020760958796636,32.020760958796636 0 0,0 0.08271131283826648,-0.5449642089787887 l 10.881342187425274 1.7474450809954185" fill="#ff9933" stroke="none" /><path d="M 79.26566170972629 96.67025291283419 l -11.054176538389362 -1.7752007136386276 a32.19580977489261,32.19580977489261 0 0,0 0.09258309615022724,-0.5464306743072338 l 11.021981580718911 1.9652171762616895" fill="#ff9933" stroke="none" /><path d="M 79.32604984820605 96.31383870115002 l -18.93817007967286 -3.3766720489393878 a40.236844858050524,40.236844858050524 0 0,0 0.12744402894687798,-0.6808110986572719 l 18.87724032681612 3.702161225059232" fill="#ff9933" stroke="none" /><path d="M 79.3925641242962 95.95851677861259 l -18.881933052379708 -3.7030815516705684 a40.24162697832156,40.24162697832156 0 0,0 0.13916072784246958,-0.6785971308864401 l 18.815393028622246 4.027554338720411" fill="#ff9933" stroke="none" /><path d="M 79.54389044137918 95.25157060432595 l -12.556827030799168 -2.9147872139897375 a33.89069003522491,33.89069003522491 0 0,0 0.13680089959593925,-0.5671280470300833 l 12.504793330942414 3.1305004926792175" fill="#ff9933" stroke="none" /><path d="M 79.62865764111835 94.90015583598534 l -10.822964234182173 -2.709464600547973 a32.1569598563412,32.1569598563412 0 0,0 0.13904618623119314,-0.5358016760578801 l 10.774721716080673 2.895362702154717" fill="#ff9933" stroke="none" /><path d="M 79.71946130924805 94.55025226153421 l -8.919892461727992 -2.3969365169194017 a30.23632969284518,30.23632969284518 0 0,0 0.1393941297040276,-0.5014748503864844 l 8.877311561457603 2.5501226707248286" fill="#ff9933" stroke="none" /><path d="M 79.91906864156998 93.8553929516997 l -10.936820262578673 -3.3465809763461376 a32.437379144156814,32.437379144156814 0 0,0 0.16797081442184222,-0.5325133838814932 l 10.877593964388625 3.534344526654045" fill="#ff9933" stroke="none" /><path d="M 80.14247586403 93.16781622104843 l -6.609615260109844 -2.274105566032457 a27.9898905579513,27.9898905579513 0 0,0 0.16067119405864905,-0.45423910181948524 l 6.5694909852413845 2.3875422942785534" fill="#ff9933" stroke="none" /><path d="M 80.38941819471856 92.48833698450439 l -10.241228980313425 -3.922813801675387 a31.966824478846483,31.966824478846483 0 0,0 0.20124858980492158,-0.5121557098204937 l 10.17218684062681 4.098518516391644" fill="#ff9933" stroke="none" /><path d="M 80.52162464483688 92.15188598940014 l -10.631723413784888 -4.283672326831434 a32.46225943480967,32.46225943480967 0 0,0 0.213289895079885,-0.5164983989386585 l 10.556411831818803 4.466045296223403" fill="#ff9933" stroke="none" /><path d="M 80.803312248108 91.48605970444005 l -10.409710531755223 -4.616820104952245 a32.38758539974243,32.38758539974243 0 0,0 0.23041096275586187,-0.5076800143020517 l 10.32869725203601 4.795322128096367" fill="#ff9933" stroke="none" /><path d="M 81.10775173730289 90.83032412892265 l -19.906421495238355 -9.661922198259488 a43.12732151235904,43.12732151235904 0 0,0 0.3299034461475885,-0.6650652164523781 l 19.737158036137355 10.003147003210827" fill="#ff9933" stroke="none" /><path d="M 81.26839172434947 90.50648371742162 l -15.597193392162561 -7.904938393544151 a38.48600848444973,38.48600848444973 0 0,0 0.30457197930644575,-0.5883361207061203 l 15.458811979696 8.172247236510605" fill="#ff9933" stroke="none" /><path d="M 81.43458229118936 90.18545643968196 l -11.147119221973904 -5.892885842487744 a33.60890044775882,33.60890044775882 0 0,0 0.274779809573946,-0.5091252553198978 l 11.044031313181486 6.083892081140115" fill="#ff9933" stroke="none" /><path d="M 81.6062741919709 89.86733742301443 l -15.99674677388623 -8.812224292183226 a39.26338425165456,39.26338425165456 0 0,0 0.33120040462760575,-0.5891685634982494 l 15.842688727966193 9.08627636561626" fill="#ff9933" stroke="none" /><line stroke="#2D2D2D" stroke-width="0.3" x1="26.266209847984243" x2="21.928928074336255" y1="57.711370442889674" y2="55.22380399835377" /><path d="M 25.398753493254645 57.213857153982495 a86.0,86.0 0 0,1 29.58750427330803,-30.492523968695096" fill="none" id="id59" stroke="none" /><text fill="#2D2D2D" style="font-size:6.75px; font-family:Arial;" text-anchor="middle"><textPath startOffset="21.46611528233685" xlink:href="#id59">November</textPath></text><line stroke="#2D2D2D" stroke-width="0.3" x1="56.762969772571076" x2="54.21961505331055" y1="26.818313649435495" y2="22.513508569990535" /><path d="M 56.25429882871897 25.957352633546506 a86.0,86.0 0 0,1 42.265352541879196,-11.944610805530505" fill="none" id="id60" stroke="none" /><text fill="#2D2D2D" style="font-size:6.75px; font-family:Arial;" text-anchor="middle"><textPath startOffset="22.20632615414155" xlink:href="#id60">December</textPath></text></svg>