<?xml version="1.0" encoding="utf-8" ?>
<svg baseProfile="full" height="200mm" version="1.1" viewBox="0,0,200,200" width="200mm" xmlns="http://www.w3.org/2000/svg" xmlns:ev="http://www.w3.org/2001/xml-events" xmlns:xlink="http://www.w3.org/1999/xlink"><defs /><rect fill="#FFF8F0" height="200" width="200" x="0" y="0" /><text alignment-baseline="middle" fill="#2D2D2D" style="dominant-baseline: central; font-size:9.0px; font-family:Arial;" text-anchor="middle" x="100.0" y="100.0">2025</text><line stroke="#2D2D2D" stroke-width="0.3" x1="100.0" x2="100.0" y1="15.0" y2="10.0" /><path d="M 100.0 14.0 a86.0,86.0 0 0,1 42.46469731375804,11.215312516191453" fill="none" id="id73" stroke="none" /><text fill="#2D2D2D" style="font-size:6.75px; font-family:Arial;" text-anchor="middle"><textPath startOffset="22.20632615414155" xlink:href="#id73">January</textPath></text><path d="M 100.36148047927253 79.00311137660856 l 0.35156665639497875 -20.421036131409423 a41.42406217661457,41.42406217661457 0 0,0 0.7128358444123912,0.018410446790579134 l -0.7030291360022377 20.411958892476484" fill="#ff9933" stroke="none" /><path d="M 101.08401301168833 79.027996857942 l 1.524001514608899 -29.484299734649657 a50.52366019752957,50.52366019752957 0 0,0 0.8681359062285818,0.052368328640032324 l -2.031299469677093 29.45369813662932" fill="#ff9933" stroke="none" /><path d="M 107.4271985657038 80.35727306442388 l 5.341630773838948 -14.127021615618531 a36.103170496692954,36.103170496692954 0 0,0 0.5793988692510885,0.22479775976791214 l -5.584012808089703 14.032981151960072" fill="#ff9933" stroke="none" /><path d="M 108.09893153111575 80.62456947434976 l 21.067593614998078 -50.40093188363985 a75.62689296917785,75.62689296917785 0 0,0 1.1967640419767243,0.51239190620772 l -21.932041414765116 50.03082044946934" fill="#ff9933" stroke="none" /><path d="M 109.41281617654863 81.2277094730956 l 3.464094581386668 -6.9085583607253485 a28.728397627732452,28.728397627732452 0 0,0 0.4401457450049043,0.22545974594499693 l -3.582500813980328 6.847906089467851" fill="#ff9933" stroke="none" /><path d="M 109.73455568895987 81.39251694778311 l 4.75498230297838 -9.089089984518374 a31.257748946445794,31.257748946445794 0 0,0 0.47460419456898595,0.25351712415462385 l -4.910731544075678 9.005894133861995" fill="#ff9933" stroke="none" /><path d="M 110.36928655335952 81.73862282372117 l 8.094523619918776 -14.2552863328619 a37.39312359086279,37.39312359086279 0 0,0 0.5569852972642713,0.32264183508878097 l -8.338705649648377 14.113840340383069" fill="#ff9933" stroke="none" /><line stroke="#2D2D2D" stroke-width="0.3" x1="143.23703022742887" x2="145.7803849466894" y1="26.81831364943548" y2="22.513508569990506" /><path d="M 143.74570117128098 25.957352633546492 a86.0,86.0 0 0,1 28.547481713284135,27.462654790039103" fill="none" id="id74" stroke="none" /><text fill="#2D2D2D" style="font-size:6.75px; font-family:Arial;" text-anchor="middle"><textPath startOffset="19.985693538727396" xlink:href="#id74">February</textPath></text><path d="M 110.68208982089419 81.91981866633111 l 6.883147298896291 -11.650206410638528 a34.53163057982246,34.53163057982246 0 0,0 0.5091572734700986,0.3067615602661175 l -7.082666638584027 11.529998240913796" fill="#ff9933" stroke="none" /><path d="M 110.99172775467656 82.1063720568725 l 11.199708521693747 -18.232203510808247 a42.39735300990354,42.39735300990354 0 0,0 0.6185589024926963,0.38734152799422367 l -11.511886576558705 18.03671764149108" fill="#ff9933" stroke="none" /><path d="M 112.48926042617603 83.11751280151076 l 27.37811858208135 -37.00865549348057 a67.03479074058703,67.03479074058703 0 0,0 0.9217406503974496,0.6942359481916529 l -28.01110538623718 36.53190295578307" fill="#ff9933" stroke="none" /><path d="M 113.34407831869373 83.78471172551755 l 10.549450896425753 -12.81934827850939 a37.60200603848281,37.60200603848281 0 0,0 0.49624345565634614,0.4155896229144036 l -10.768551889041216 12.635857498201165" fill="#ff9933" stroke="none" /><path d="M 113.6212207817346 84.01681056812373 l 10.451166511139922 -12.263436354810962 a37.112689181886175,37.112689181886175 0 0,0 0.48265264592706014,0.4185516184097956 l -10.660712955713747 12.081719742981495" fill="#ff9933" stroke="none" /><path d="M 113.89432698308785 84.25364557470407 l 10.463159067804497 -11.85783314948901 a36.81410461200064,36.81410461200064 0 0,0 0.4715518877199981,0.4233639407175683 l -10.665721943120484 11.675970200002144" fill="#ff9933" stroke="none" /><path d="M 114.42810811169701 84.74124197986012 l 9.362175850265356 -9.90117170839483 a34.62657469250472,34.62657469250472 0 0,0 0.4295620439858884,0.4132383459728632 l -9.531221137863662 9.738550275659666" fill="#ff9933" stroke="none" /><path d="M 115.9244219780498 86.31012108654704 l 12.83328289009412 -11.032493930997402 a37.92362467306212,37.92362467306212 0 0,0 0.42129424449159464,0.4986795024329002 l -13.021287748072831 10.809955478935397" fill="#ff9933" stroke="none" /><path d="M 116.60985879189232 87.15038557335679 l 11.676880990900992 -9.033395185280993 a35.76318997537872,35.76318997537872 0 0,0 0.3724890524738629,0.49015193037965715 l -11.83064598359897 8.831058479020301" fill="#ff9933" stroke="none" /><path d="M 117.04232023915458 87.72973835380427 l 12.659177932853348 -9.114452919678465 a36.598975542024434,36.598975542024434 0 0,0 0.36370211065365926,0.5144308426195456 l -12.814192663310891 8.895195576727126" fill="#ff9933" stroke="none" /><path d="M 117.2510076193507 88.02491185347247 l 11.986999041834252 -8.320984681340548 a35.592016039466216,35.592016039466216 0 0,0 0.34503160396006416,0.5062913041476547 l -12.12845511146305 8.113415353922486" fill="#ff9933" stroke="none" /><path d="M 117.65298651832404 88.62581576622439 l 17.626312518065205 -11.356997623856614 a41.968268598355635,41.968268598355635 0 0,0 0.3860529203114159,0.6106430091233133 l -17.81919303462258 11.051906967019095" fill="#ff9933" stroke="none" /><line stroke="#2D2D2D" stroke-width="0.3" x1="172.23445277983987" x2="176.4835382374775" y1="55.19839476539836" y2="52.563006222186495" /><path d="M 173.08426987136738 54.67131705675599 a86.0,86.0 0 0,1 12.851231095245387,41.99856678651699" fill="none" id="id75" stroke="none" /><text fill="#2D2D2D" style="font-size:6.75px; font-family:Arial;" text-anchor="middle"><textPath startOffset="22.20632615414155" xlink:href="#id75">March</textPath></text><path d="M 117.84615892207809 88.93136811851018 l 17.853311773464583 -11.073068257924986 a42.00841693048753,42.00841693048753 0 0,0 0.37584370858305355,0.617788235461324 l -18.041271280333863 10.76411224925658" fill="#ff9933" stroke="none" /><path d="M 118.3937258080291 89.86733742301442 l 30.69471196832881 -16.90898094920351 a56.04395781813457,56.04395781813457 0 0,0 0.458204459291224,0.8489832738696254 l -30.9812245268385 16.378116692001424" fill="#ff9933" stroke="none" /><path d="M 118.89224826269711 90.83032412892265 l 15.967767039119973 -7.750228882112905 a38.749243137124,38.749243137124 0 0,0 0.28608345920212563,0.6025647254579325 l -16.098808692163857 7.474221741014432" fill="#ff9933" stroke="none" /><path d="M 119.196687751892 91.48605970444005 l 16.003106457652525 -7.0975521759223685 a38.50641777134604,38.50641777134604 0 0,0 0.26351095068672964,0.6082196054124344 l -16.122908118181936 6.821033425923331" fill="#ff9933" stroke="none" /><path d="M 119.47837535516314 92.15188598940014 l 24.313198148828388 -9.796132765442971 a47.212512687309804,47.212512687309804 0 0,0 0.2972285096930671,0.7564141369055137 l -24.478220208403155 9.376169623641674" fill="#ff9933" stroke="none" /><path d="M 119.61058180528143 92.48833698450437 l 10.889733565875677 -4.171217850016042 a32.66127589451737,32.66127589451737 0 0,0 0.19658263841664145,0.526743736217838 l -10.959920792793943 3.9831509767688704" fill="#ff9933" stroke="none" /><path d="M 119.85752413597 93.16781622104841 l 14.39874424527438 -4.954034863371485 a36.22715657200392,36.22715657200392 0 0,0 0.1978049434047512,0.5914116036917907 l -14.481886482450902 4.705450156757379" fill="#ff9933" stroke="none" /><path d="M 120.08093135843002 93.85539295169968 l 30.672293708755063 -9.385480620710055 a53.076110235467446,53.076110235467446 0 0,0 0.2598052922121558,0.8759342892102254 l -30.82930489807892 8.8561169447533" fill="#ff9933" stroke="none" /><path d="M 120.28053869075195 94.5502522615342 l 18.86247823066804 -5.068689231924543 a40.53163320186649,40.53163320186649 0 0,0 0.17525814142937646,0.6753411112226656 l -18.94693270396772 4.743251695153027" fill="#ff9933" stroke="none" /><path d="M 120.37134235888165 94.90015583598534 l 21.707177813621797 -5.4342626096881705 a43.37705920676909,43.37705920676909 0 0,0 0.17509294485135507,0.7258732958306183 l -21.797503558733972 5.059804082198147" fill="#ff9933" stroke="none" /><path d="M 120.53481517161879 95.60439243477599 l 17.458396425095117 -3.7370806000187864 a38.85388969235586,38.85388969235586 0 0,0 0.1343617536142822,0.6551956282287951 l -17.520137474624395 3.43600931562658" fill="#ff9933" stroke="none" /><path d="M 120.73433829027371 96.67025291283417 l 40.37461053481877 -6.483797068500175 a61.891916074742575,61.891916074742575 0 0,0 0.15987008051448784,1.0533440828984646 l -40.480236508772556 5.787853873209628" fill="#ff9933" stroke="none" /><path d="M 120.83666639777658 97.38593545837742 l 18.280001804222213 -2.2933181164868595 a39.42329432934768,39.42329432934768 0 0,0 0.078676968989456,0.67405622308641 l -18.31676912621526 1.978318155075597" fill="#ff9933" stroke="none" /><path d="M 120.94382443527127 98.46500227214037 l 26.158946144655726 -1.9172201819848276 a47.22910971850186,47.22910971850186 0 0,0 0.05244547266776567,0.811308249254687 l -26.18807220832791 1.4666528684771054" fill="#ff9933" stroke="none" /><line stroke="#2D2D2D" stroke-width="0.3" x1="184.98032266829074" x2="189.97916517819016" y1="98.17113171792111" y2="98.06355123074" /><path d="M 185.9800911702706 98.14961562048488 a86.0,86.0 0 0,1 -9.607161424134198,41.387399972396054" fill="none" id="id76" stroke="none" /><text fill="#2D2D2D" style="font-size:6.75px; font-family:Arial;" text-anchor="middle"><textPath startOffset="21.466115282336823" xlink:href="#id76">April</textPath></text><path d="M 120.99513854157772 99.54816195383933 l 23.28212086242957 -0.5010563745566105 a44.287511875321975,44.287511875321975 0 0,0 0.009842357271248364,0.762301417316456 l -23.287296226818533 0.10021869917969177" fill="#ff9933" stroke="none" /><path d="M 120.99980553446 99.90962569577887 l 20.432944488413717 -0.08793477341012194 a41.433133704622286,41.433133704622286 0 0,0 -0.003069411352793569,0.7132231010733527 l -20.43143077977142 -0.26379780586691554" fill="#ff9933" stroke="none" /><path d="M 120.89721153311464 102.0752229133903 l 17.442123477401854 1.7321112073316083 a38.52791717904602,38.52791717904602 0 0,0 -0.07121738442136438,0.6593845306793938 l -17.409723791479436 -2.0320920598957937" fill="#ff9933" stroke="none" /><path d="M 120.8583938346157 102.4346265915055 l 20.455391112825573 2.3875874402314996 a41.59426132114028,41.59426132114028 0 0,0 -0.08912757064016731,0.7104344314011212 l -20.411262032938556 -2.7393396259200156" fill="#ff9933" stroke="none" /><path d="M 120.76222939487914 103.15116336523771 l 23.615819887483433 3.5842637634975882 a44.886270024522034,44.886270024522034 0 0,0 -0.12251439290814715,0.7628972415881529 l -23.550623740213997 -3.990240234778946" fill="#ff9933" stroke="none" /><path d="M 120.64145759157962 103.86396538481128 l 48.73277642836722 9.122503117307614 a70.57926543972299,70.57926543972299 0 0,0 -0.23381924891285338,1.1922393127795017 l -48.568527246478695 -9.96000615715506" fill="#ff9933" stroke="none" /><path d="M 120.49622156327973 104.57218783832717 l 22.782751841518134 5.082254823007808 a44.34273110752433,44.34273110752433 0 0,0 -0.17259760694393853,0.7435459734154333 l -22.69189366864364 -5.473669453771807" fill="#ff9933" stroke="none" /><path d="M 120.32669344350535 105.2749913415812 l 20.35712917296019 5.28288973439139 a42.03144389028782,42.03144389028782 0 0,0 -0.1877643145466931,0.6987408644677469 l -20.26317678207172 -5.632521532034685" fill="#ff9933" stroke="none" /><path d="M 119.9155931802556 106.66101706037122 l 19.405735300911623 6.490488771209245 a41.4623802881835,41.4623802881835 0 0,0 -0.23220743299090615,0.6749034941615829 l -19.291137036977485 -6.823564968460128" fill="#ff9933" stroke="none" /><path d="M 119.79798401119884 107.00284435728193 l 19.317754413718987 6.832979934469517 a41.49061371393308,41.49061371393308 0 0,0 -0.24395638998450292,0.671263210136971 l -19.197273762729257 -7.16449094161262" fill="#ff9933" stroke="none" /><path d="M 119.67450827220406 107.3425965602758 l 19.819928014363562 7.396867725979336 a42.15521681879409,42.15521681879409 0 0,0 -0.2595671752212424,0.6776479872887606 l -19.68966655954881 -7.73693928010124" fill="#ff9933" stroke="none" /><path d="M 118.81262510543309 109.33194174019688 l 15.723634957069196 7.79965818386061 a38.5518478812982,38.5518478812982 0 0,0 -0.3000092506171027,0.5919467133525245 l -15.587047036665824 -8.069159108915828" fill="#ff9933" stroke="none" /><path d="M 118.64920377521936 109.65438752849418 l 15.854620023325543 8.207677264248664 a38.853149362454225,38.853149362454225 0 0,0 -0.3125781967785827,0.5912801501360049 l -15.710989318322067 -8.479372429470803" fill="#ff9933" stroke="none" /><line stroke="#2D2D2D" stroke-width="0.3" x1="174.80103733775053" x2="179.2010983576182" y1="140.37084112569926" y2="142.7455964860345" /><path d="M 175.68104954172406 140.8457921977663 a86.0,86.0 0 0,1 -30.038265399797805,32.042727171017184" fill="none" id="id77" stroke="none" /><text fill="#2D2D2D" style="font-size:6.75px; font-family:Arial;" text-anchor="middle"><textPath startOffset="22.206326154141568" xlink:href="#id77">May</textPath></text><path d="M 118.12598468904814 110.60418214915192 l 22.71455286978112 13.2886163262201 a47.31612121760281,47.31612121760281 0 0,0 -0.4173262160609964,0.6994627426773286 l -22.482445778021894 -13.677641162783532" fill="#ff9933" stroke="none" /><path d="M 117.35343817320211 111.8261652097733 l 16.933878528042943 11.540240217303024 a41.492276259009685,41.492276259009685 0 0,0 -0.40729429465763284,0.5867378088982386 l -16.732723326223176 -11.830019288388282" fill="#ff9933" stroke="none" /><path d="M 116.498646956653 112.99209946851258 l 2.423814225167622 1.9086677585930831 a24.08510745531135,24.08510745531135 0 0,0 -0.2592957800895235,0.3235113542104908 l -2.3906005330232447 -1.9501069463818244" fill="#ff9933" stroke="none" /><path d="M 116.0416608686014 113.55231037782055 l 11.343261005231154 9.583009832879242 a35.84936522851593,35.84936522851593 0 0,0 -0.4022938782491738,0.4679586661742209 l -11.176624617411202 -9.77684559821499" fill="#ff9933" stroke="none" /><path d="M 114.0293411484842 115.62618273729858 l 15.579326963555665 17.352590366151784 a44.32011623154645,44.32011623154645 0 0,0 -0.5720622106966443,0.5047783884070602 l -15.278322399952433 -17.61819189633113" fill="#ff9933" stroke="none" /><path d="M 113.75828350139079 115.86535959552629 l 13.42961003716059 15.486349910270683 a41.49832820728425,41.49832820728425 0 0,0 -0.5436963216266871,0.46334980053006003 l -13.161048238956855 -15.71522410102369" fill="#ff9933" stroke="none" /><path d="M 113.20401910651253 116.32954008644616 l 11.197868090671722 13.848513425671383 a38.80936758779167,38.80936758779167 0 0,0 -0.5230809861001201,0.4155671709239542 l -10.957829611854251 -14.039214510600463" fill="#ff9933" stroke="none" /><path d="M 112.63410532772338 116.77436683061366 l 17.543985469659454 23.293240028105227 a50.16104348555699,50.16104348555699 0 0,0 -0.6941691969709918,0.5135297766774558 l -17.140431302269896 -23.591779753522452" fill="#ff9933" stroke="none" /><path d="M 112.34349029814194 116.9893568818739 l 13.76119716223941 18.94066297814554 a44.4119469799015,44.4119469799015 0 0,0 -0.6223439196766322,0.4440258624333627 l -13.433125914713894 -19.17473310242312" fill="#ff9933" stroke="none" /><line stroke="#2D2D2D" stroke-width="0.3" x1="143.8653032363475" x2="146.44561519142675" y1="172.8068346515853" y2="177.08958963109032" /><path d="M 144.38136562736335 173.6633856474863 a86.0,86.0 0 0,1 -40.68145358897372,12.25698825130547" fill="none" id="id78" stroke="none" /><text fill="#2D2D2D" style="font-size:6.75px; font-family:Arial;" text-anchor="middle"><textPath startOffset="21.466115282336833" xlink:href="#id78">June</textPath></text><path d="M 109.89434966115114 118.52300852407294 l 9.725002617448332 18.205977406166316 a41.64057385886389,41.64057385886389 0 0,0 -0.635135934810071,0.33227310271453614 l -9.410175780111766 -18.37067992782557" fill="#ff9933" stroke="none" /><path d="M 104.13013068566511 120.58985236759428 l 2.3417621717138655 11.674336979930398 a32.906888510011356,32.906888510011356 0 0,0 -0.5563338630824907,0.10662270894551314 l -2.14046069405967 -11.71291688722438" fill="#ff9933" stroke="none" /><path d="M 101.62511606390274 120.93702456842531 l 0.9119317941114391 11.748784472776066 a32.78412305540193,32.78412305540193 0 0,0 -0.563008363284951,0.038828353046174734 l -0.7095606700475579 -11.762741170338526" fill="#ff9933" stroke="none" /><path d="M 100.90346689309514 120.98055641714683 l 0.5060519511026454 11.751677445250005 a32.76256822953272,32.76256822953272 0 0,0 -0.5636404346762282,0.019412916217091965 l -0.30369116475176505 -11.75864715989319" fill="#ff9933" stroke="none" /><line stroke="#2D2D2D" stroke-width="0.3" x1="102.19456741930631" x2="102.32365962044197" y1="184.97166512339345" y2="189.96999836594603" /><path d="M 102.22038585953345 185.97133177190398 a86.0,86.0 0 0,1 -42.740103519485714,-10.115201625700543" fill="none" id="id79" stroke="none" /><text fill="#2D2D2D" style="font-size:6.75px; font-family:Arial;" text-anchor="middle"><textPath startOffset="22.20632615414155" xlink:href="#id79">July</textPath></text><path d="M 98.73552117531835 120.96189622390904 l -0.3822428656903876 6.336630654885645 a27.348149152690702,27.348149152690702 0 0,0 -0.46965528610630564,-0.03239017827823672 l 0.4912609125756233 -6.329112132091123" fill="#ff9933" stroke="none" /><path d="M 91.7346041902142 119.30500536409082 l -4.593458313056473 10.72867403014072 a32.67066003783863,32.67066003783863 0 0,0 -0.5150752420863733,-0.22579384946460945 l 4.777454229800591 -10.648015627381659" fill="#ff9933" stroke="none" /><path d="M 91.40352486487194 119.15986991738527 l -4.855424306819346 10.821795753496758 a32.86113015397996,32.86113015397996 0 0,0 -0.514092045277844,-0.23599444336452416 l 5.040984347864609 -10.73661423979816" fill="#ff9933" stroke="none" /><path d="M 90.10565033884886 118.52300852407294 l -5.558979712334157 10.406851599454631 a32.79850904373998,32.79850904373998 0 0,0 -0.4956904083430076,-0.27028993325528894 l 5.737292932545805 -10.309621014439577" fill="#ff9933" stroke="none" /><line stroke="#2D2D2D" stroke-width="0.3" x1="58.666819895761336" x2="56.23545636021788" y1="174.27360380694188" y2="178.64263932499728" /><path d="M 58.180547188652646 175.14741091055294 a86.0,86.0 0 0,1 -31.652253787137756,-30.449443065178592" fill="none" id="id80" stroke="none" /><text fill="#2D2D2D" style="font-size:6.75px; font-family:Arial;" text-anchor="middle"><textPath startOffset="22.20632615414155" xlink:href="#id80">August</textPath></text><path d="M 82.05923443525364 110.91462005526583 l -7.522297605626018 4.576338730459554 a29.80498934942633,29.80498934942633 0 0,0 -0.2628787631963938,-0.44059992787536517 l 7.599957244520644 -4.4461767086980775" fill="#ff9933" stroke="none" /><line stroke="#2D2D2D" stroke-width="0.3" x1="26.63291911575756" x2="22.317208475507996" y1="142.92168965132927" y2="145.44649492493687" /><path d="M 25.769776987707644 143.4266507060508 a86.0,86.0 0 0,1 -11.730757126820373,-40.83630448921669" fill="none" id="id81" stroke="none" /><text fill="#2D2D2D" style="font-size:6.75px; font-family:Arial;" text-anchor="middle"><textPath startOffset="21.46611528233685" xlink:href="#id81">September</textPath></text><path d="M 81.87401531095188 110.60418214915194 l -7.6584873648941905 4.480418382642991 a29.872799873871223,29.872799873871223 0 0,0 -0.2558363536502503,-0.4460722470996422 l 7.734475714696818 -4.3479262896850415" fill="#ff9933" stroke="none" /><path d="M 81.69416730710424 110.29060199501025 l -5.139564461638816 2.889200026554911 a26.895981652683936,26.895981652683936 0 0,0 -0.22339493767558408,-0.40552670132719004 l 5.188535808765917 -2.8003028068298983" fill="#ff9933" stroke="none" /><path d="M 81.35079622478065 109.6543875284942 l -10.85712619604458 5.620556513070089 a33.22570426410896,33.22570426410896 0 0,0 -0.258561370863276,-0.5101661144368608 l 10.952266236694124 -5.432836186930544" fill="#ff9933" stroke="none" /><path d="M 81.02952815118164 109.00673069616217 l -8.017268217980972 3.8064090515888958 a29.874983918129974,29.874983918129974 0 0,0 -0.21655861304006432,-0.4664479865296466 l 8.081601447860862 -3.667840997780422" fill="#ff9933" stroke="none" /><path d="M 80.58989483394504 108.01547362559985 l -8.182465313197449 3.3789788540156565 a29.85269657774197,29.85269657774197 0 0,0 -0.1920486316676365,-0.4766489540054192 l 8.239416559122473 -3.237630532167432" fill="#ff9933" stroke="none" /><path d="M 80.45479744820244 107.68017299344265 l -8.23759343927684 3.2369141478902606 a29.850737758606847,29.850737758606847 0 0,0 -0.18380338812104277,-0.47985264666425126 l 8.292091106991391 -3.094637934392851" fill="#ff9933" stroke="none" /><path d="M 80.32549172779594 107.34259656027581 l -8.648729300358164 3.227736578366457 a30.23140303151144,30.23140303151144 0 0,0 -0.1777545157221321,-0.48910408474056954 l 8.70300807708552 -3.0783846966197705" fill="#ff9933" stroke="none" /><line stroke="#2D2D2D" stroke-width="0.3" x1="15.007084014347285" x2="10.007500721073583" y1="101.09737516637583" y2="101.16192664675087" /><path d="M 14.007167355692545 101.11028546245083 a86.0,86.0 0 0,1 10.666146001902534,-42.60595125391555" fill="none" id="id82" stroke="none" /><text fill="#2D2D2D" style="font-size:6.75px; font-family:Arial;" text-anchor="middle"><textPath startOffset="22.20632615414155" xlink:href="#id82">October</textPath></text><path d="M 79.08570108090925 98.10471618934814 l -11.756092883342014 -1.0653540242737556 a32.80426613893473,32.80426613893473 0 0,0 0.055802984588946995,-0.5619284394028058 l 11.736012773070838 1.2675579943809918" fill="#ff9933" stroke="none" /><path d="M 79.12142395522702 97.74499172005258 l -9.047727823750472 -0.9772075027298559 a30.10034687668882,30.10034687668882 0 0,0 0.06007118628912159,-0.5146532392699434 l 9.029566284457763 1.132804480324661" fill="#ff9933" stroke="none" /><path d="M 79.16333360222342 97.38593545837743 l -11.672433556767796 -1.4643654648350048 a32.763930948104054,32.763930948104054 0 0,0 0.07502004221798579,-0.5589864524078922 l 11.645497515491977 1.6650702593075564" fill="#ff9933" stroke="none" /><path d="M 79.21141760316559 97.0276538004421 l -11.646698110887174 -1.6652419201304063 a32.765143753422755,32.765143753422755 0 0,0 0.0846340928208212,-0.5576329266701902 l 11.61630812462705 1.8654739591926883" fill="#ff9933" stroke="none" /><path d="M 79.32604984820605 96.31383870115002 l -11.541272993670429 -2.0578067343864057 a32.72329095734267,32.72329095734267 0 0,0 0.10364600044355328,-0.5536810787959336 l 11.504141269317014 2.256165890644912" fill="#ff9933" stroke="none" /><path d="M 79.54389044137918 95.25157060432595 l -11.502105964191603 -2.6699572524291626 a32.8079258695713,32.8079258695713 0 0,0 0.13243028596258727,-0.549009031866242 l 11.454442877968201 2.8675515159548013" fill="#ff9933" stroke="none" /><path d="M 79.62865764111835 94.90015583598534 l -11.439490248239299 -2.863808214206874 a32.79251180314528,32.79251180314528 0 0,0 0.1417943028053254,-0.5463912902453146 l 11.388499613563665 3.0602959300010526" fill="#ff9933" stroke="none" /><path d="M 79.71946130924805 94.55025226153421 l -11.45037300401563 -3.076922429663045 a32.85658018018912,32.85658018018912 0 0,0 0.15147388739949585,-0.5449321659556702 l 11.395712346049773 3.2735658990376577" fill="#ff9933" stroke="none" /><path d="M 80.02781315780177 93.51064311812611 l -11.373961304800032 -3.6956240521204546 a32.959290651945025,32.959290651945025 0 0,0 0.1799619743578448,-0.538063397337506 l 11.308662036670416 3.890860552380283" fill="#ff9933" stroke="none" /><path d="M 80.2630227832202 92.82701384747504 l -10.985803081972215 -3.992557346337633 a32.68881446168365,32.68881446168365 0 0,0 0.19674838834659295,-0.5271878636244245 l 10.915450105123995 4.181068346991399" fill="#ff9933" stroke="none" /><path d="M 80.38941819471856 92.48833698450439 l -3.3249846448998586 -1.273606486139979 a24.560561243730778,24.560561243730778 0 0,0 0.154622124521284,-0.39349644146532226 l 3.3025689704968832 1.3306519325010646" fill="#ff9933" stroke="none" /><path d="M 80.52162464483688 92.15188598940014 l -13.630110913001925 -5.4917652253788045 a35.69487695734177,35.69487695734177 0 0,0 0.2345294718751751,-0.5679317188565723 l 13.533559754240551 5.725571514688688" fill="#ff9933" stroke="none" /><path d="M 80.65960295795068 91.81776055985345 l -10.84714295271482 -4.589043373186426 a32.7779382456191,32.7779382456191 0 0,0 0.22430924943325556,-0.5177366740361656 l 10.766542993438884 4.7750791918091915" fill="#ff9933" stroke="none" /><path d="M 81.6062741919709 89.86733742301443 l -10.277503069831619 -5.6616300486049065 a32.73376001789982,32.73376001789982 0 0,0 0.2761207361399191,-0.49118797921322255 l 10.17852469239927 5.837701537752913" fill="#ff9933" stroke="none" /><line stroke="#2D2D2D" stroke-width="0.3" x1="26.266209847984243" x2="21.928928074336255" y1="57.711370442889674" y2="55.22380399835377" /><path d="M 25.398753493254645 57.213857153982495 a86.0,86.0 0 0,1 29.58750427330803,-30.492523968695096" fill="none" id="id83" stroke="none" /><text fill="#2D2D2D" style="font-size:6.75px; font-family:Arial;" text-anchor="middle"><textPath startOffset="21.46611528233685" xlink:href="#id83">November</textPath></text><path d="M 81.78341655067845 89.55222093294921 l -5.136009796321229 -2.9456618903020053 a26.920770270825006,26.920770270825006 0 0,0 0.23400600803552354,-0.39999212189469985 l 5.084544113815381 3.033633424550597" fill="#ff9933" stroke="none" /><path d="M 83.6137871275137 86.86637796730984 l -9.130922596956852 -7.318474813636732 a32.701872545428465,32.701872545428465 0 0,0 0.3558298661217154,-0.4362053420682549 l 9.003594238758744 7.474564325313069" fill="#ff9933" stroke="none" /><path d="M 84.07557802195018 86.31012108654704 l -8.993967896256091 -7.7319184094057665 a32.86060794430846,32.86060794430846 0 0,0 0.37243295516780794,-0.42575524930287223 l 8.85954307751044 7.885589214911582" fill="#ff9933" stroke="none" /><path d="M 84.5562425177563 85.77008943001954 l -8.69196923166575 -8.008798699787407 a32.81910257752003,32.81910257752003 0 0,0 0.38637879146507564,-0.41216195525278304 l 8.552823118230219 8.15723007191824" fill="#ff9933" stroke="none" /><path d="M 85.05521093208273 85.24692304244772 l -31.402030980584083 -30.999204978713085 a65.12525647537737,65.12525647537737 0 0,0 0.7944171054244547,-0.7910056259088374 l 30.863778074992315 31.535146455272034" fill="#ff9933" stroke="none" /><path d="M 85.83668400450813 84.49514656593479 l -10.033796714262124 -10.984189542290627 a35.87714678303956,35.87714678303956 0 0,0 0.45955039433543726,-0.41258888145876826 l 9.843235332330716 11.155277432518675" fill="#ff9933" stroke="none" /><path d="M 86.37877921826538 84.01681056812374 l -9.451650320697368 -11.090600463809682 a35.57172304268079,35.57172304268079 0 0,0 0.46944928279318676,-0.3931502737006698 l 9.259343500945072 11.251651894904164" fill="#ff9933" stroke="none" /><path d="M 87.22198572758235 83.33499621200491 l -10.988768786376012 -14.331481366839158 a39.05946836450314,39.05946836450314 0 0,0 0.5370748439239414,-0.40451363771430154 l 10.74044778869368 14.518511594059314" fill="#ff9933" stroke="none" /><line stroke="#2D2D2D" stroke-width="0.3" x1="56.762969772571076" x2="54.21961505331055" y1="26.818313649435495" y2="22.513508569990535" /><path d="M 56.25429882871897 25.957352633546506 a86.0,86.0 0 0,1 42.265352541879196,-11.944610805530505" fill="none" id="id84" stroke="none" /><text fill="#2D2D2D" style="font-size:6.75px; font-family:Arial;" text-anchor="middle"><textPath startOffset="22.20632615414155" xlink:href="#id84">December</textPath></text><path d="M 91.56875222667455 80.76684994638697 l -6.402810313098611 -14.605929611777416 a36.947700766245845,36.947700766245845 0 0,0 0.5846819560441413,-0.25033030027196124 l 6.150444599264161 14.713979440012162" fill="#ff9933" stroke="none" /><path d="M 92.57280143429618 80.3572730644239 l -6.857894716951094 -18.13708790553053 a40.390324330493485,40.390324330493485 0 0,0 0.6524338990800762,-0.2402969111473641 l 6.5446784920984475 18.252448084484218" fill="#ff9933" stroke="none" /><path d="M 97.83486435360386 79.11191278185805 l -4.0015328005194455 -38.60467877965598 a59.81151231830645,59.81151231830645 0 0,0 1.0249838282900618,-0.09733456500960448 l 3.336423845139147 38.66783888918076" fill="#ff9933" stroke="none" /><path d="M 98.55514903715128 79.0497635885617 l -4.334552888546145 -62.8507092343149 a84.0,84.0 0 0,0 1.4433518046415081,-0.08706692247877434 l 3.2520390350650135 62.91600942617398" fill="#ff9933" stroke="none" /></svg>