<?xml version="1.0" encoding="utf-8" ?>
<svg baseProfile="full" height="200mm" version="1.1" viewBox="0,0,200,200" width="200mm" xmlns="http://www.w3.org/2000/svg" xmlns:ev="http://www.w3.org/2001/xml-events" xmlns:xlink="http://www.w3.org/1999/xlink"><defs /><rect fill="#FFF8F0" height="200" width="200" x="0" y="0" /><text alignment-baseline="middle" fill="#2D2D2D" style="dominant-baseline: central; font-size:9.0px; font-family:Arial;" text-anchor="middle" x="100.0" y="100.0">2022</text><line stroke="#2D2D2D" stroke-width="0.3" x1="100.0" x2="100.0" y1="15.0" y2="10.0" /><path d="M 100.0 14.0 a86.0,86.0 0 0,1 42.46469731375804,11.215312516191453" fill="none" id="id37" stroke="none" /><text fill="#2D2D2D" style="font-size:6.75px; font-family:Arial;" text-anchor="middle"><textPath startOffset="22.20632615414155" xlink:href="#id37">January</textPath></text><path d="M 100.0 79.0 l 0.0 -40.61824866882747 a61.61824866882747,61.61824866882747 0 0,0 1.0606568600353137,0.009129408455645402 l -0.6991763807627853 40.612230636980385" fill="#FF9933" stroke="none" /><path d="M 100.36148047927253 79.00311137660856 l 0.3987795879741354 -23.163437790127958 a44.16687021194086,44.16687021194086 0 0,0 0.7600347857809825,0.019629456195688965 l -0.7974410089499856 23.15314154178991" fill="#FF9933" stroke="none" /><path d="M 100.72285384407766 79.0124445844662 l 0.5192486987609631 -15.076022530660733 a36.084961867905236,36.084961867905236 0 0,0 0.620591180546446,0.026723961682555517 l -0.7786807116967408 15.064850842453984" fill="#FF9933" stroke="none" /><path d="M 101.08401301168833 79.027996857942 l 0.777029753891875 -15.032910365819738 a36.05297875190169,36.05297875190169 0 0,0 0.6194896660031053,0.03736930840620309 l -1.0356814687345923 15.01730778803323" fill="#FF9933" stroke="none" /><path d="M 101.44485096284872 79.0497635885617 l 1.0501542775822068 -15.227162489100296 a36.26333192576861,36.26333192576861 0 0,0 0.6223647901169921,0.04830748584743147 l -1.31210925706154 15.2068297410644" fill="#FF9933" stroke="none" /><path d="M 101.80526077348638 79.07773832637324 l 1.315295353491236 -15.24375534438916 a36.300394729107765,36.300394729107765 0 0,0 0.6220761876053156,0.05907362970244537 l -1.5774966681867957 15.218856170171536" fill="#FF9933" stroke="none" /><path d="M 103.2404852339499 79.25152402106235 l 3.862035794761335 -24.72819690023056 a46.02796520727544,46.02796520727544 0 0,0 0.7817538519186269,0.12899608389205205 l -4.287118852818837 24.658054553398884" fill="#FF9933" stroke="none" /><path d="M 103.59715602781102 79.31037775812273 l 3.1139769874266023 -17.910540171636942 a39.17922720904393,39.17922720904393 0 0,0 0.663444016521619,0.1212401533918937 l -3.421816125051122 17.854284536894312" fill="#FF9933" stroke="none" /><path d="M 103.95276090670814 79.375362276772 l 1.9565882935966534 -10.209047721671265 a31.394849356003228,31.394849356003228 0 0,0 0.5298756753089015,0.10628807565542063 l -2.13203037837268 10.173855689938636" fill="#FF9933" stroke="none" /><path d="M 104.66035177308747 79.52364482259891 l 2.0074012000720813 -8.819990841374969 a30.0455457557844,30.0455457557844 0 0,0 0.5033005385318398,0.11911497648226788 l -2.1589254255664447 8.784129952751833" fill="#FF9933" stroke="none" /><path d="M 105.01212808612495 79.60689891045804 l 2.2817649032683778 -9.283933198701762 a30.56022315177549,30.56022315177549 0 0,0 0.5097606918985268,0.1299493506602071 l -2.4412344838519298 9.243280851872687" fill="#FF9933" stroke="none" /><path d="M 105.71112130821622 79.79150937346287 l 3.950043793255575 -13.977014085759 a35.5244541626232,35.5244541626232 0 0,0 0.5870158621174271,0.1713660271868881 l -4.190049873096429 13.906949729653409" fill="#FF9933" stroke="none" /><path d="M 106.0581310904928 79.89281104454417 l 4.386797324987297 -14.559962702232108 a36.20646259525554,36.20646259525554 0 0,0 0.5951904995373554,0.1849285854451511 l -4.63677319723537 14.482293981904435" fill="#FF9933" stroke="none" /><path d="M 106.40334571778207 80.00007090966166 l 4.712736020741332 -14.719552932237567 a36.45558537636593,36.45558537636593 0 0,0 0.595991842138788,0.19648913993811 l -4.965410685122538 14.636250068040221" fill="#FF9933" stroke="none" /><path d="M 106.74666289553966 80.11325718540242 l 4.9781621617269485 -14.673836848299528 a36.495276259523834,36.495276259523834 0 0,0 0.5931664073360886,0.20694411239184235 l -5.230010573126311 14.585971882735478" fill="#FF9933" stroke="none" /><path d="M 107.4271985657038 80.35727306442388 l 10.905379773667025 -28.841479748777594 a51.834368196981984,51.834368196981984 0 0,0 0.8318597482851802,0.32274865861805696 l -11.400222686951873 28.64948838626899" fill="#FF9933" stroke="none" /><path d="M 108.09893153111575 80.62456947434976 l 5.896513589769133 -14.106489104543032 a36.28927425913092,36.28927425913092 0 0,0 0.5742626311576681,0.2458692891179472 l -6.1384599787171155 14.002900287462294" fill="#FF9933" stroke="none" /><path d="M 108.43124777332544 80.76684994638697 l 6.064394717276661 -13.833944478625652 a36.10479735463638,36.10479735463638 0 0,0 0.5670479893663033,0.2544179037765099 l -6.301624825109745 13.727506244332611" fill="#FF9933" stroke="none" /><path d="M 109.41281617654863 81.2277094730956 l 17.211408217802052 -34.32528048796969 a59.39866473482661,59.39866473482661 0 0,0 0.910042734745814,0.4661592349883906 l -17.79971144013662 34.023928727668796" fill="#FF9933" stroke="none" /><path d="M 109.73455568895987 81.39251694778311 l 10.028532197214288 -19.16941551938618 a42.63418474048531,42.63418474048531 0 0,0 0.6473390948443253,0.3457861256932828 l -10.357016338586924 18.993950667191143" fill="#FF9933" stroke="none" /><path d="M 110.05341064243156 81.56283822128135 l 7.701662332538968 -14.124240960651807 a37.087566173881115,37.087566173881115 0 0,0 0.5578604166321846,0.3104487178731529 l -7.943646838243187 13.989576845218474" fill="#FF9933" stroke="none" /><line stroke="#2D2D2D" stroke-width="0.3" x1="143.23703022742887" x2="145.7803849466894" y1="26.81831364943548" y2="22.513508569990506" /><path d="M 143.74570117128098 25.957352633546492 a86.0,86.0 0 0,1 28.547481713284135,27.462654790039103" fill="none" id="id38" stroke="none" /><text fill="#2D2D2D" style="font-size:6.75px; font-family:Arial;" text-anchor="middle"><textPath startOffset="19.985693538727396" xlink:href="#id38">February</textPath></text><path d="M 112.48926042617603 83.11751280151076 l 13.383936831608963 -18.09187530043441 a43.50434884636673,43.50434884636673 0 0,0 0.5981927646488309,0.4505463884969139 l -13.693375750016177 17.85881232243165" fill="#FF9933" stroke="none" /><path d="M 113.89432698308785 84.25364557470407 l 12.485999972159574 -14.150306175691133 a39.87144298061416,39.87144298061416 0 0,0 0.5107133366894381,0.4585234762674647 l -12.727724296445002 13.933283690654372" fill="#FF9933" stroke="none" /><path d="M 114.42810811169701 84.74124197986012 l 6.7189059661578066 -7.105724430672957 a30.77931577702313,30.77931577702313 0 0,0 0.38183464333615175,0.36732462436218655 l -6.840223853106377 6.989016719548469" fill="#FF9933" stroke="none" /><path d="M 114.68862486808459 84.99185889309783 l 6.414263521489594 -6.553790629954614 a30.170329772935812,30.170329772935812 0 0,0 0.36802658976057656,0.3664461666256795 l -6.526125911417493 6.442408612678816" fill="#FF9933" stroke="none" /><path d="M 114.94478906791727 85.2469230424477 l 13.641920125233161 -13.466921248718188 a40.169244967458134,40.169244967458134 0 0,0 0.4815254503987264,0.49625430391795344 l -13.871709839334997 13.23010274925012" fill="#FF9933" stroke="none" /><path d="M 116.60985879189232 87.15038557335679 l 11.994115187259244 -9.278811907796376 a36.16427214031411,36.16427214031411 0 0,0 0.37666649625569,0.4956489567220857 l -12.152057623739047 9.070978175193257" fill="#FF9933" stroke="none" /><path d="M 116.82858285166822 87.43820079747576 l 14.144704469396416 -10.558401672306674 a38.65085013251009,38.65085013251009 0 0,0 0.39338722530714587,0.5365797332214912 l -14.324354307217188 10.313359495413689" fill="#FF9933" stroke="none" /><path d="M 117.2510076193507 88.02491185347247 l 25.089038588488354 -17.415994198029743 a51.54139340633402,51.54139340633402 0 0,0 0.4996460334701177,0.7331689010351304 l -25.385109087627203 16.981547273724207" fill="#FF9933" stroke="none" /><path d="M 117.45458315368197 88.32363383020206 l 7.499761493663689 -5.017018201760691 a30.02313105848733,30.02313105848733 0 0,0 0.28365191519494626,0.4320213270812251 l -7.58501004421656 4.8871788107017915" fill="#FF9933" stroke="none" /><path d="M 117.65298651832404 88.62581576622439 l 15.489830951026786 -9.980418373068872 a39.42670925023994,39.42670925023994 0 0,0 0.3626739141895554,0.5736630359189943 l -15.659332461462297 9.712307689435672" fill="#FF9933" stroke="none" /><line stroke="#2D2D2D" stroke-width="0.3" x1="172.23445277983987" x2="176.4835382374775" y1="55.19839476539836" y2="52.563006222186495" /><path d="M 173.08426987136738 54.67131705675599 a86.0,86.0 0 0,1 12.851231095245387,41.99856678651699" fill="none" id="id39" stroke="none" /><text fill="#2D2D2D" style="font-size:6.75px; font-family:Arial;" text-anchor="middle"><textPath startOffset="22.20632615414155" xlink:href="#id39">March</textPath></text><path d="M 117.84615892207809 88.93136811851018 l 15.843477692836712 -9.826519144556897 a39.643397327251215,39.643397327251215 0 0,0 0.3546841933358399,0.5830075559148299 l -16.010277684458778 9.552343815434986" fill="#FF9933" stroke="none" /><path d="M 118.03404312379186 89.2402003453031 l 16.12190603699715 -9.618945558640988 a39.77338456234955,39.77338456234955 0 0,0 0.34572602692514975,0.5909578487532768 l -16.285091738392627 9.340008297533815" fill="#FF9933" stroke="none" /><path d="M 118.21658344932153 89.55222093294921 l 16.4231776079305 -9.419204852762016 a39.93256936604024,39.93256936604024 0 0,0 0.3368452155597096,0.5992100522815225 l -16.582880464782644 9.1351112905457" fill="#FF9933" stroke="none" /><path d="M 118.56541770881063 90.18545643968196 l 27.041565940372013 -14.295429869861865 a51.58767077878972,51.58767077878972 0 0,0 0.40825639279411263,0.7886214054783057 l -27.28363176632624 13.827835742123213" fill="#FF9933" stroke="none" /><path d="M 118.89224826269711 90.83032412892265 l 10.434202516691906 -5.064418682246607 a32.59831534096345,32.59831534096345 0 0,0 0.24067150896090292,0.5069155767587115 l -10.519832219494566 4.884060689847355" fill="#FF9933" stroke="none" /><path d="M 119.04729006885535 91.15688171328212 l 17.32345568339685 -8.042790716642855 a40.09943976472428,40.09943976472428 0 0,0 0.2852744472341732,0.6285644299195545 l -17.45933244759437 7.743404277881238" fill="#FF9933" stroke="none" /><path d="M 119.196687751892 91.48605970444005 l 15.877787980260063 -7.041972065007414 a38.36932703677479,38.36932703677479 0 0,0 0.2625727977270925,0.6060542190349804 l -15.996651487829837 6.767618701385831" fill="#FF9933" stroke="none" /><path d="M 119.34039704204932 91.81776055985345 l 17.488958679538232 -7.398961208691304 a39.989689377720595,39.989689377720595 0 0,0 0.2627480896325161,0.6362653400366607 l -17.613728456056947 7.09682129820134" fill="#FF9933" stroke="none" /><path d="M 119.61058180528143 92.48833698450437 l 29.419308924251137 -11.268810736059983 a52.503679673740706,52.503679673740706 0 0,0 0.3160106760733957,0.8467515012532981 l -29.60892418882616 10.760736097777352" fill="#FF9933" stroke="none" /><path d="M 119.85752413597 93.16781622104841 l 10.98571347804353 -3.7797468058438017 a32.617761683644304,32.617761683644304 0 0,0 0.1780971821787677,0.532487906077296 l -11.04914795399407 3.5900857968441917" fill="#FF9933" stroke="none" /><path d="M 119.97218684219823 93.5106431181261 l 10.864579228275435 -3.530115782549599 a32.423694640775366,32.423694640775366 0 0,0 0.16789995181707254,0.5322887300594245 l -10.923734663860714 3.342576886063755" fill="#FF9933" stroke="none" /><path d="M 120.18372546131832 94.20196356495316 l 13.428059817726032 -3.857384020822823 a34.97112028265907,34.97112028265907 0 0,0 0.16122224245125646,0.5800021857726849 l -13.49246883074365 3.625670531631186" fill="#FF9933" stroke="none" /><path d="M 120.37134235888165 94.90015583598534 l 30.040880091031436 -7.520555313200338 a51.96793872479463,51.96793872479463 0 0,0 0.20977031628181728,0.8696333880053277 l -30.165883207574076 7.002336693535605" fill="#FF9933" stroke="none" /><path d="M 120.6074358757038 95.95851677861258 l 26.29627421574844 -5.157165193620704 a47.79720863194764,47.79720863194764 0 0,0 0.1513903205373058,0.8087331458584107 l -26.381150260195604 4.70375397029973" fill="#FF9933" stroke="none" /><path d="M 120.83666639777658 97.38593545837742 l 29.94260820892383 -3.7564507156959164 a51.17732109271075,51.17732109271075 0 0,0 0.10213445053416623,0.875025599718923 l -30.002833012461583 3.2404813776521406" fill="#FF9933" stroke="none" /><path d="M 120.91429891909075 98.10471618934814 l 8.856887371544964 -0.8026238561950273 a29.893180475328613,29.893180475328613 0 0,0 0.042029123038622794,0.5128617569360645 l -8.869390978403082 0.650048182051194" fill="#FF9933" stroke="none" /><line stroke="#2D2D2D" stroke-width="0.3" x1="184.98032266829074" x2="189.97916517819016" y1="98.17113171792111" y2="98.06355123074" /><path d="M 185.9800911702706 98.14961562048488 a86.0,86.0 0 0,1 -9.607161424134198,41.387399972396054" fill="none" id="id40" stroke="none" /><text fill="#2D2D2D" style="font-size:6.75px; font-family:Arial;" text-anchor="middle"><textPath startOffset="21.466115282336823" xlink:href="#id40">April</textPath></text><path d="M 120.99980553446 99.90962569577887 l 15.406504674970764 -0.06630309686417173 a36.4066473445896,36.4066473445896 0 0,0 -0.002697043807337427,0.6266979974023872 l -15.405363333873924 -0.19890437874190017" fill="#FF9933" stroke="none" /><path d="M 120.99824983174949 100.27111621757518 l 15.3576075744434 0.1982877863607267 a36.35888760479811,36.35888760479811 0 0,0 -0.01346653088728472,0.625736774615076 l -15.351918980871108 -0.46261437676591755" fill="#FF9933" stroke="none" /><path d="M 120.9764740272857 100.99374915477107 l 23.969238182047455 1.135529744080547 a44.996120662044795,44.996120662044795 0 0,0 -0.04331122830880792,0.7733510762912392 l -23.946140602851116 -1.5479525367072093" fill="#FF9933" stroke="none" /><path d="M 120.95626037817324 101.35467743843564 l 19.046289193629686 1.2312109980941086 a40.08604234956013,40.08604234956013 0 0,0 -0.0504386280191656,0.6881950056449787 l -19.02227400694618 -1.5588791402358575" fill="#FF9933" stroke="none" /><path d="M 120.92983693683757 101.71520430193887 l 19.582060807049995 1.6047537798999987 a40.64770572217293,40.64770572217293 0 0,0 -0.0631498956950727,0.6968538367991916 l -19.551536315077847 -1.941589005247761" fill="#FF9933" stroke="none" /><path d="M 120.8583938346157 102.4346265915055 l 30.987509213490725 3.616913868530206 a52.19788122915623,52.19788122915623 0 0,0 -0.11184885122972889,0.8915453933673139 l -30.920658853014146 -4.149777016184915" fill="#FF9933" stroke="none" /><path d="M 120.76222939487914 103.15116336523771 l 19.09651456655454 2.8983514227377176 a40.31520928077963,40.31520928077963 0 0,0 -0.11003795564437101,0.6852064548369294 l -19.043794856548878 -3.2266371072678517" fill="#FF9933" stroke="none" /><path d="M 120.70491114924044 103.5080841355445 l 18.011556009139664 3.0517423347866934 a39.26825884282091,39.26825884282091 0 0,0 -0.11865289174869521,0.665468429214974 l -17.95635667505178 -3.361329514734886" fill="#FF9933" stroke="none" /><path d="M 120.64145759157962 103.86396538481128 l 17.866469170450177 3.3445030767390853 a39.17680999100128,39.17680999100128 0 0,0 -0.12978729985112525,0.66178264578929 l -17.80625193762339 -3.6515494495963203" fill="#FF9933" stroke="none" /><path d="M 120.5718875245553 104.21870165774334 l 18.112913894735215 3.7144369850881533 a39.489853754810575,39.489853754810575 0 0,0 -0.14228751166613823,0.6647198845524784 l -18.046292344344632 -4.025670689056801" fill="#FF9933" stroke="none" /><path d="M 120.02730092923936 106.31721596034902 l 20.908762167666783 6.595255473686188 a42.924272625271776,42.924272625271776 0 0,0 -0.22833208913019243,0.7027339117248308 l -20.792137827520342 -6.954188285388814" fill="#FF9933" stroke="none" /><path d="M 119.9155931802556 106.66101706037122 l 22.482845208302766 7.5196663309361735 a44.70703925818485,44.70703925818485 0 0,0 -0.25037893991159427,0.7277183991669456 l -22.35007543744794 -7.90555743319242" fill="#FF9933" stroke="none" /><path d="M 119.79798401119884 107.00284435728193 l 14.543720659083585 5.1443324781825 a36.42672898755721,36.42672898755721 0 0,0 -0.21418177528099788,0.5893362581611041 l -14.45301462279736 -5.393916533349735" fill="#FF9933" stroke="none" /><path d="M 119.41010516605496 108.01547362559984 l 9.289271350798376 3.83603843855411 a31.050161846001693,31.050161846001693 0 0,0 -0.208256420468064,0.49225666003440505 l -9.221863949138005 -3.995369624254679" fill="#FF9933" stroke="none" /><path d="M 118.81262510543309 109.33194174019688 l 20.100909914274915 9.970991246234213 a43.438075804628944,43.438075804628944 0 0,0 -0.33803372047225444,0.6669725997591286 l -19.92629752401639 -10.315518057696037" fill="#FF9933" stroke="none" /><path d="M 118.64920377521936 109.65438752849418 l 32.91871598004679 17.041480421491492 a58.06823325613275,58.06823325613275 0 0,0 -0.46716582668740375,0.8837016880540961 l -32.62049764513449 -17.605597124631725" fill="#FF9933" stroke="none" /><line stroke="#2D2D2D" stroke-width="0.3" x1="174.80103733775053" x2="179.2010983576182" y1="140.37084112569926" y2="142.7455964860345" /><path d="M 175.68104954172406 140.8457921977663 a86.0,86.0 0 0,1 -30.038265399797805,32.042727171017184" fill="none" id="id41" stroke="none" /><text fill="#2D2D2D" style="font-size:6.75px; font-family:Arial;" text-anchor="middle"><textPath startOffset="22.206326154141568" xlink:href="#id41">May</textPath></text><path d="M 118.12598468904814 110.60418214915192 l 13.461501628886749 7.875335752659554 a36.595927010653725,36.595927010653725 0 0,0 -0.3227745501868989,0.5409887120706813 l -13.323946203001624 -8.105886558616339" fill="#FF9933" stroke="none" /><path d="M 117.75023020441432 111.22182372390056 l 7.771788682325034 4.91338093129449 a30.194672995747254,30.194672995747254 0 0,0 -0.28152238688036296,0.4369289962305993 l -7.68606143206762 -5.0464315274465426" fill="#FF9933" stroke="none" /><path d="M 116.93607887273984 112.41649034213515 l 17.13622164804334 12.563222702988984 a42.24816832236998,42.24816832236998 0 0,0 -0.43503287630865817,0.582797629872054 l -16.917427505039587 -12.856333212370354" fill="#FF9933" stroke="none" /><path d="M 115.07121518719521 114.62390073753431 l 17.27857201566296 16.76574310066751 a45.07569713669848,45.07569713669848 0 0,0 -0.5451140890486633,0.5521976942316295 l -16.98741730155876 -17.060681288879806" fill="#FF9933" stroke="none" /><path d="M 114.81725581225074 114.88116024355365 l 10.743545138329374 10.789880313407778 a36.2264664094131,36.2264664094131 0 0,0 -0.4456718724823126,0.43618372871900024 l -10.556223313471268 -10.973214145049349" fill="#FF9933" stroke="none" /><path d="M 114.0293411484842 115.62618273729858 l 20.383009011371268 22.703035030415823 a51.51056957760589,51.51056957760589 0 0,0 -0.6648730376260646,0.5866731522424617 l -19.989193620838616 -23.050531324430573" fill="#FF9933" stroke="none" /><path d="M 112.92097659922987 116.55440617244103 l 9.506631384385553 12.179933618808185 a36.45078713972716,36.45078713972716 0 0,0 -0.4979373168660256,0.38179710143641765 l -9.295565339026034 -12.341770062071975" fill="#FF9933" stroke="none" /><path d="M 111.45004920935366 117.60387380957326 l 10.544460357581722 16.21157657324989 a40.33910182048166,40.33910182048166 0 0,0 -0.5853361149420265,0.37358920277575747 l -10.263842440592764 -16.390680204849456" fill="#FF9933" stroke="none" /><path d="M 111.1453310114006 117.79835938074945 l 9.437627499520067 15.071269374259094 a38.782350051980686,38.782350051980686 0 0,0 -0.5688462138817314,0.3494318053968474 l -9.176802085706028 -15.231489646484318" fill="#FF9933" stroke="none" /><line stroke="#2D2D2D" stroke-width="0.3" x1="143.8653032363475" x2="146.44561519142675" y1="172.8068346515853" y2="177.08958963109032" /><path d="M 144.38136562736335 173.6633856474863 a86.0,86.0 0 0,1 -40.68145358897372,12.25698825130547" fill="none" id="id42" stroke="none" /><text fill="#2D2D2D" style="font-size:6.75px; font-family:Arial;" text-anchor="middle"><textPath startOffset="21.466115282336833" xlink:href="#id42">June</textPath></text><path d="M 110.5260780823613 118.17145234162733 l 7.635638114534745 13.18160790852272 a36.2334420427612,36.2334420427612 0 0,0 -0.5423822468967262,0.3079787950950802 l -7.40760710071682 -13.311089869412429" fill="#FF9933" stroke="none" /><path d="M 109.89434966115114 118.52300852407294 l 7.40082965999454 13.85494100896184 a36.70769461181581,36.70769461181581 0 0,0 -0.5598956443544639,0.2929109388238983 l -7.1612431131135805 -13.980281366730456" fill="#FF9933" stroke="none" /><path d="M 109.57404056367764 118.69057910512821 l 6.980507567207822 13.627446845569569 a36.31126361293116,36.31126361293116 0 0,0 -0.5587544258866606,0.2801710686911777 l -6.744899233638401 -13.74558575517005" fill="#FF9933" stroke="none" /><path d="M 108.2653958097858 119.30500536409082 l 4.62662810352587 10.80614678494567 a32.754934961373756,32.754934961373756 0 0,0 -0.5202240786629797,0.21745370707254755 l -4.439932565365429 -10.88418553503819" fill="#FF9933" stroke="none" /><path d="M 106.91757812671514 119.82793768551818 l 2.8613992409003073 8.20166318365842 a29.686477110659006,29.686477110659006 0 0,0 -0.4839323636878474,0.16417613243567503 l -2.719797144275233 -8.249702302992219" fill="#FF9933" stroke="none" /><path d="M 104.48393922423573 120.51570834832081 l 7.419682321238573 33.94783714216553 a55.74920621221575,55.74920621221575 0 0,0 -0.9392640560198235,0.19683191523231214 l -6.834226803789372 -34.07052503812439" fill="#FF9933" stroke="none" /><path d="M 104.13013068566511 120.58985236759428 l 2.5124855017816734 12.525440353971494 a33.774945771218,33.774945771218 0 0,0 -0.5710095030888978,0.10943533028105865 l -2.2965083841210716 -12.566832882601021" fill="#FF9933" stroke="none" /><line stroke="#2D2D2D" stroke-width="0.3" x1="102.19456741930631" x2="102.32365962044197" y1="184.97166512339345" y2="189.96999836594603" /><path d="M 102.22038585953345 185.97133177190398 a86.0,86.0 0 0,1 -42.740103519485714,-10.115201625700543" fill="none" id="id43" stroke="none" /><text fill="#2D2D2D" style="font-size:6.75px; font-family:Arial;" text-anchor="middle"><textPath startOffset="22.20632615414155" xlink:href="#id43">July</textPath></text><path d="M 97.2962882734958 120.8252237178851 l -3.6772873233315524 28.324148034205614 a49.56185925184018,49.56185925184018 0 0,0 -0.8450802269384003,-0.11712041906509184 l 4.164296141456783 -28.256653049647916" fill="#FF9933" stroke="none" /><path d="M 96.58105272829116 120.7198165907248 l -4.02283165314275 24.37953188638068 a45.709203740885286,45.709203740885286 0 0,0 -0.7752085678814246,-0.13477994620516948 l 4.441889192496225 -24.306673361654504" fill="#FF9933" stroke="none" /><path d="M 94.81253420990036 120.34920634021253 l -5.1893400196699755 20.356558501325278 a42.007587292633744,42.007587292633744 0 0,0 -0.6991453920574348,-0.18465065247595386 l 5.538975854538899 -20.264216499545743" fill="#FF9933" stroke="none" /><path d="M 94.46302465271185 120.25689768951611 l -15.402776115698046 56.35070419141965 a79.41786862715207,79.41786862715207 0 0,0 -1.3155714852832676,-0.3717936426294337 l 16.370478769085928 -56.0772217554517" fill="#FF9933" stroke="none" /><path d="M 93.76903079525671 120.05430185196036 l -6.644789597678663 21.386177969419794 a43.39468322922017,43.39468322922017 0 0,0 -0.7114220558266975,-0.22777487630765292 l 7.0119329985963015 -21.268630246452435" fill="#FF9933" stroke="none" /><path d="M 93.08242187328487 119.8279376855182 l -6.820411915936136 19.54942900268549 a41.70502820655128,41.70502820655128 0 0,0 -0.6757812058130912,-0.24231109726091624 l 7.155912682378954 -19.429130364384616" fill="#FF9933" stroke="none" /><path d="M 92.06813273071674 119.44442032107085 l -14.965145802380546 36.68601292339714 a60.62094311222501,60.62094311222501 0 0,0 -0.9628006990527511,-0.4024507702895001 l 15.594417960930759 -36.42297711008767" fill="#FF9933" stroke="none" /><path d="M 91.40352486487194 119.15986991738527 l -9.811027419269095 21.866870566629736 a44.96698327698728,44.96698327698728 0 0,0 -0.7034806257276935,-0.32293345172576843 l 10.185976040764208 -21.694750044569894" fill="#FF9933" stroke="none" /><line stroke="#2D2D2D" stroke-width="0.3" x1="58.666819895761336" x2="56.23545636021788" y1="174.27360380694188" y2="178.64263932499728" /><path d="M 58.180547188652646 175.14741091055294 a86.0,86.0 0 0,1 -31.652253787137756,-30.449443065178592" fill="none" id="id44" stroke="none" /><text fill="#2D2D2D" style="font-size:6.75px; font-family:Arial;" text-anchor="middle"><textPath startOffset="22.20632615414155" xlink:href="#id44">August</textPath></text><path d="M 89.4739219176387 118.17145234162733 l -11.85389449948306 20.463697616017882 a44.649053573551114,44.649053573551114 0 0,0 -0.6617247619173399,-0.3909586531827354 l 12.204387132428781 -20.256620390541396" fill="#FF9933" stroke="none" /><path d="M 88.8546689885994 117.79835938074946 l -7.930812144640131 12.664984520166248 a35.943212980133225,35.943212980133225 0 0,0 -0.5215500518071345,-0.332877919349946 l 8.147643998494189 -12.526592171992498" fill="#FF9933" stroke="none" /><path d="M 84.67929136418377 114.36230785411682 l -7.491454271965726 7.022819576209383 a31.268489757941197,31.268489757941197 0 0,0 -0.3647299467979264,-0.39584232220979476 l 7.611230626759381 -6.8928259991982435" fill="#FF9933" stroke="none" /><path d="M 82.85270091963577 112.12312394758628 l -11.322078775278595 8.004698797970855 a34.86595365057341,34.86595365057341 0 0,0 -0.3422493360217281,-0.49303569470097147 l 11.458189018462456 -7.8086218410828705" fill="#FF9933" stroke="none" /><line stroke="#2D2D2D" stroke-width="0.3" x1="26.63291911575756" x2="22.317208475507996" y1="142.92168965132927" y2="145.44649492493687" /><path d="M 25.769776987707644 143.4266507060508 a86.0,86.0 0 0,1 -11.730757126820373,-40.83630448921669" fill="none" id="id45" stroke="none" /><text fill="#2D2D2D" style="font-size:6.75px; font-family:Arial;" text-anchor="middle"><textPath startOffset="21.46611528233685" xlink:href="#id45">September</textPath></text><path d="M 81.87401531095188 110.60418214915194 l -25.717167154197064 15.045225379014385 a50.79482326079903,50.79482326079903 0 0,0 -0.43501655091654773,-0.7584880241772102 l 25.97233570126599 -14.600317508978867" fill="#FF9933" stroke="none" /><path d="M 81.69416730710424 110.29060199501025 l -19.73518802527902 11.094112388760873 a43.63972120163086,43.63972120163086 0 0,0 -0.3624665172630111,-0.6579820143493301 l 19.92323095199355 -10.752759856013721" fill="#FF9933" stroke="none" /><path d="M 81.51974371655577 109.97397251340807 l -9.679378486465385 5.224053903265797 a31.999141196860577,31.999141196860577 0 0,0 -0.257436887817491,-0.4869735741264574 l 9.767867882507762 -5.056665314053213" fill="#FF9933" stroke="none" /><path d="M 81.35079622478065 109.6543875284942 l -6.909627232697569 3.577000915746316 a28.780609490655976,28.780609490655976 0 0,0 -0.2239697851107141,-0.4419136340424644 l 6.97017568759455 -3.457533070001167" fill="#FF9933" stroke="none" /><path d="M 81.18737489456691 109.33194174019688 l -56.437875316299255 27.995825220590643 a84.0,84.0 0 0,0 -0.6313869735411242,-1.300844176138861 l 56.9114155464551 -27.020192088486496" fill="#FF9933" stroke="none" /><path d="M 81.02952815118164 109.00673069616217 l -31.365060831151574 14.891387964739668 a55.720605934491296,55.720605934491296 0 0,0 -0.40390907563309353,-0.8699842154754283 l 31.616744523624494 -14.349283681985412" fill="#FF9933" stroke="none" /><path d="M 80.87730276802145 108.67885076344099 l -44.69365668251728 20.28425026629476 a70.08129742091585,70.08129742091585 0 0,0 -0.4890970919349514,-1.1027848244519898 l 45.03619485918351 -19.511917105350072" fill="#FF9933" stroke="none" /><path d="M 80.73074385275274 108.34839909993369 l -20.568217026568565 8.911173487948881 a43.415632147774645,43.415632147774645 0 0,0 -0.29119281852046713,-0.6882938060143542 l 20.71856082628134 -8.555805156268368" fill="#FF9933" stroke="none" /><path d="M 80.45479744820244 107.68017299344265 l -7.507958380887744 2.950208320429111 a29.06679417011936,29.06679417011936 0 0,0 -0.17897632190830828,-0.4672506999782693 l 7.557628982389561 -2.820534053617684" fill="#FF9933" stroke="none" /><path d="M 80.32549172779594 107.34259656027581 l -22.435558607932165 8.37303037937702 a44.947065118379946,44.947065118379946 0 0,0 -0.26427962291134593,-0.7271840186704331 l 22.576362491848737 -7.985598563700471" fill="#FF9933" stroke="none" /><path d="M 80.20201598880116 107.00284435728193 l -21.42528176383881 7.57844401824975 a43.72609760600419,43.72609760600419 0 0,0 -0.24488523835892573,-0.7117511309101895 l 21.552557833140963 -7.208520184250264" fill="#FF9933" stroke="none" /><path d="M 80.0844068197444 106.66101706037122 l -35.78908043457749 11.970101678219713 a58.737800843975734,58.737800843975734 0 0,0 -0.3124508339303038,-0.9616247877639793 l 35.989823519524045 -11.35227799047793" fill="#FF9933" stroke="none" /><path d="M 79.97269907076064 106.31721596034903 l -8.319573492159462 2.6242449061738133 a29.72364398740696,29.72364398740696 0 0,0 -0.14971265511556128,-0.4892696192339088 l 8.363512919781154 -2.4806483143878566" fill="#FF9933" stroke="none" /><path d="M 79.86692584326677 105.97154293290107 l -33.84737273647505 10.039253711990606 a56.30483332711814,56.30483332711814 0 0,0 -0.2676017592831938,-0.9315568301174707 l 34.01516713264435 -9.455139406368538" fill="#FF9933" stroke="none" /><path d="M 79.67330655649465 105.27499134158121 l -8.29596695815686 2.152890926207358 a29.570764674810317,29.570764674810317 0 0,0 -0.12361802695674803,-0.49379256853271497 l 8.331796299408667 -2.0097705182772514" fill="#FF9933" stroke="none" /><path d="M 79.58551787078972 104.9243191809786 l -7.495956558757793 1.8081518026488035 a28.71095180066677,28.71095180066677 0 0,0 -0.11175318818007667,-0.4814298098271029 l 7.525970312868425 -1.6788533354731263" fill="#FF9933" stroke="none" /><path d="M 79.4281124754447 104.21870165774334 l -8.444351134757298 1.7316932191197936 a29.62008280077531,29.62008280077531 0 0,0 -0.09812719741505942,-0.5003484655564575 l 8.472908265148023 -1.5860810264953813" fill="#FF9933" stroke="none" /><path d="M 79.35854240842038 103.8639653848113 l -10.421267295122716 1.9508029370293456 a31.602284854479088,31.602284854479088 0 0,0 -0.09548940020128914,-0.535555267318898 l 10.453303137663195 -1.771128918977234" fill="#FF9933" stroke="none" /><path d="M 79.29508885075956 103.50808413554451 l -18.48996768044453 3.132800803585082 a39.75348889403853,39.75348889403853 0 0,0 -0.1085047734011524,-0.6756593275448813 l 18.541154208206972 -2.814062246346987" fill="#FF9933" stroke="none" /><path d="M 79.23777060512086 103.15116336523772 l -8.111880453310937 1.2311712784546176 a29.204778315451286,29.204778315451286 0 0,0 -0.0711566760647579,-0.49766962666632625 l 8.131871180392293 -1.0913561798078908" fill="#FF9933" stroke="none" /><path d="M 79.18660465613746 102.79330883721812 l -9.174275877461369 1.2312544618601435 a30.2565288000211,30.2565288000211 0 0,0 -0.06483324435382014,-0.5167847474980604 l 9.194110631062037 -1.0731519600746746" fill="#FF9933" stroke="none" /><path d="M 79.1416061653843 102.43462659150553 l -14.8425479692285 1.7324470070945865 a35.94331298110429,35.94331298110429 0 0,0 -0.06643984220732545,-0.6151504232883496 l 14.870170112936878 -1.4767002619214549" fill="#FF9933" stroke="none" /><path d="M 79.10278846688536 102.07522291339032 l -16.72702358562206 1.661097346059615 a37.80929987914556,37.80929987914556 0 0,0 -0.05874017490658336,-0.6481929353543262 l 16.75313835680572 -1.3729230221567226" fill="#FF9933" stroke="none" /><path d="M 79.04373962182676 101.35467743843564 l -17.27078044912732 1.1164366254475606 a38.306827787338705,38.306827787338705 0 0,0 -0.03687241788119132,-0.658381790758006 l 17.28743921789604 -0.818983118354117" fill="#FF9933" stroke="none" /><path d="M 79.0235259727143 100.99374915477108 l -7.604606589189081 0.36026413974737437 a28.613135466200895,28.613135466200895 0 0,0 -0.019072517569832047,-0.49217693165059684 l 7.609681239610114 -0.22930996108278073" fill="#FF9933" stroke="none" /><path d="M 79.0095281055655 100.63252640178507 l -33.187098672640595 1.0000592752113133 a54.202163135276585,54.202163135276585 0 0,0 -0.02007528700967529,-0.9328197030139904 l 33.19939602233528 -0.4286497564071941" fill="#FF9933" stroke="none" /><line stroke="#2D2D2D" stroke-width="0.3" x1="15.007084014347285" x2="10.007500721073583" y1="101.09737516637583" y2="101.16192664675087" /><path d="M 14.007167355692545 101.11028546245083 a86.0,86.0 0 0,1 10.666146001902534,-42.60595125391555" fill="none" id="id46" stroke="none" /><text fill="#2D2D2D" style="font-size:6.75px; font-family:Arial;" text-anchor="middle"><textPath startOffset="22.20632615414155" xlink:href="#id46">October</textPath></text><path d="M 79.00019446554 99.90962569577889 l -20.863797591326765 -0.08978898340902791 a41.863990797385675,41.863990797385675 0 0,0 0.009303759384543838,-0.7205864174354758 l 20.859160824824507 0.44891165890497564" fill="#FF9933" stroke="none" /><path d="M 79.03285615573316 98.82574320788736 l -22.153773125504003 -1.2407135066543096 a43.18848876561668,43.18848876561668 0 0,0 0.0479585730203201,-0.741897897657469 l 22.12913396147927 1.6218704685647904" fill="#FF9933" stroke="none" /><path d="M 79.05617556472873 98.46500227214037 l -16.309864038714206 -1.1953692754874157 a37.353610386276245,37.353610386276245 0 0,0 0.05251831561239053,-0.6408564744865863 l 16.28687123928232 1.4759396671817804" fill="#FF9933" stroke="none" /><path d="M 79.08570108090925 98.10471618934814 l -32.054876261073396 -2.9048589324026963 a53.18622838311265,53.18622838311265 0 0,0 0.09047452152220072,-0.9110660847118173 l 32.00012461386896 3.456200547818944" fill="#FF9933" stroke="none" /><path d="M 79.12142395522702 97.74499172005258 l -33.46776824961025 -3.6147146410938684 a54.66240742350669,54.66240742350669 0 0,0 0.10908962852824602,-0.9346133173165542 l 33.40058826807842 4.190271696735284" fill="#FF9933" stroke="none" /><path d="M 79.16333360222342 97.38593545837743 l -15.65876632577744 -1.9644709492558783 a36.78151161821236,36.78151161821236 0 0,0 0.08421915425259134,-0.6275305220924342 l 15.622631172467015 2.233719813412972" fill="#FF9933" stroke="none" /><path d="M 79.21141760316559 97.0276538004421 l -14.301381869277417 -2.04480792562585 a35.44682535450606,35.44682535450606 0 0,0 0.09156101770325098,-0.603272706884903 l 14.264064958134865 2.2906797449028447" fill="#FF9933" stroke="none" /><path d="M 79.32604984820605 96.31383870115002 l -17.822470523327375 -3.17774303462192 a39.103549551095256,39.103549551095256 0 0,0 0.12385449004504555,-0.6616356383110819 l 17.765130309372466 3.4840567503955744" fill="#FF9933" stroke="none" /><path d="M 79.62865764111835 94.90015583598534 l -29.40121811892193 -7.360419750313272 a51.30853684652601,51.30853684652601 0 0,0 0.2218573024777169,-0.8549066877360608 l 29.270164484573904 7.865422863598197" fill="#FF9933" stroke="none" /><path d="M 79.91906864156998 93.8553929516997 l -21.505717201175795 -6.580580309469734 a43.489995765813944,43.489995765813944 0 0,0 0.22520469287982384,-0.7139604191609665 l 21.389257024527765 6.949790895057115" fill="#FF9933" stroke="none" /><path d="M 80.02781315780177 93.51064311812611 l -18.228086604582476 -5.922664362468042 a40.16614448486205,40.16614448486205 0 0,0 0.21931232501848963,-0.6557159372056638 l 18.123436985792214 6.235553402596029" fill="#FF9933" stroke="none" /><path d="M 80.2630227832202 92.82701384747504 l -7.437742641161449 -2.703089960793903 a28.913703995746623,28.913703995746623 0 0,0 0.17402664354688233,-0.4663048841019839 l 7.390111409112939 2.830717981925228" fill="#FF9933" stroke="none" /><path d="M 80.803312248108 91.48605970444005 l -16.860499173733853 -7.477815192590175 a39.444352860483136,39.444352860483136 0 0,0 0.28061404410648444,-0.6182958493875406 l 16.729282812664017 7.7669330508197865" fill="#FF9933" stroke="none" /><path d="M 80.95270993114464 91.15688171328213 l -13.931081090873583 -6.467807100280963 a36.3592821787654,36.3592821787654 0 0,0 0.2684385133149144,-0.5653999693972321 l 13.817684383716918 6.706649485318727" fill="#FF9933" stroke="none" /><path d="M 81.10775173730289 90.83032412892265 l -27.95691054648793 -13.569364773496783 a52.0759795929355,52.0759795929355 0 0,0 0.3983564136784523,-0.8030622219379007 l 27.719194119856063 14.048586583933645" fill="#FF9933" stroke="none" /><path d="M 81.26839172434947 90.50648371742162 l -7.106310033273822 -3.6016058534403763 a28.96688188769886,28.96688188769886 0 0,0 0.22923916764289048,-0.4428171065244933 l 7.043261432470817 3.7233956822252052" fill="#FF9933" stroke="none" /><line stroke="#2D2D2D" stroke-width="0.3" x1="26.266209847984243" x2="21.928928074336255" y1="57.711370442889674" y2="55.22380399835377" /><path d="M 25.398753493254645 57.213857153982495 a86.0,86.0 0 0,1 29.58750427330803,-30.492523968695096" fill="none" id="id47" stroke="none" /><text fill="#2D2D2D" style="font-size:6.75px; font-family:Arial;" text-anchor="middle"><textPath startOffset="21.46611528233685" xlink:href="#id47">November</textPath></text><path d="M 81.78341655067845 89.55222093294921 l -13.082017296355003 -7.50294515126241 a36.08089395510039,36.08089395510039 0 0,0 0.3136294346650338,-0.5360943683174922 l 12.950928187219645 7.727018931933794" fill="#FF9933" stroke="none" /><path d="M 82.15384107792192 88.93136811851018 l -12.663901928836058 -7.854467129067401 a35.90191484154899,35.90191484154899 0 0,0 0.3302504375864174,-0.5223768824475814 l 12.526823895003679 8.071291659229198" fill="#FF9933" stroke="none" /><path d="M 82.34701348167596 88.62581576622439 l -32.46172762285625 -20.915762335497632 a59.61648448960016,59.61648448960016 0 0,0 0.5632433862318587,-0.857858319138703 l 32.09688760126647 21.471438718614003" fill="#FF9933" stroke="none" /><path d="M 82.7489923806493 88.02491185347247 l -17.710955197150746 -12.29436878847443 a42.55990347618688,42.55990347618688 0 0,0 0.42293879799263123,-0.5982169359336886 l 17.496703779354235 12.597412224739905" fill="#FF9933" stroke="none" /><path d="M 82.95767976084542 87.72973835380427 l -25.9183654288184 -18.66090536913254 a52.93729881654816,52.93729881654816 0 0,0 0.538794283315911,-0.7349147969337146 l 25.593308532988853 19.10428260973775" fill="#FF9933" stroke="none" /><path d="M 83.39014120810768 87.1503855733568 l -24.60265151651002 -19.03294843268237 a52.10536268369136,52.10536268369136 0 0,0 0.5549119877799403,-0.7046818722858755 l 24.271385448136108 19.453622698921293" fill="#FF9933" stroke="none" /><path d="M 83.6137871275137 86.86637796730984 l -24.15029082995557 -19.35656482729761 a51.95017203643319,51.95017203643319 0 0,0 0.565271078438848,-0.6929555037613556 l 23.81352125944033 19.769404500667047" fill="#FF9933" stroke="none" /><path d="M 83.84228863543731 86.58626213691792 l -11.764859661221887 -9.76689952747217 a36.290658887961044,36.290658887961044 0 0,0 0.40315359752954644,-0.4772066982844297 l 11.594995450205218 9.967965175385714" fill="#FF9933" stroke="none" /><path d="M 84.31358615837235 86.03803664274999 l -11.102164669573805 -9.881673266288201 a35.862890933193576,35.862890933193576 0 0,0 0.41439802623012395,-0.457588650762149 l 10.930423002727636 10.071314704319906" fill="#FF9933" stroke="none" /><path d="M 84.5562425177563 85.77008943001954 l -21.88974917342709 -20.16926084829438 a50.76508360549475,50.76508360549475 0 0,0 0.5976565509609605,-0.6375383381672223 l 21.539325300495676 20.543068603339652" fill="#FF9933" stroke="none" /><path d="M 84.80347519578584 85.50635884689758 l -10.977066284678854 -10.469344912320675 a36.169151825707594,36.169151825707594 0 0,0 0.43357466981324766,-0.4468368095320078 l 10.795227351162488 10.656745917402807" fill="#FF9933" stroke="none" /><path d="M 85.05521093208273 85.24692304244772 l -33.55679685135048 -33.1263294615315 a68.15307326693282,68.15307326693282 0 0,0 0.8313513085505868,-0.8277812218290949 l 32.98160974263258 33.699046534010705" fill="#FF9933" stroke="none" /><path d="M 85.31137513191541 84.99185889309783 l -11.598525543291224 -11.850823991287834 a37.58215378202911,37.58215378202911 0 0,0 0.4662276572072934,-0.44851063684172277 l 11.392814642471503 12.048717714891872" fill="#FF9933" stroke="none" /><path d="M 86.10567301691215 84.25364557470407 l -25.956134412210307 -29.41592582805707 a60.23031488462058,60.23031488462058 0 0,0 0.7832986906879725,-0.6792689058111346 l 25.445941922875562 29.858359727287887" fill="#FF9933" stroke="none" /><path d="M 86.37877921826538 84.01681056812374 l -16.120310458481043 -18.91563024248603 a45.85287662924084,45.85287662924084 0 0,0 0.6051323412637072,-0.5067809331338623 l 15.792320580258226 19.190312333013704" fill="#FF9933" stroke="none" /><path d="M 86.93701828274178 83.55741782278169 l -19.53164524420681 -24.58479150742864 a52.39899901922483,52.39899901922483 0 0,0 0.7110480410815363,-0.5549842745212766 l 19.10556464796585 24.91735417117314" fill="#FF9933" stroke="none" /><path d="M 87.22198572758235 83.33499621200491 l -21.606844068922086 -28.17950665718559 a56.509721289543805,56.509721289543805 0 0,0 0.7770190177331986,-0.5852346148630294 l 21.118578897430496 28.547257861554474" fill="#FF9933" stroke="none" /><path d="M 87.80319425747018 82.90503203632743 l -14.834394845484889 -20.791796638997223 a46.54130141377226,46.54130141377226 0 0,0 0.6561633367556635,-0.45968435003372926 l 14.474300369145565 21.044065831794892" fill="#FF9933" stroke="none" /><path d="M 88.09926311788651 82.69761687909137 l -5.115583347104895 -7.437504402906345 a30.02694105023558,30.02694105023558 0 0,0 0.42837764666581674,-0.28924249926537415 l 4.986801006032539 7.5244588144703854" fill="#FF9933" stroke="none" /><path d="M 88.39885842347998 82.49532879139004 l -8.581401509702866 -12.94826125046544 a36.53376713102895,36.53376713102895 0 0,0 0.5271874339533311,-0.3428973717157536 l 8.357247049965247 13.094057546340728" fill="#FF9933" stroke="none" /><line stroke="#2D2D2D" stroke-width="0.3" x1="56.762969772571076" x2="54.21961505331055" y1="26.818313649435495" y2="22.513508569990535" /><path d="M 56.25429882871897 25.957352633546506 a86.0,86.0 0 0,1 42.265352541879196,-11.944610805530505" fill="none" id="id48" stroke="none" /><text fill="#2D2D2D" style="font-size:6.75px; font-family:Arial;" text-anchor="middle"><textPath startOffset="22.20632615414155" xlink:href="#id48">December</textPath></text><path d="M 89.63071344664047 81.73862282372117 l -15.445865666382442 -27.201753688305597 a52.28114719608568,52.28114719608568 0 0,0 0.7863978569010492,-0.4376295559505425 l 14.975343720409347 27.463598641816326" fill="#FF9933" stroke="none" /><path d="M 89.94658935756843 81.56283822128135 l -12.560669965765424 -23.035277523678037 a47.237271972934764,47.237271972934764 0 0,0 0.7172303884314238,-0.3831196342387365 l 12.162294530805696 23.248075884418522" fill="#FF9933" stroke="none" /><path d="M 90.26544431104013 81.39251694778311 l -17.977780863503906 -34.36430623264135 a59.782807371655295,59.782807371655295 0 0,0 0.915928156872916,-0.46917397679292655 l 17.383592219042228 34.668672734746785" fill="#FF9933" stroke="none" /><path d="M 90.58718382345135 81.22770947309562 l -11.417674357225353 -22.77064548539929 a46.472840115491174,46.472840115491174 0 0,0 0.7181796152908285,-0.3524076182033837 l 11.0240234749241 22.9638082637375" fill="#FF9933" stroke="none" /><path d="M 90.91171255644093 81.06846463323043 l -3.9839961149707834 -8.298941227381055 a30.205685772370643,30.205685772370643 0 0,0 0.470664691778909,-0.2209833837146971 l 3.840553211892266 8.366289593735761" fill="#FF9933" stroke="none" /><path d="M 91.23893434514133 80.91482961587045 l -10.459425326945219 -22.78488968680712 a46.07091494560804,46.07091494560804 0 0,0 0.7235719794122792,-0.32464565554534214 l 10.065671229066165 22.96155567286899" fill="#FF9933" stroke="none" /><path d="M 91.56875222667455 80.76684994638697 l -9.783590658780795 -22.318080581000423 a45.36832712761816,45.36832712761816 0 0,0 0.717934856494766,-0.3073822380598212 l 9.397972044495722 22.483182347023032" fill="#FF9933" stroke="none" /><path d="M 91.90106846888425 80.62456947434976 l -9.223235856300171 -22.065153269768512 a44.915247614844326,44.915247614844326 0 0,0 0.7158979941962103,-0.2920327669607644 l 8.84205399251558 22.220646922912856" fill="#FF9933" stroke="none" /><path d="M 92.23578459929587 80.48803036053334 l -3.1037010492256174 -7.799799144802054 a29.394630837756896,29.394630837756896 0 0,0 0.4717374024258924,-0.18302678326097646 l 2.9689804818000485 7.852068631953582" fill="#FF9933" stroke="none" /><path d="M 92.57280143429618 80.3572730644239 l -5.430335098352443 -14.361618120479585 a36.35397714987508,36.35397714987508 0 0,0 0.5872338846522751,-0.21628319558804848 l 5.1823188879275985 14.452964583873957" fill="#FF9933" stroke="none" /><path d="M 94.28887869178378 79.79150937346287 l -2.8563328915125052 -10.106977833119899 a31.502839544918945,31.502839544918945 0 0,0 0.5231003164171248,-0.14298307670573243 l 2.681934685871658 10.154647450651927" fill="#FF9933" stroke="none" /><path d="M 96.04723909329186 79.375362276772 l -4.860340885202501 -25.360190594522223 a46.821738526111375,46.821738526111375 0 0,0 0.792858983729992,-0.14488991144957325 l 4.4230867803696166 25.440095987322533" fill="#FF9933" stroke="none" /></svg>